<?xml version="1.0" standalone="no"?>
<!DOCTYPE svg PUBLIC "-//W3C//DTD SVG 1.1//EN" "http://www.w3.org/Graphics/SVG/1.1/DTD/svg11.dtd" >
<svg xmlns="http://www.w3.org/2000/svg" xmlns:xlink="http://www.w3.org/1999/xlink" version="1.1">
<metadata>
Created by FontForge 20170731 at Sat Oct  5 04:23:33 2013
 By Aleksey,,,
Copyright (c) 2013 by S-Core Co., Ltd.. All rights reserved.
</metadata>
<defs>
<font id="CoreSansM85Heavy" horiz-adv-x="1000" >
  <font-face 
    font-family="CoreSansM85Heavy"
    font-weight="400"
    font-stretch="normal"
    units-per-em="1000"
    panose-1="2 15 9 3 3 3 2 2 2 4"
    ascent="787"
    descent="-213"
    x-height="518"
    cap-height="700"
    bbox="-439.762 -310 1230 1019.2"
    underline-thickness="24"
    underline-position="-231"
    unicode-range="U+0008-FB04"
  />
<missing-glyph horiz-adv-x="300" 
 />
    <glyph glyph-name="f_f" unicode="ff" horiz-adv-x="869" 
d="M321 738q32 0 67 -4.5t62 -14.5q19 -7 19 -25v-100q0 -16 -17 -14t-36.5 3t-39.5 1q-38 0 -55.5 -11.5t-17.5 -40.5v-14h195v24q0 45 10.5 81.5t36 62t68.5 39t107 13.5q32 0 64.5 -4.5t59.5 -14.5q19 -7 19 -25v-100q0 -16 -17 -14t-35.5 3t-38.5 1q-35 0 -51.5 -11.5
t-16.5 -40.5v-14h131q21 0 21 -20v-114q0 -20 -21 -20h-131v-343q0 -21 -20 -21h-166q-20 0 -20 21v343h-195v-343q0 -21 -20 -21h-166q-20 0 -20 21v343h-75q-21 0 -21 20v114q0 20 21 20h75v24q0 45 11 81.5t37 62t69 39t107 13.5z" />
    <glyph glyph-name="f_i" unicode="fi" horiz-adv-x="788" 
d="M516 364h-213v-343q0 -21 -20 -21h-166q-20 0 -20 21v343h-75q-21 0 -21 20v114q0 20 21 20h75v24q0 45 10.5 81.5t36 62t68.5 39t107 13.5q32 0 64 -3.5t60 -10.5q19 -5 19 -23v-107q0 -16 -17 -14q-20 2 -37 3t-37 1q-35 0 -51.5 -11.5t-16.5 -40.5v-14h399
q20 0 20 -21v-476q0 -21 -20 -21h-166q-20 0 -20 21v343zM536 567q-20 0 -20 21v106q0 21 20 21h170q20 0 20 -21v-18q0 -13 -5.5 -37t-17.5 -51q-4 -8 -11.5 -14.5t-18.5 -6.5h-137z" />
    <glyph glyph-name="f_l" unicode="fl" horiz-adv-x="827" 
d="M97 518v24q0 45 10.5 81.5t36 62t68.5 39t107 13.5q28 0 53.5 -0.5t49.5 -1.5t48 -2.5t50 -3.5h162q20 0 20 -21v-491q0 -33 12 -50.5t55 -17.5q11 0 21 1t22 3q17 3 17 -14v-113q0 -18 -19 -23q-32 -7 -62.5 -9.5t-50.5 -2.5q-105 0 -153 52.5t-48 143.5v394
q-31 1 -64 1.5t-61 0.5q-35 0 -51.5 -11.5t-16.5 -40.5v-14h131q21 0 21 -20v-114q0 -20 -21 -20h-131v-343q0 -21 -20 -21h-166q-20 0 -20 21v343h-75q-21 0 -21 20v114q0 20 21 20h75z" />
    <glyph glyph-name="f_f_i" unicode="ffi" horiz-adv-x="1189" 
d="M321 738q32 0 67 -4.5t62 -14.5q19 -7 19 -25v-100q0 -16 -17 -14t-36.5 3t-39.5 1q-38 0 -55.5 -11.5t-17.5 -40.5v-14h195v24q0 45 10.5 81.5t36 62t68.5 39t107 13.5q32 0 64.5 -4.5t59.5 -14.5q19 -7 19 -25v-100q0 -16 -17 -14t-35.5 3t-38.5 1q-35 0 -51.5 -11.5
t-16.5 -40.5v-14h399q20 0 20 -21v-476q0 -21 -20 -21h-166q-20 0 -20 21v343h-213v-343q0 -21 -20 -21h-166q-20 0 -20 21v343h-195v-343q0 -21 -20 -21h-166q-20 0 -20 21v343h-75q-21 0 -21 20v114q0 20 21 20h75v24q0 45 11 81.5t37 62t69 39t107 13.5zM937 567
q-20 0 -20 21v106q0 21 20 21h170q20 0 20 -21v-18q0 -13 -5.5 -37t-17.5 -51q-4 -8 -11.5 -14.5t-18.5 -6.5h-137z" />
    <glyph glyph-name="f_f_l" unicode="ffl" horiz-adv-x="1228" 
d="M97 542q0 45 11 81.5t37 62t69 39t107 13.5q32 0 67 -4.5t62 -14.5q19 -7 19 -25v-100q0 -16 -17 -14t-36.5 3t-39.5 1q-38 0 -55.5 -11.5t-17.5 -40.5v-14h195v24q0 45 10.5 81.5t36 62t68.5 39t107 13.5q28 0 53.5 -0.5t49.5 -1.5t48 -2.5t50 -3.5h162q20 0 20 -21
v-491q0 -33 12 -50.5t55 -17.5q11 0 21 1t22 3q17 3 17 -14v-113q0 -18 -19 -23q-32 -7 -62.5 -9.5t-50.5 -2.5q-105 0 -153 52.5t-48 143.5v394q-31 1 -64 1.5t-61 0.5q-35 0 -51.5 -11.5t-16.5 -40.5v-14h131q21 0 21 -20v-114q0 -20 -21 -20h-131v-343q0 -21 -20 -21
h-166q-20 0 -20 21v343h-195v-343q0 -21 -20 -21h-166q-20 0 -20 21v343h-75q-21 0 -21 20v114q0 20 21 20h75v24z" />
    <glyph glyph-name=".notdef" horiz-adv-x="300" 
 />
    <glyph glyph-name=".null" horiz-adv-x="0" 
 />
    <glyph glyph-name=".null" horiz-adv-x="0" 
 />
    <glyph glyph-name=".null" horiz-adv-x="0" 
 />
    <glyph glyph-name="nonmarkingreturn" unicode="&#x9;" horiz-adv-x="237" 
 />
    <glyph glyph-name="nonmarkingreturn" unicode="&#xd;" horiz-adv-x="237" 
 />
    <glyph glyph-name="space" unicode=" " horiz-adv-x="300" 
 />
    <glyph glyph-name="exclam" unicode="!" horiz-adv-x="272" 
d="M85 0q-14 0 -20.5 5.5t-10.5 16.5q-4 10 -7 24.5t-5 29.5t-3 28.5t-1 22.5v5q0 21 20 21h159q20 0 20 -21v-111q0 -21 -20 -21h-132zM217 700q20 0 20 -21v-151l-18 -302q-1 -11 -5 -16t-15 -5h-125q-11 0 -15 5t-5 16l-18 302v151q0 21 20 21h161z" />
    <glyph glyph-name="quotedbl" unicode="&#x22;" horiz-adv-x="649" 
d="M80 645v34q0 21 20 21h179q20 0 20 -21v-45q0 -26 -3 -58.5t-7.5 -67.5t-11 -69.5t-13.5 -63.5q-2 -11 -5.5 -16t-14.5 -5h-127q-11 0 -15 5t-5 16zM350 645v34q0 21 20 21h179q20 0 20 -21v-45q0 -26 -3 -58.5t-7.5 -67.5t-11 -69.5t-13.5 -63.5q-2 -11 -5.5 -16
t-14.5 -5h-127q-11 0 -15 5t-5 16z" />
    <glyph glyph-name="numbersign" unicode="#" horiz-adv-x="703" 
d="M47 140q-21 0 -21 20v106q0 20 21 20h75l22 128h-57q-21 0 -21 20v106q0 20 21 20h81l20 119q3 21 23 21h130q20 0 17 -21l-20 -119h100l20 119q3 21 23 21h130q20 0 17 -21l-20 -119h48q21 0 21 -20v-106q0 -20 -21 -20h-72l-22 -128h54q21 0 21 -20v-106q0 -20 -21 -20
h-78l-19 -119q-3 -21 -23 -21h-130q-20 0 -17 21l19 119h-100l-19 -119q-3 -21 -23 -21h-130q-20 0 -17 21l19 119h-51zM292 286h100l22 128h-100z" />
    <glyph glyph-name="dollar" unicode="$" horiz-adv-x="565" 
d="M368 -77q0 -21 -20 -21h-130q-20 0 -20 21v69q-35 3 -69 9t-64 16q-8 2 -13 6.5t-5 14.5v105q0 11 4.5 17t15.5 4q45 -5 86.5 -8t86.5 -3q41 0 52.5 15.5t11.5 40.5q0 44 -47 67l-89 42q-35 16 -58 35t-37.5 42t-20.5 51t-6 63q0 82 35.5 131.5t116.5 64.5v74q0 21 20 21
h130q20 0 20 -21v-73q30 -4 58.5 -10t51.5 -13q10 -3 14 -7.5t4 -13.5v-105q0 -24 -23 -21q-36 5 -71 8t-70 3q-38 0 -52 -11t-14 -34t12 -37.5t34 -24.5l97 -44q66 -30 90.5 -78t24.5 -121q0 -43 -8 -77t-26 -59t-48 -41.5t-74 -24.5v-72z" />
    <glyph glyph-name="percent" unicode="%" horiz-adv-x="964" 
d="M402 22q-5 -11 -12 -16.5t-22 -5.5h-129q-12 0 -14 7.5t2 15.5l336 655q5 11 12 16.5t22 5.5h129q12 0 14 -7.5t-2 -15.5zM547 200q0 86 51.5 128.5t141.5 42.5q91 0 142.5 -42.5t51.5 -128.5v-38q0 -85 -51.5 -127.5t-142.5 -42.5q-90 0 -141.5 42.5t-51.5 127.5v38z
M774 199q0 36 -5.5 49.5t-28.5 13.5q-22 0 -27.5 -13.5t-5.5 -49.5v-35q0 -38 5.5 -51t27.5 -13q23 0 28.5 13t5.5 51v35zM30 537q0 86 51.5 128.5t141.5 42.5q91 0 142.5 -42.5t51.5 -128.5v-38q0 -85 -51.5 -127.5t-142.5 -42.5q-90 0 -141.5 42.5t-51.5 127.5v38z
M257 536q0 36 -5.5 49.5t-28.5 13.5q-22 0 -27.5 -13.5t-5.5 -49.5v-35q0 -38 5.5 -51t27.5 -13q23 0 28.5 13t5.5 51v35z" />
    <glyph glyph-name="ampersand" unicode="&#x26;" horiz-adv-x="778" 
d="M251 196q0 -54 63 -54q31 0 60 12l-99 106q-24 -30 -24 -64zM722 27q8 -8 4 -17.5t-15 -9.5h-166q-14 0 -27 7t-21 15l-9 9q-80 -43 -188 -43q-62 0 -108.5 14.5t-78 41t-47 63.5t-15.5 81q0 51 28 98.5t85 91.5q-28 32 -46.5 72t-18.5 78q0 40 11 73.5t39 58t75.5 38.5
t120.5 14q35 0 73.5 -5t75.5 -14q18 -4 18 -21v-102q0 -25 -23 -21q-57 9 -117 9q-38 0 -55.5 -11.5t-17.5 -28.5q0 -15 5 -27t13 -23q17 -25 40.5 -51.5t53.5 -56.5l72 -72q10 29 14.5 54.5t6.5 49.5q3 25 26 17l106 -36q15 -4 15 -23q0 -104 -38 -195z" />
    <glyph glyph-name="quotesingle" unicode="'" horiz-adv-x="379" 
d="M80 645v34q0 21 20 21h179q20 0 20 -21v-45q0 -26 -3 -58.5t-7.5 -67.5t-11 -69.5t-13.5 -63.5q-2 -11 -5.5 -16t-14.5 -5h-127q-11 0 -15 5t-5 16z" />
    <glyph glyph-name="parenleft" unicode="(" horiz-adv-x="402" 
d="M272 302q0 -65 4 -115t15 -87.5t31.5 -64.5t52.5 -45q11 -6 16 -11.5t5 -15.5v-103q0 -21 -21 -18q-88 13 -144 57t-88.5 107t-44.5 139.5t-12 156.5q0 79 12 156t44.5 140t88.5 106.5t144 57.5q21 3 21 -18v-103q0 -10 -5 -15.5t-16 -11.5q-32 -18 -52.5 -45
t-31.5 -64.5t-15 -87.5t-4 -115z" />
    <glyph glyph-name="parenright" unicode=")" horiz-adv-x="402" 
d="M130 302q0 65 -4 115t-15.5 87.5t-31.5 64.5t-52 45q-11 6 -16 11.5t-5 15.5v103q0 21 21 18q88 -14 144 -57.5t88.5 -106.5t44.5 -140t12 -156q0 -80 -12 -156.5t-44.5 -139.5t-88.5 -107t-144 -57q-21 -3 -21 18v103q0 10 5 15.5t16 11.5q32 18 52 45t31.5 64.5
t15.5 87.5t4 115z" />
    <glyph glyph-name="asterisk" unicode="*" horiz-adv-x="688" 
d="M304 380q-26 58 -38 109t-12 93q0 9 3 13.5t14 4.5h148q17 0 17 -18q0 -42 -12 -92.5t-40 -109.5q48 43 93 70t84 40q8 2 13.5 0.5t8.5 -11.5l46 -141q5 -16 -12 -22q-39 -13 -91 -17t-117 4q113 -64 160 -134q5 -8 4.5 -13.5t-8.5 -11.5l-120 -87q-13 -11 -25 4
q-24 34 -44 82t-32 112q-12 -64 -32 -112t-44 -82q-12 -15 -25 -4l-120 87q-8 6 -8.5 11.5t4.5 13.5q47 70 160 134q-65 -8 -117 -4t-91 17q-17 6 -12 22l46 141q3 10 8.5 11.5t13.5 -0.5q39 -13 84 -40t93 -70z" />
    <glyph glyph-name="plus" unicode="+" horiz-adv-x="638" 
d="M404 256v-170q0 -21 -20 -21h-130q-20 0 -20 21v170h-153q-21 0 -21 20v112q0 20 21 20h153v170q0 21 20 21h130q20 0 20 -21v-170h153q21 0 21 -20v-112q0 -20 -21 -20h-153z" />
    <glyph glyph-name="comma" unicode="," horiz-adv-x="300" 
d="M20 -120q-15 5 -5 22q17 25 30 58t13 62q0 10 -2.5 20.5t-4.5 20.5q-13 51 -13 91v18q0 21 20 21h180q20 0 20 -21v-23q0 -29 -6 -63.5t-20.5 -72.5t-37 -79t-55.5 -82q-9 -11 -27 -5z" />
    <glyph glyph-name="hyphen" unicode="-" horiz-adv-x="446" 
d="M61 254q-21 0 -21 20v116q0 20 21 20h324q21 0 21 -20v-116q0 -20 -21 -20h-324z" />
    <glyph glyph-name="period" unicode="." horiz-adv-x="300" 
d="M96 0q-14 0 -22 7.5t-13 18.5q-11 28 -17 65t-6 63v18q0 21 20 21h180q20 0 20 -21v-151q0 -21 -20 -21h-142z" />
    <glyph glyph-name="slash" unicode="/" horiz-adv-x="589" 
d="M188 -88q-5 -11 -12 -16.5t-22 -5.5h-149q-12 0 -14 7.5t2 15.5l408 814q5 11 12 16.5t22 5.5h149q12 0 14 -7.5t-2 -15.5z" />
    <glyph glyph-name="zero" unicode="0" horiz-adv-x="600" 
d="M300 -12q-81 0 -131.5 22.5t-78.5 67.5t-38 113t-10 159t10 159t38 113t78.5 67.5t131.5 22.5t131.5 -22.5t78.5 -67.5t38 -113t10 -159t-10 -159t-38 -113t-78.5 -67.5t-131.5 -22.5zM300 546q-14 0 -21.5 -9t-11 -31.5t-4.5 -60.5t-1 -95t1 -95t4.5 -60.5t11 -31.5
t21.5 -9q13 0 21 9t11.5 31.5t4.5 60.5t1 95t-1 95t-4.5 60.5t-11.5 31.5t-21 9z" />
    <glyph glyph-name="one" unicode="1" horiz-adv-x="600" 
d="M216 539h-22q-45 0 -91 -8q-23 -3 -23 19v105q0 19 16 22q31 5 64.5 9.5t66 7.5t62 4.5t52.5 1.5h75q20 0 20 -21v-658q0 -21 -20 -21h-180q-20 0 -20 21v518z" />
    <glyph glyph-name="two" unicode="2" horiz-adv-x="600" 
d="M264 156h247q21 0 21 -20v-116q0 -20 -21 -20h-435q-21 0 -21 20v117q0 34 7 62.5t22.5 54t41 49.5t62.5 49q62 42 98.5 72.5t36.5 65.5q0 32 -23.5 44t-71.5 12q-35 0 -69.5 -2.5t-60.5 -7.5q-23 -3 -23 20v107q0 17 20 23q37 11 84 18.5t95 7.5q72 0 121 -13.5
t79.5 -41.5t44 -69.5t13.5 -97.5q0 -40 -10 -71t-29 -56.5t-45 -46.5t-58 -41q-20 -12 -42 -27t-40.5 -30t-31 -28.5t-12.5 -23.5v-10z" />
    <glyph glyph-name="three" unicode="3" horiz-adv-x="600" 
d="M118 283q-21 0 -21 20v116q0 20 21 20h102q51 0 80.5 10t29.5 43q0 34 -27.5 47t-81.5 13q-34 0 -64 -2.5t-62 -7.5q-23 -4 -23 20v101q0 17 20 23q42 13 91 19.5t100 6.5q118 0 182.5 -54t64.5 -154q0 -87 -75 -141q45 -28 64 -67t19 -91q0 -49 -19 -89t-52.5 -68.5
t-80 -44t-101.5 -15.5q-47 0 -102 6.5t-100 19.5q-20 6 -20 23v101q0 23 23 20q33 -5 67 -7.5t71 -2.5q20 0 40 2t36.5 8.5t27 19.5t10.5 35q0 41 -31.5 55.5t-82.5 14.5h-106z" />
    <glyph glyph-name="four" unicode="4" horiz-adv-x="600" 
d="M221 262h90v190q0 21 20 21h159q20 0 20 -21v-190h54q21 0 21 -20v-105q0 -20 -21 -20h-54v-96q0 -21 -20 -21h-159q-20 0 -20 21v96h-264q-21 0 -21 20v96q0 28 8 60q15 57 29 108t28.5 99t30 93t32.5 90q7 17 27 17h145q11 0 13.5 -6.5t-0.5 -14.5q-17 -48 -34.5 -100
t-33 -105.5t-28.5 -107t-22 -104.5z" />
    <glyph glyph-name="five" unicode="5" horiz-adv-x="600" 
d="M323 217q0 35 -27 50t-76 15h-93q-25 0 -37.5 12.5t-10.5 33.5l24 352q1 20 21 20h368q21 0 21 -20v-106q0 -20 -21 -20h-214l-10 -126h53q43 0 81.5 -11.5t67 -35.5t45 -60.5t16.5 -85.5v-35q0 -99 -67 -155.5t-198 -56.5q-51 0 -94 7t-81 20q-11 4 -15.5 8.5t-4.5 14.5
v86q0 23 23 20q31 -5 60 -7.5t66 -2.5q51 0 77 15.5t26 52.5v15z" />
    <glyph glyph-name="six" unicode="6" horiz-adv-x="600" 
d="M350 446q113 0 163 -53t50 -147v-31q0 -109 -66 -168t-192 -59t-192 61.5t-66 185.5v207q0 61 17.5 111t52 85t86 54.5t119.5 19.5q48 0 93 -7.5t80 -18.5q20 -6 20 -23v-101q0 -23 -23 -20q-29 5 -63 7.5t-60 2.5q-34 0 -56 -6.5t-35.5 -18t-19 -28t-5.5 -37.5v-30
q8 3 20.5 5.5t26 4.5t26.5 3t24 1zM357 228q0 32 -12.5 48t-48.5 16q-8 0 -20.5 -0.5t-22.5 -1.5v-63q0 -44 10 -64.5t42 -20.5t42 19.5t10 47.5v19z" />
    <glyph glyph-name="seven" unicode="7" horiz-adv-x="600" 
d="M147 0q-33 0 -27 27q37 145 88 268.5t119 238.5h-261q-21 0 -21 20v126q0 20 21 20h457q21 0 21 -20v-110q0 -21 -5 -37.5t-16 -35.5q-34 -60 -61 -115t-49.5 -111t-41.5 -116.5t-37 -130.5q-6 -24 -27 -24h-160z" />
    <glyph glyph-name="eight" unicode="8" horiz-adv-x="600" 
d="M53 510q0 56 17 94.5t49 62.5t78 34.5t103 10.5t103 -10.5t78 -34.5t49 -62.5t17 -94.5q0 -45 -21.5 -79.5t-60.5 -59.5q46 -27 75 -68.5t29 -101.5q0 -113 -64 -163t-205 -50t-205 50t-64 163q0 49 24 87.5t72 64.5q-35 29 -54.5 68t-19.5 89zM266 289q-35 -29 -35 -80
q0 -69 69 -69q35 0 52 18t17 51q0 32 -23 49t-80 31zM353 508q0 30 -10.5 46t-42.5 16q-30 0 -41.5 -16t-11.5 -46q0 -29 15 -50t61 -35q20 18 25 40.5t5 44.5z" />
    <glyph glyph-name="nine" unicode="9" horiz-adv-x="600" 
d="M250 254q-113 0 -163 52.5t-50 147.5v31q0 109 66 168t192 59t192 -61.5t66 -185.5v-207q0 -61 -17.5 -111t-52 -85t-86 -54.5t-119.5 -19.5q-48 0 -93 7.5t-80 18.5q-20 6 -20 23v101q0 23 23 20q29 -5 63 -7.5t60 -2.5q34 0 56 6.5t35.5 18t19 28t5.5 37.5v30
q-8 -3 -20.5 -5.5t-26 -4.5t-27 -3t-23.5 -1zM243 472q0 -32 12.5 -48t48.5 -16q8 0 20.5 0.5t22.5 1.5v63q0 44 -10 64.5t-42 20.5t-42 -19.5t-10 -47.5v-19z" />
    <glyph glyph-name="colon" unicode=":" horiz-adv-x="300" 
d="M96 0q-14 0 -22 7.5t-13 18.5q-11 28 -17 65t-6 63v18q0 21 20 21h180q20 0 20 -21v-151q0 -21 -20 -21h-142zM200 528q14 0 22 -7.5t13 -18.5q11 -28 17 -65t6 -63v-18q0 -21 -20 -21h-180q-20 0 -20 21v151q0 21 20 21h142z" />
    <glyph glyph-name="semicolon" unicode=";" horiz-adv-x="300" 
d="M20 -120q-15 5 -5 22q17 25 30 58t13 62q0 10 -2.5 20.5t-4.5 20.5q-13 51 -13 91v18q0 21 20 21h180q20 0 20 -21v-23q0 -29 -6 -63.5t-20.5 -72.5t-37 -79t-55.5 -82q-9 -11 -27 -5zM200 528q14 0 22 -7.5t13 -18.5q11 -28 17 -65t6 -63v-18q0 -21 -20 -21h-180
q-20 0 -20 21v151q0 21 20 21h142z" />
    <glyph glyph-name="less" unicode="&#x3c;" horiz-adv-x="638" 
d="M565 173q17 -9 9 -27l-32 -72q-9 -19 -33 -11q-60 21 -110.5 40t-98 39.5t-94.5 44.5t-101 54q-26 14 -35.5 25.5t-9.5 30.5v70q0 19 9.5 30.5t35.5 25.5q54 30 101 54t94.5 44.5t98 39t110.5 39.5q24 8 33 -11l32 -71q8 -18 -9 -27l-321 -159z" />
    <glyph glyph-name="equal" unicode="=" horiz-adv-x="638" 
d="M81 383q-21 0 -21 20v112q0 20 21 20h476q21 0 21 -20v-112q0 -20 -21 -20h-476zM81 129q-21 0 -21 20v112q0 20 21 20h476q21 0 21 -20v-112q0 -20 -21 -20h-476z" />
    <glyph glyph-name="greater" unicode="&#x3e;" horiz-adv-x="638" 
d="M394 332l-321 159q-17 9 -9 27l32 71q9 19 33 11q60 -21 110.5 -39.5t98 -39t94.5 -44.5t101 -54q26 -14 35.5 -25.5t9.5 -30.5v-70q0 -19 -9.5 -30.5t-35.5 -25.5q-54 -30 -101 -54t-94.5 -44.5t-98 -39.5t-110.5 -40q-24 -8 -33 11l-32 72q-8 18 9 27z" />
    <glyph glyph-name="question" unicode="?" horiz-adv-x="502" 
d="M165 0q-14 0 -20.5 5.5t-10.5 16.5q-4 10 -7 24.5t-5 29.5t-3 28.5t-1 22.5v5q0 21 20 21h159q20 0 20 -21v-111q0 -21 -20 -21h-132zM176 568q-32 0 -64.5 -2t-65.5 -7q-8 -2 -12 3t-4 13v90q0 18 21 24q38 11 79.5 17t83.5 6q112 0 175 -52t63 -145q0 -23 -5 -46
t-17 -47t-33 -49t-53 -50q-16 -13 -21.5 -33t-5.5 -44v-20q0 -21 -20 -21h-151q-20 0 -20 21v26q0 60 17 103t65 78q29 21 42 39t13 43q0 31 -23 42t-64 11z" />
    <glyph glyph-name="at" unicode="@" horiz-adv-x="916" 
d="M549 -51q55 0 111 9t115 23q17 5 17 -14v-55q0 -17 -19 -23q-22 -7 -49.5 -13.5t-57 -11.5t-59 -8t-55.5 -3h-41q-117 0 -204.5 34.5t-145 93.5t-86.5 138t-29 168v43q0 97 30 175t83.5 132.5t127 84t161.5 29.5h38q84 0 153.5 -25.5t119.5 -71.5t78 -111t28 -143v-240
q0 -25 -11.5 -39.5t-37.5 -26.5q-27 -13 -58.5 -23.5t-63.5 -18t-64.5 -11.5t-60.5 -4h-18q-84 0 -142.5 16.5t-96 48.5t-54.5 80t-17 110v34q0 51 15.5 94.5t45 75t73 49.5t100.5 18q99 0 153 -49t54 -127v-235q19 3 38 7.5t40 9.5v229q0 64 -23.5 112t-62 80t-88 48.5
t-100.5 16.5h-32q-64 0 -119.5 -20.5t-96 -61.5t-63.5 -103.5t-23 -147.5v-27q0 -81 25 -145.5t72 -109t114.5 -68t152.5 -23.5h33zM521 366q0 33 -12 47.5t-35 14.5q-38 0 -55 -26t-17 -89v-21q0 -66 26.5 -104.5t92.5 -43.5v222z" />
    <glyph glyph-name="A" unicode="A" horiz-adv-x="638" 
d="M31 0q-11 0 -14.5 6.5t-1.5 16.5l152 658q2 8 8 13.5t19 5.5h250q13 0 19 -5.5t8 -13.5l152 -658q2 -10 -1.5 -16.5t-14.5 -6.5h-177q-20 0 -23 17l-18 105h-140l-18 -105q-3 -17 -23 -17h-177zM319 534l-46 -268h91z" />
    <glyph glyph-name="B" unicode="B" horiz-adv-x="652" 
d="M266 427h66q36 0 49.5 19t13.5 51q0 30 -15.5 48.5t-57.5 18.5q-11 0 -28.5 -1.5t-27.5 -3.5v-132zM66 625q0 32 10 47.5t36 21.5q42 10 97.5 14t112.5 4q138 0 200 -52t62 -145q0 -48 -20 -83t-61 -63q57 -20 82.5 -62.5t25.5 -96.5q0 -57 -14.5 -98.5t-47 -69t-84 -41
t-126.5 -13.5q-66 0 -126.5 4.5t-100.5 13.5q-26 6 -36 21.5t-10 47.5v550zM266 141q18 -3 36 -4t36 -1q32 0 52.5 17t20.5 60q0 36 -16 57t-52 21h-77v-150z" />
    <glyph glyph-name="C" unicode="C" horiz-adv-x="576" 
d="M46 380q0 82 15.5 144.5t50.5 104t92.5 62.5t141.5 21q41 0 86.5 -8t77.5 -20q20 -7 20 -24v-104q0 -8 -5 -13t-12 -4q-31 4 -57 5.5t-58 1.5q-37 0 -62.5 -9t-41 -30t-22 -55t-6.5 -83v-38q0 -50 7.5 -83.5t24 -54.5t42.5 -30t63 -9q32 0 61 1.5t59 5.5q8 1 12.5 -4
t4.5 -13v-104q0 -10 -4.5 -14.5t-15.5 -9.5q-38 -15 -79.5 -21.5t-89.5 -6.5q-84 0 -142 21t-94.5 62.5t-52.5 103.5t-16 145v60z" />
    <glyph glyph-name="D" unicode="D" horiz-adv-x="665" 
d="M619 330q0 -75 -14 -138t-49 -108.5t-96.5 -70.5t-155.5 -25q-63 0 -108 4.5t-84 13.5q-26 6 -36 21.5t-10 47.5v550q0 32 10 47.5t36 21.5q39 9 84 13.5t108 4.5q94 0 155.5 -25t96.5 -70.5t49 -108.5t14 -138v-40zM409 367q0 48 -3.5 82t-12.5 55.5t-25 31.5t-41 10
q-30 0 -51 -3v-386q21 -3 51 -3q25 0 41 10t25 31.5t12.5 55.5t3.5 82v34z" />
    <glyph glyph-name="E" unicode="E" horiz-adv-x="596" 
d="M286 436h209q21 0 21 -20v-126q0 -20 -21 -20h-209v-64q0 -28 8.5 -40t36.5 -12h197q17 0 17 -17v-113q0 -23 -23 -24q-66 -5 -134.5 -8.5t-137.5 -3.5q-50 0 -85 9.5t-57 29.5t-32 49.5t-10 70.5v406q0 81 42.5 120t141.5 39q68 0 132 -3t130 -9q23 -1 23 -24v-113
q0 -17 -17 -17h-187q-28 0 -36.5 -12t-8.5 -40v-58z" />
    <glyph glyph-name="F" unicode="F" horiz-adv-x="581" 
d="M66 553q0 81 42.5 120t141.5 39q72 0 137.5 -3t134.5 -9q23 -1 23 -24v-113q0 -17 -17 -17h-197q-28 0 -36.5 -12t-8.5 -40v-63h209q21 0 21 -20v-126q0 -20 -21 -20h-209v-248q0 -17 -17 -17h-186q-17 0 -17 17v536z" />
    <glyph glyph-name="G" unicode="G" horiz-adv-x="672" 
d="M266 336q0 -99 31.5 -141t106.5 -42q18 0 37 4v120h-65q-21 0 -21 20v104q0 20 21 20h222q18 0 18 -21v-330q0 -26 -9 -42t-32 -21q-52 -12 -101.5 -15.5t-114.5 -3.5q-84 0 -143.5 23t-97 67t-55 107t-17.5 144v42q0 93 20 158t60.5 105.5t102 59t144.5 18.5
q54 0 104.5 -6.5t95.5 -20.5q22 -7 22 -25v-103q0 -20 -18 -18q-40 3 -80.5 5t-78.5 2q-45 0 -74.5 -9.5t-46.5 -31t-24 -56t-7 -85.5v-28z" />
    <glyph glyph-name="H" unicode="H" horiz-adv-x="693" 
d="M407 277h-121v-260q0 -17 -17 -17h-186q-17 0 -17 17v666q0 17 17 17h186q17 0 17 -17v-240h121v240q0 17 17 17h186q17 0 17 -17v-666q0 -17 -17 -17h-186q-17 0 -17 17v260z" />
    <glyph glyph-name="I" unicode="I" horiz-adv-x="372" 
d="M296 21q0 -21 -20 -21h-180q-20 0 -20 21v658q0 21 20 21h180q20 0 20 -21v-658z" />
    <glyph glyph-name="J" unicode="J" horiz-adv-x="475" 
d="M409 216q0 -49 -7.5 -91t-28.5 -72.5t-57.5 -47.5t-94.5 -17q-26 0 -53 2t-53 5.5t-50 8.5t-43 11q-21 7 -21 29v104q0 17 19 14q26 -4 55.5 -6t54.5 -2q38 0 48.5 19.5t10.5 55.5v454q0 17 17 17h186q17 0 17 -17v-467z" />
    <glyph glyph-name="K" unicode="K" horiz-adv-x="648" 
d="M462 363l182 -340q4 -7 2 -15t-14 -8h-187q-14 0 -22 5.5t-13 16.5l-124 274v-275q0 -21 -20 -21h-180q-20 0 -20 21v658q0 21 20 21h180q20 0 20 -21v-249l114 248q5 11 12 16.5t22 5.5h173q12 0 14 -7.5t-2 -15.5z" />
    <glyph glyph-name="L" unicode="L" horiz-adv-x="556" 
d="M286 206q0 -28 8.5 -40t36.5 -12h207q17 0 17 -17v-113q0 -23 -23 -24q-66 -5 -139.5 -8.5t-142.5 -3.5q-50 0 -85 9.5t-57 29.5t-32 49.5t-10 70.5v536q0 17 17 17h186q17 0 17 -17v-477z" />
    <glyph glyph-name="M" unicode="M" horiz-adv-x="876" 
d="M388 168q-29 0 -39 26l-78 196v-373q0 -17 -17 -17h-171q-17 0 -17 17v666q0 17 17 17h183q22 0 32 -6t16 -20l124 -300l124 300q6 14 16 20t32 6h183q17 0 17 -17v-666q0 -17 -17 -17h-171q-17 0 -17 17v373l-78 -196q-10 -26 -39 -26h-100z" />
    <glyph glyph-name="N" unicode="N" horiz-adv-x="738" 
d="M467 288v395q0 17 17 17h171q17 0 17 -17v-666q0 -17 -17 -17h-215q-23 0 -33 5.5t-15 20.5l-121 386v-395q0 -17 -17 -17h-171q-17 0 -17 17v666q0 17 17 17h215q23 0 33 -5.5t15 -20.5z" />
    <glyph glyph-name="O" unicode="O" horiz-adv-x="700" 
d="M350 -12q-80 0 -137.5 21.5t-94.5 64t-54.5 106t-17.5 147.5v46q0 84 17.5 147.5t54.5 106t94.5 64t137.5 21.5q160 0 232 -85t72 -254v-46q0 -169 -72 -254t-232 -85zM434 368q0 48 -3 82t-12 55.5t-25.5 31t-43.5 9.5t-43.5 -9.5t-25.5 -31t-12 -55.5t-3 -82v-36
q0 -48 3 -82t12 -55.5t25.5 -31t43.5 -9.5t43.5 9.5t25.5 31t12 55.5t3 82v36z" />
    <glyph glyph-name="P" unicode="P" horiz-adv-x="622" 
d="M66 625q0 32 10 47.5t36 21.5q42 10 99.5 14t114.5 4q136 0 198 -56.5t62 -162.5v-49q0 -53 -12.5 -95t-39.5 -70.5t-70.5 -43.5t-104.5 -15q-17 0 -40 1.5t-43 4.5v-205q0 -21 -20 -21h-170q-20 0 -20 21v604zM276 371q10 -2 22.5 -2.5t23.5 -0.5q34 0 46.5 24t12.5 63
v24q0 39 -12.5 62t-46.5 23q-11 0 -24.5 -1t-21.5 -4v-188z" />
    <glyph glyph-name="Q" unicode="Q" horiz-adv-x="700" 
d="M350 -12q-80 0 -137.5 21.5t-94.5 64t-54.5 106t-17.5 147.5v46q0 84 17.5 147.5t54.5 106t94.5 64t137.5 21.5q160 0 232 -85t72 -254v-46q0 -104 -26 -175.5t-83 -112.5l85 -128q4 -6 1.5 -13.5t-13.5 -7.5h-155q-15 0 -24.5 6t-15.5 16l-49 77q-6 -1 -12 -1h-12z
M434 368q0 48 -3 82t-12 55.5t-25.5 31t-43.5 9.5t-43.5 -9.5t-25.5 -31t-12 -55.5t-3 -82v-36q0 -48 3 -82t12 -55.5t25.5 -31t43.5 -9.5t43.5 9.5t25.5 31t12 55.5t3 82v36z" />
    <glyph glyph-name="R" unicode="R" horiz-adv-x="635" 
d="M276 21q0 -21 -20 -21h-170q-20 0 -20 21v604q0 32 10 47.5t36 21.5q42 10 99.5 14t114.5 4q136 0 196.5 -55.5t60.5 -161.5v-38q0 -67 -19 -115t-63 -75l120 -246q4 -8 0.5 -14.5t-11.5 -6.5h-176q-24 0 -32 21l-90 216q-10 1 -19 1.5t-17 2.5v-220zM322 383
q33 0 44.5 23.5t11.5 58.5v20q0 36 -11.5 57.5t-44.5 21.5q-11 0 -24.5 -1t-21.5 -4v-174q13 -2 25 -2h21z" />
    <glyph glyph-name="S" unicode="S" horiz-adv-x="565" 
d="M240 153q35 0 49.5 14.5t14.5 41.5q0 44 -47 67l-89 42q-35 16 -58 35t-37.5 42t-20.5 51t-6 63q0 100 54 151.5t178 51.5q24 0 50.5 -2t53.5 -6t51.5 -9.5t44.5 -11.5q10 -3 14 -7.5t4 -13.5v-105q0 -24 -23 -21q-36 5 -71 8t-70 3q-38 0 -52 -11t-14 -34t12 -37.5
t34 -24.5l97 -44q66 -30 90.5 -78t24.5 -121q0 -52 -12 -91t-40.5 -65.5t-76 -39.5t-118.5 -13q-57 0 -110.5 7.5t-101.5 21.5q-8 2 -13 6.5t-5 14.5v105q0 11 4.5 17t15.5 4q45 -5 86.5 -8t86.5 -3z" />
    <glyph glyph-name="T" unicode="T" horiz-adv-x="552" 
d="M386 534v-513q0 -21 -20 -21h-180q-20 0 -20 21v513h-137q-21 0 -21 20v126q0 20 21 20h494q21 0 21 -20v-126q0 -20 -21 -20h-137z" />
    <glyph glyph-name="U" unicode="U" horiz-adv-x="686" 
d="M343 154q21 0 32.5 10.5t17 32.5t6.5 55.5t1 79.5v351q0 17 17 17h186q17 0 17 -17v-356q0 -77 -10.5 -139.5t-40.5 -107t-84 -68.5t-142 -24t-142 24t-84 68.5t-40.5 107t-10.5 139.5v356q0 17 17 17h186q17 0 17 -17v-351q0 -46 1 -79.5t6.5 -55.5t17 -32.5t32.5 -10.5
z" />
    <glyph glyph-name="V" unicode="V" horiz-adv-x="638" 
d="M407 683q3 17 23 17h177q11 0 14.5 -6.5t1.5 -16.5l-152 -658q-2 -8 -8 -13.5t-19 -5.5h-250q-13 0 -19 5.5t-8 13.5l-152 658q-2 10 1.5 16.5t14.5 6.5h177q20 0 23 -17l88 -517z" />
    <glyph glyph-name="W" unicode="W" horiz-adv-x="932" 
d="M726 678q3 22 28 22h147q13 0 17 -8t2 -17l-114 -653q-4 -22 -32 -22h-218q-29 0 -32 22l-58 404l-58 -404q-3 -22 -32 -22h-218q-28 0 -32 22l-114 653q-2 9 2 17t17 8h147q25 0 28 -22l70 -517l75 517q3 22 30 22h170q27 0 30 -22l75 -517z" />
    <glyph glyph-name="X" unicode="X" horiz-adv-x="631" 
d="M393 678q5 11 11.5 16.5t20.5 5.5h165q13 0 17 -7.5t0 -15.5l-144 -318l154 -336q4 -8 0 -15.5t-17 -7.5h-165q-14 0 -20.5 5.5t-11.5 16.5l-88 211l-87 -211q-5 -11 -11.5 -16.5t-20.5 -5.5h-165q-13 0 -17 7.5t0 15.5l154 336l-144 318q-4 8 0 15.5t17 7.5h165
q14 0 21 -5.5t11 -16.5l77 -193z" />
    <glyph glyph-name="Y" unicode="Y" horiz-adv-x="652" 
d="M425 678q5 11 11.5 16.5t20.5 5.5h165q13 0 17 -7.5t0 -15.5l-203 -442v-214q0 -21 -20 -21h-180q-20 0 -20 21v212l-203 444q-4 8 0 15.5t17 7.5h165q14 0 20.5 -5.5t11.5 -16.5l99 -236z" />
    <glyph glyph-name="Z" unicode="Z" horiz-adv-x="581" 
d="M47 0q-21 0 -21 20v124q0 14 2.5 24.5t10.5 21.5l267 344h-242q-21 0 -21 20v126q0 20 21 20h460q21 0 21 -20v-119q0 -14 -2.5 -24.5t-10.5 -21.5l-271 -349h273q21 0 21 -20v-126q0 -20 -21 -20h-487z" />
    <glyph glyph-name="bracketleft" unicode="[" horiz-adv-x="441" 
d="M292 -40h126q17 0 17 -17v-62q0 -14 -5.5 -19t-19.5 -7q-21 -3 -48 -5.5t-57 -4t-59.5 -2.5t-54.5 -1h-68q-17 0 -17 17v886q0 17 17 17h68q25 0 54.5 -1t59.5 -2.5t57 -4t48 -5.5q14 -2 19.5 -7t5.5 -19v-62q0 -17 -17 -17h-126v-684z" />
    <glyph glyph-name="backslash" unicode="\" horiz-adv-x="589" 
d="M-7 726q-4 8 -2 15.5t14 7.5h149q15 0 22 -5.5t12 -16.5l408 -814q4 -8 2 -15.5t-14 -7.5h-149q-15 0 -22 5.5t-12 16.5z" />
    <glyph glyph-name="bracketright" unicode="]" horiz-adv-x="441" 
d="M149 644h-126q-17 0 -17 17v62q0 14 5.5 19t19.5 7q21 3 48 5.5t57 4t59.5 2.5t54.5 1h68q17 0 17 -17v-886q0 -17 -17 -17h-68q-25 0 -54.5 1t-59.5 2.5t-57 4t-48 5.5q-14 2 -19.5 7t-5.5 19v62q0 17 17 17h126v684z" />
    <glyph glyph-name="asciicircum" unicode="^" horiz-adv-x="584" 
d="M292 598l-148 -219q-8 -11 -17 -14t-23 2l-50 19q-12 5 -13 17t5 25q19 39 35 70t32.5 59t35 55t41.5 58q11 14 23.5 22t34.5 8h88q22 0 34.5 -8t23.5 -22q23 -31 41.5 -58t35 -55t32.5 -59t35 -70q6 -13 5 -25t-13 -17l-50 -19q-14 -5 -23 -2t-17 14z" />
    <glyph glyph-name="underscore" unicode="_" horiz-adv-x="500" 
d="M486 -102q14 0 14 -14v-40q0 -14 -14 -14h-472q-14 0 -14 14v40q0 14 14 14h472z" />
    <glyph glyph-name="grave" unicode="`" horiz-adv-x="472" 
d="M353 621q9 -9 -2 -18l-59 -44q-12 -9 -29 -1q-46 21 -79.5 43t-61.5 50q-14 14 1 25l82 61q8 5 15.5 3t13.5 -7z" />
    <glyph glyph-name="a" unicode="a" horiz-adv-x="575" 
d="M200 318q32 0 65.5 -4.5t62.5 -14.5v26q0 21 -6.5 34.5t-21.5 20.5t-39.5 9.5t-59.5 2.5q-54 0 -108 -9q-17 -3 -17 14v80q0 17 19 23q84 26 173 26q68 0 116.5 -11t79.5 -34.5t45.5 -60.5t14.5 -89v-269q0 -41 -30 -48q-21 -6 -48.5 -10t-56.5 -6.5t-58.5 -4t-54.5 -1.5
q-65 0 -112 8t-78 27t-45.5 50.5t-14.5 78.5q0 42 13.5 73t37 50.5t55.5 29t68 9.5zM328 201q-12 2 -24 3t-23 1q-40 0 -54.5 -13t-14.5 -38q0 -23 15 -36.5t50 -13.5q23 0 51 5v92z" />
    <glyph glyph-name="b" unicode="b" horiz-adv-x="599" 
d="M359 526q53 0 93 -17.5t67 -49t40.5 -75.5t13.5 -98v-36q0 -60 -18 -107.5t-53.5 -81t-87.5 -51.5t-121 -18q-51 0 -107.5 6t-99.5 17q-30 7 -30 48v650q0 17 17 17h172q17 0 17 -17v-201q9 3 21 6t25.5 4.5t26.5 2.5t24 1zM262 149q19 -3 37 -3q41 0 54.5 31.5
t13.5 80.5v20q0 51 -17 72.5t-55 21.5q-17 0 -33 -3v-220z" />
    <glyph glyph-name="c" unicode="c" horiz-adv-x="502" 
d="M339 146q64 0 120 9q17 3 17 -14v-100q0 -15 -19 -23q-14 -6 -33.5 -10.5t-41 -8t-42.5 -5.5t-38 -2q-75 0 -127.5 17t-85.5 49t-48 77t-15 101v46q0 56 15 101t48 77t85.5 49t127.5 17q17 0 37 -2t40.5 -5.5t38.5 -8t32 -10.5q19 -8 19 -23v-100q0 -17 -17 -14
q-26 5 -53 7t-60 2q-60 0 -83.5 -25.5t-23.5 -76.5v-22q0 -51 23.5 -76.5t83.5 -25.5z" />
    <glyph glyph-name="d" unicode="d" horiz-adv-x="599" 
d="M240 526q10 0 23.5 -1t27 -2.5t25.5 -4.5t21 -6v201q0 17 17 17h172q17 0 17 -17v-650q0 -41 -30 -48q-43 -11 -99.5 -17t-107.5 -6q-69 0 -121 18t-87.5 51.5t-53.5 81t-18 107.5v36q0 54 13.5 98t40.5 75.5t67 49t93 17.5zM337 369q-17 3 -33 3q-38 0 -55 -21.5
t-17 -72.5v-20q0 -49 13.5 -80.5t54.5 -31.5q17 0 37 3v220z" />
    <glyph glyph-name="e" unicode="e" horiz-adv-x="554" 
d="M528 304q0 -55 -31.5 -82t-99.5 -27h-166q9 -38 36.5 -53.5t82.5 -15.5q34 0 62 2t60 7q17 3 17 -14v-81q0 -20 -19 -26q-78 -22 -168 -22q-77 0 -130 17.5t-85.5 50t-46.5 78t-14 101.5v40q0 54 14 99t45.5 78t82 51.5t124.5 18.5q117 0 176.5 -59t59.5 -163zM311 302
q28 0 28 28q0 27 -13 43.5t-41 16.5q-32 0 -44.5 -24.5t-14.5 -63.5h85z" />
    <glyph glyph-name="f" unicode="f" horiz-adv-x="468" 
d="M97 518v24q0 45 10.5 81.5t36 62t68.5 39t107 13.5q32 0 64.5 -4.5t59.5 -14.5q19 -7 19 -25v-100q0 -16 -17 -14t-35.5 3t-38.5 1q-35 0 -51.5 -11.5t-16.5 -40.5v-14h131q21 0 21 -20v-114q0 -20 -21 -20h-131v-343q0 -21 -20 -21h-166q-20 0 -20 21v343h-75
q-21 0 -21 20v114q0 20 21 20h75z" />
    <glyph glyph-name="g" unicode="g" horiz-adv-x="599" 
d="M337 369q-20 3 -37 3q-21 0 -34 -8.5t-20.5 -23.5t-10.5 -34.5t-3 -40.5v-15q0 -45 17 -67t55 -22h16t17 2v206zM543 2q0 -47 -14 -84.5t-45.5 -63.5t-83 -40t-127.5 -14q-45 0 -89.5 7t-78.5 19q-19 6 -19 23v100q0 17 17 14q60 -9 127 -9q56 0 81.5 12.5t25.5 43.5v10
q-9 -3 -21.5 -5.5t-26 -4t-26.5 -2.5t-23 -1q-53 0 -93 17t-67 48t-40.5 74.5t-13.5 97.5v27q0 120 71 187.5t209 67.5q51 0 107.5 -6t99.5 -17q30 -8 30 -48v-453z" />
    <glyph glyph-name="h" unicode="h" horiz-adv-x="612" 
d="M561 21q0 -21 -20 -21h-166q-20 0 -20 21v284q0 35 -11.5 51t-43.5 16q-8 0 -18.5 -0.5t-19.5 -2.5v-348q0 -21 -20 -21h-166q-20 0 -20 21v688q0 21 20 21h166q20 0 20 -21v-198q55 15 125 15q88 0 131 -52.5t43 -171.5v-281z" />
    <glyph glyph-name="i" unicode="i" horiz-adv-x="338" 
d="M66 497q0 21 20 21h166q20 0 20 -21v-476q0 -21 -20 -21h-166q-20 0 -20 21v476zM86 567q-20 0 -20 21v106q0 21 20 21h170q20 0 20 -21v-18q0 -13 -5.5 -37t-17.5 -51q-4 -8 -11.5 -14.5t-18.5 -6.5h-137z" />
    <glyph glyph-name="j" unicode="j" horiz-adv-x="392" 
d="M326 -4q0 -45 -11 -81.5t-36.5 -62t-67.5 -39t-104 -13.5q-72 0 -132 19q-19 6 -19 23v102q0 16 17 14q20 -2 40 -3t40 -1q43 0 55 17.5t12 50.5v475q0 21 20 21h166q20 0 20 -21v-501zM140 567q-20 0 -20 21v106q0 21 20 21h170q20 0 20 -21v-18q0 -13 -5.5 -37
t-17.5 -51q-4 -8 -11.5 -14.5t-18.5 -6.5h-137z" />
    <glyph glyph-name="k" unicode="k" horiz-adv-x="585" 
d="M437 273l143 -246q5 -10 4 -18.5t-12 -8.5h-193q-9 0 -14 4t-9 12l-94 192v-187q0 -21 -20 -21h-166q-20 0 -20 21v688q0 21 20 21h166q20 0 20 -21v-377l95 173q7 13 24 13h168q11 0 14 -6.5t-2 -14.5z" />
    <glyph glyph-name="l" unicode="l" horiz-adv-x="397" 
d="M66 709q0 21 20 21h166q20 0 20 -21v-491q0 -33 12 -50.5t55 -17.5q11 0 21 1t22 3q17 3 17 -14v-108q0 -17 -19 -23q-27 -8 -57 -12.5t-56 -4.5q-105 0 -153 52.5t-48 143.5v521z" />
    <glyph glyph-name="m" unicode="m" horiz-adv-x="869" 
d="M252 21q0 -21 -20 -21h-156q-20 0 -20 21v434q0 40 30 48q47 11 99 17t100 6q98 0 158 -37q43 20 87.5 28.5t88.5 8.5q103 0 151 -51.5t48 -159.5v-294q0 -21 -20 -21h-156q-20 0 -20 21v279q0 36 -8 54t-37 18q-14 0 -25.5 -1t-22.5 -4q6 -29 6 -59v-287q0 -21 -20 -21
h-156q-20 0 -20 21v282q0 38 -10 53.5t-43 15.5q-9 0 -18.5 -0.5t-15.5 -2.5v-348z" />
    <glyph glyph-name="n" unicode="n" horiz-adv-x="612" 
d="M561 21q0 -21 -20 -21h-166q-20 0 -20 21v284q0 33 -10.5 50t-41.5 17q-23 0 -41 -3v-348q0 -21 -20 -21h-166q-20 0 -20 21v434q0 40 30 48q21 6 49 10t57.5 7t59 4.5t55.5 1.5q68 0 116 -11.5t79 -38t45 -69.5t14 -105v-281z" />
    <glyph glyph-name="o" unicode="o" horiz-adv-x="568" 
d="M26 279q0 124 66 185.5t192 61.5t192 -61.5t66 -185.5v-40q0 -124 -66 -185.5t-192 -61.5t-192 61.5t-66 185.5v40zM336 277q0 53 -10 74t-42 21t-42 -21t-10 -74v-36q0 -54 10 -74.5t42 -20.5t42 20.5t10 74.5v36z" />
    <glyph glyph-name="p" unicode="p" horiz-adv-x="599" 
d="M359 -8q-11 0 -24 1t-26.5 2.5t-25.5 4.5t-21 6v-182q0 -17 -17 -17h-172q-17 0 -17 17v631q0 40 30 48q43 11 99.5 17t107.5 6q69 0 121 -18t87.5 -51.5t53.5 -81t18 -107.5v-36q0 -54 -13.5 -98t-40.5 -75.5t-67 -49t-93 -17.5zM262 149q16 -3 33 -3q38 0 55 21.5
t17 72.5v20q0 49 -13.5 80.5t-54.5 31.5q-18 0 -37 -3v-220z" />
    <glyph glyph-name="q" unicode="q" horiz-adv-x="599" 
d="M240 -8q-53 0 -93 17.5t-67 49t-40.5 75.5t-13.5 98v36q0 60 18 107.5t53.5 81t87.5 51.5t121 18q51 0 107.5 -6t99.5 -17q30 -8 30 -48v-631q0 -17 -17 -17h-172q-17 0 -17 17v182q-9 -3 -21 -6t-25.5 -4.5t-27 -2.5t-23.5 -1zM337 369q-20 3 -37 3q-41 0 -54.5 -31.5
t-13.5 -80.5v-20q0 -51 17 -72.5t55 -21.5q16 0 33 3v220z" />
    <glyph glyph-name="r" unicode="r" horiz-adv-x="429" 
d="M423 376q0 -11 -4.5 -16t-16.5 -2q-17 5 -42.5 7.5t-42.5 2.5q-14 0 -29 -0.5t-26 -2.5v-344q0 -21 -20 -21h-166q-20 0 -20 21v434q0 40 30 48q43 11 94 17t99 6h27t31.5 -1l33 -2t30.5 -2q13 -2 17.5 -7t4.5 -17v-121z" />
    <glyph glyph-name="s" unicode="s" horiz-adv-x="490" 
d="M253 -8q-55 0 -110.5 6.5t-92.5 17.5q-19 6 -19 23v91q0 16 17 14q38 -5 82 -7.5t81 -2.5q31 0 39 6.5t8 17.5q0 14 -10.5 20.5t-27.5 13.5l-56 21q-67 25 -100 60t-33 94q0 43 16 73.5t44 49.5t66.5 27.5t84.5 8.5t90.5 -6t78.5 -17q19 -6 19 -23v-92q0 -16 -17 -14
q-38 5 -68.5 7.5t-63.5 2.5q-25 0 -34.5 -4.5t-9.5 -16.5q0 -15 10 -22t28 -14l64 -25q64 -25 94.5 -61t30.5 -92q0 -74 -54 -115.5t-157 -41.5z" />
    <glyph glyph-name="t" unicode="t" horiz-adv-x="471" 
d="M32 364q-21 0 -21 20v114q0 20 21 20h69v117q0 21 20 21h166q20 0 20 -21v-117h117q21 0 21 -20v-114q0 -20 -21 -20h-117v-150q0 -33 12 -50.5t55 -17.5q12 0 27 1t30 3q17 2 17 -14v-102q0 -15 -19 -23q-22 -9 -51 -14t-55 -5q-64 0 -107 13.5t-68.5 39t-36 62
t-10.5 81.5v176h-69z" />
    <glyph glyph-name="u" unicode="u" horiz-adv-x="617" 
d="M56 497q0 21 20 21h166q20 0 20 -21v-284q0 -33 10.5 -50t41.5 -17q23 0 41 3v348q0 21 20 21h166q20 0 20 -21v-434q0 -41 -30 -48q-21 -6 -49 -10t-57.5 -7t-59.5 -4.5t-55 -1.5q-68 0 -116 11.5t-79 38t-45 69.5t-14 105v281z" />
    <glyph glyph-name="v" unicode="v" horiz-adv-x="572" 
d="M286 189l69 316q2 5 5.5 9t13.5 4h174q11 0 15 -6t1 -15l-144 -470q-8 -27 -38 -27h-192q-30 0 -38 27l-144 470q-3 9 1 15t15 6h174q10 0 13.5 -4t5.5 -9z" />
    <glyph glyph-name="w" unicode="w" horiz-adv-x="778" 
d="M530 213l53 292q2 13 19 13h154q11 0 14.5 -6t1.5 -15l-99 -470q-6 -27 -38 -27h-157q-32 0 -38 27l-51 240l-51 -240q-6 -27 -38 -27h-157q-32 0 -38 27l-99 470q-2 9 1.5 15t14.5 6h154q17 0 19 -13l53 -292l60 292q2 5 5.5 9t13.5 4h124q10 0 13.5 -4t5.5 -9z" />
    <glyph glyph-name="x" unicode="x" horiz-adv-x="570" 
d="M537 518q14 0 16 -9t-3 -17l-121 -221l131 -245q5 -8 3 -17t-16 -9h-173q-17 0 -23 13l-66 143l-66 -143q-3 -6 -8 -9.5t-15 -3.5h-173q-14 0 -16 9t3 17l131 245l-121 221q-5 8 -3 17t16 9h173q18 0 23 -13l56 -120l56 120q5 13 23 13h173z" />
    <glyph glyph-name="y" unicode="y" horiz-adv-x="617" 
d="M248 -46q56 0 81.5 12.5t25.5 43.5v10q-26 -9 -56.5 -11.5t-68.5 -2.5q-88 0 -131 48.5t-43 150.5v292q0 21 20 21h166q20 0 20 -21v-280q0 -26 12 -41.5t43 -15.5h19t19 2v335q0 21 20 21h166q20 0 20 -21v-495q0 -47 -14 -84.5t-45.5 -63.5t-83 -40t-127.5 -14
q-45 0 -89.5 7t-78.5 19q-19 6 -19 23v100q0 17 17 14q60 -9 127 -9z" />
    <glyph glyph-name="z" unicode="z" horiz-adv-x="516" 
d="M47 0q-21 0 -21 20v116q0 14 2 26t11 20l208 182h-190q-21 0 -21 20v114q0 20 21 20h402q21 0 21 -20v-124q0 -11 -2.5 -21t-10.5 -18l-208 -181h210q21 0 21 -20v-114q0 -20 -21 -20h-422z" />
    <glyph glyph-name="braceleft" unicode="{" horiz-adv-x="492" 
d="M232 302q34 -10 55 -25.5t33 -35.5t16 -43t4 -47v-97q0 -50 18.5 -72t68.5 -22h42q17 0 17 -17v-59q0 -11 -4.5 -16t-16.5 -10q-23 -9 -43 -12.5t-48 -3.5q-55 0 -96 16.5t-68.5 45.5t-41.5 69.5t-14 88.5v106q0 16 -1.5 31.5t-8 27.5t-19 19.5t-34.5 7.5q-25 0 -25 26
v44q0 26 25 26q22 0 34.5 7t19 19t8 27.5t1.5 32.5v106q0 48 14 88.5t41.5 69.5t68.5 45.5t96 16.5q28 0 48 -3.5t43 -12.5q12 -5 16.5 -10t4.5 -16v-59q0 -17 -17 -17h-42q-50 0 -68.5 -22t-18.5 -72v-97q0 -24 -4 -47t-16 -43t-33 -35.5t-55 -25.5z" />
    <glyph glyph-name="bar" unicode="|" horiz-adv-x="322" 
d="M68 748q0 21 20 21h146q20 0 20 -21v-927q0 -21 -20 -21h-146q-20 0 -20 21v927z" />
    <glyph glyph-name="braceright" unicode="}" horiz-adv-x="492" 
d="M260 302q-34 10 -55 25.5t-33 35.5t-16 43t-4 47v97q0 50 -18.5 72t-68.5 22h-42q-17 0 -17 17v59q0 11 4.5 16t16.5 10q23 9 43 12.5t48 3.5q55 0 96 -16.5t68.5 -45.5t41.5 -69.5t14 -88.5v-106q0 -17 1.5 -32.5t8 -27.5t19 -19t34.5 -7q25 0 25 -26v-44q0 -26 -25 -26
q-22 0 -34.5 -7.5t-19 -19.5t-8 -27.5t-1.5 -31.5v-106q0 -48 -14 -88.5t-41.5 -69.5t-68.5 -45.5t-96 -16.5q-28 0 -48 3.5t-43 12.5q-12 5 -16.5 10t-4.5 16v59q0 17 17 17h42q50 0 68.5 22t18.5 72v97q0 24 4 47t16 43t33 35.5t55 25.5z" />
    <glyph glyph-name="asciitilde" unicode="~" horiz-adv-x="638" 
d="M281 279q-12 11 -24 20.5t-23 9.5q-12 0 -16 -10t-4 -34v-20q0 -21 -20 -21h-112q-13 0 -22 21q-7 15 -11.5 33t-4.5 34q0 39 12 67t33.5 46.5t50.5 27t64 8.5q51 0 86.5 -17t66.5 -45q12 -11 24 -20.5t23 -9.5q12 0 16 10t4 34v20q0 21 20 21h112q13 0 22 -21
q7 -15 11.5 -33t4.5 -34q0 -39 -12 -67t-33.5 -46.5t-51 -27t-63.5 -8.5q-51 0 -86.5 17t-66.5 45z" />
    <glyph glyph-name="uni00A0" unicode="&#xa0;" horiz-adv-x="300" 
 />
    <glyph glyph-name="exclamdown" unicode="&#xa1;" horiz-adv-x="272" 
d="M187 518q14 0 20.5 -5.5t10.5 -16.5t7 -25t5 -29t3 -28.5t1 -22.5v-5q0 -21 -20 -21h-159q-20 0 -20 21v111q0 21 20 21h132zM55 -182q-20 0 -20 21v151l18 302q1 11 5 16t15 5h125q11 0 15 -5t5 -16l18 -302v-151q0 -21 -20 -21h-161z" />
    <glyph glyph-name="cent" unicode="&#xa2;" horiz-adv-x="502" 
d="M26 236v46q0 91 41 152t137 82v79q0 21 20 21h130q20 0 20 -21v-76q44 -6 76 -19q19 -8 19 -23v-100q0 -17 -17 -14q-26 5 -53 7t-60 2q-60 0 -83.5 -25.5t-23.5 -76.5v-22q0 -51 23.5 -76.5t83.5 -25.5q64 0 120 9q17 3 17 -14v-100q0 -15 -19 -23q-15 -6 -37.5 -11.5
t-45.5 -8.5v-75q0 -21 -20 -21h-130q-20 0 -20 21v78q-96 20 -137 81.5t-41 153.5z" />
    <glyph glyph-name="sterling" unicode="&#xa3;" horiz-adv-x="603" 
d="M371 712q41 0 86.5 -7.5t77.5 -19.5q20 -7 20 -24v-104q0 -8 -5 -13t-12 -4q-31 4 -55.5 5.5t-52.5 1.5h-8q-35 0 -55 -8.5t-30.5 -25t-13 -40t-2.5 -54.5v-18h139q21 0 21 -20v-44q0 -20 -21 -20h-139v-72q0 -24 -6 -43t-20 -36h271q21 0 21 -20v-126q0 -20 -21 -20
h-494q-21 0 -21 20v112q0 13 6 22t14 17q17 16 23.5 34.5t6.5 54.5v57h-59q-21 0 -21 20v44q0 20 21 20h59v29q0 73 10.5 126t40.5 87.5t82.5 51.5t136.5 17z" />
    <glyph glyph-name="currency" unicode="&#xa4;" horiz-adv-x="726" 
d="M602 332q0 -27 -5.5 -52t-15.5 -47l81 -80q8 -8 8 -14.5t-8 -14.5l-83 -83q-15 -15 -29 0l-85 86q-44 -19 -102 -19q-29 0 -54.5 4.5t-47.5 14.5l-85 -86q-8 -8 -14.5 -8t-14.5 8l-83 83q-8 8 -8 14.5t8 14.5l81 80q-10 22 -15.5 47t-5.5 52t5.5 52t15.5 47l-81 80
q-15 14 0 29l83 83q8 8 14.5 8t14.5 -8l85 -86q46 19 102 19q29 0 54 -5t48 -14l85 86q8 8 14.5 8t14.5 -8l83 -83q8 -8 8 -14.5t-8 -14.5l-81 -80q10 -22 15.5 -47t5.5 -52zM295 332q0 -42 17.5 -65t50.5 -23t50.5 23t17.5 65t-17.5 65t-50.5 23t-50.5 -23t-17.5 -65z" />
    <glyph glyph-name="yen" unicode="&#xa5;" horiz-adv-x="652" 
d="M216 182v47h-118q-21 0 -21 20v28q0 20 21 20h88l-173 380q-4 8 0 15.5t17 7.5h165q14 0 20.5 -5.5t11.5 -16.5l99 -236l99 236q5 11 11.5 16.5t20.5 5.5h165q13 0 17 -7.5t0 -15.5l-175 -380h90q21 0 21 -20v-28q0 -20 -21 -20h-118v-47h118q21 0 21 -20v-28
q0 -20 -21 -20h-118v-93q0 -21 -20 -21h-180q-20 0 -20 21v93h-118q-21 0 -21 20v28q0 20 21 20h118z" />
    <glyph glyph-name="brokenbar" unicode="&#xa6;" horiz-adv-x="322" 
d="M68 667q0 21 20 21h146q20 0 20 -21v-278q0 -21 -20 -21h-146q-20 0 -20 21v278zM68 199q0 21 20 21h146q20 0 20 -21v-278q0 -21 -20 -21h-146q-20 0 -20 21v278z" />
    <glyph glyph-name="section" unicode="&#xa7;" horiz-adv-x="605" 
d="M262 317q0 -23 12.5 -34t35.5 -20q19 12 26 23.5t7 27.5q0 13 -9.5 26.5t-32.5 23.5q-19 -10 -29 -23t-10 -24zM272 -140q-27 0 -55 2.5t-54 7.5t-49 11t-39 14q-19 8 -19 23v92q0 16 17 14q19 -2 43 -4t50.5 -3.5t53 -2.5t50.5 -1q71 0 71 31q0 28 -29 40l-105 47
q-67 30 -109 72t-42 104q0 38 25.5 72.5t70.5 54.5q-40 25 -67 59t-27 84q0 54 23 88.5t60.5 54t84.5 26.5t95 7q46 0 94 -10t80 -25q19 -8 19 -23v-92q0 -16 -17 -14q-19 2 -42.5 4t-47 3.5t-46 2.5t-38.5 1q-23 0 -41 -4t-18 -18q0 -11 6 -17t23 -14l105 -47
q67 -30 109 -72.5t42 -107.5q0 -40 -25.5 -69.5t-71.5 -55.5q42 -28 68.5 -64t26.5 -93q0 -53 -25.5 -87.5t-65 -54.5t-88.5 -28t-96 -8z" />
    <glyph glyph-name="dieresis" unicode="&#xa8;" horiz-adv-x="472" 
d="M291 570q-20 0 -20 21v106q0 21 20 21h120q20 0 20 -21v-18q0 -13 -5.5 -37t-17.5 -51q-4 -8 -11.5 -14.5t-18.5 -6.5h-87zM181 718q20 0 20 -21v-106q0 -21 -20 -21h-120q-20 0 -20 21v18q0 13 5.5 37t17.5 51q4 8 11.5 14.5t18.5 6.5h87z" />
    <glyph glyph-name="copyright" unicode="&#xa9;" horiz-adv-x="830" 
d="M462 259q-48 0 -67 20.5t-19 62.5v16q0 42 19 62.5t67 20.5q24 0 46.5 -1.5t45.5 -5.5q13 -1 13 10v80q0 13 -15 19q-26 11 -57.5 16.5t-62.5 5.5q-61 0 -103.5 -14t-69.5 -39.5t-39 -62t-12 -81.5v-36q0 -45 12 -81.5t39 -62t69.5 -39.5t103.5 -14q73 0 126 22
q15 6 15 19v80q0 11 -13 10q-23 -4 -46.5 -5.5t-51.5 -1.5zM53 350q0 75 28.5 141t77.5 115t115 77.5t141 28.5t141 -28.5t115 -77.5t77.5 -115t28.5 -141t-28.5 -141t-77.5 -115t-115 -77.5t-141 -28.5t-141 28.5t-115 77.5t-77.5 115t-28.5 141zM109 350q0 -65 24 -121.5
t65.5 -98.5t97.5 -66t119 -24t119 24t97.5 66t65.5 98.5t24 121.5q0 64 -24 120.5t-65.5 98.5t-97.5 66.5t-119 24.5t-119 -24.5t-97.5 -66.5t-65.5 -98.5t-24 -120.5z" />
    <glyph glyph-name="ordfeminine" unicode="&#xaa;" horiz-adv-x="468" 
d="M170 561q22 0 46 -3t46 -9v18q0 30 -20 38.5t-71 8.5q-24 0 -40.5 -1t-37.5 -5q-12 -2 -12 9v55q0 12 13 16q27 10 60.5 15t64.5 5q98 0 141 -32t43 -105v-191q0 -26 -22 -32q-15 -4 -34.5 -7.5t-40.5 -5.5t-42 -3.5t-39 -1.5q-94 0 -137 26t-43 92q0 58 36 85.5t89 27.5
zM262 479q-8 1 -17 2t-17 1q-29 0 -39 -9.5t-10 -26.5t10.5 -26.5t36.5 -9.5q15 0 36 3v66z" />
    <glyph glyph-name="guillemotleft" unicode="&#xab;" horiz-adv-x="588" 
d="M148 306l152 -127q12 -9 4 -23l-23 -41q-5 -8 -11.5 -9t-14.5 4q-50 30 -90.5 59.5t-83.5 65.5q-9 8 -15 16.5t-6 20.5v68q0 12 6 20.5t15 16.5q43 36 83.5 65.5t90.5 59.5q8 5 14.5 4t11.5 -9l23 -41q8 -14 -4 -23zM383 306l152 -127q12 -9 4 -23l-23 -41
q-5 -8 -11.5 -9t-14.5 4q-50 30 -90.5 59.5t-83.5 65.5q-9 8 -15 16.5t-6 20.5v68q0 12 6 20.5t15 16.5q43 36 83.5 65.5t90.5 59.5q8 5 14.5 4t11.5 -9l23 -41q8 -14 -4 -23z" />
    <glyph glyph-name="logicalnot" unicode="&#xac;" horiz-adv-x="638" 
d="M402 305h-321q-21 0 -21 20v112q0 20 21 20h471q20 0 20 -21v-290q0 -21 -20 -21h-130q-20 0 -20 21v159z" />
    <glyph glyph-name="uni00AD" unicode="&#xad;" horiz-adv-x="446" 
d="M61 246q-21 0 -21 20v136q0 20 21 20h324q21 0 21 -20v-136q0 -20 -21 -20h-324z" />
    <glyph glyph-name="registered" unicode="&#xae;" horiz-adv-x="830" 
d="M53 350q0 75 28.5 141t77.5 115t115 77.5t141 28.5t141 -28.5t115 -77.5t77.5 -115t28.5 -141t-28.5 -141t-77.5 -115t-115 -77.5t-141 -28.5t-141 28.5t-115 77.5t-77.5 115t-28.5 141zM109 350q0 -65 24 -121.5t65.5 -98.5t97.5 -66t119 -24t119 24t97.5 66t65.5 98.5
t24 121.5q0 64 -24 120.5t-65.5 98.5t-97.5 66.5t-119 24.5t-119 -24.5t-97.5 -66.5t-65.5 -98.5t-24 -120.5zM243 513q0 20 6.5 29t24.5 12q30 6 70.5 9t79.5 3q95 0 137.5 -32.5t42.5 -96.5v-23q0 -42 -15 -71t-49 -45l83 -144q2 -5 0 -9.5t-8 -4.5h-108q-18 0 -24 13
l-62 129q-8 1 -16 1.5t-16 2.5v-133q0 -13 -13 -13h-120q-13 0 -13 13v360zM389 373q7 -1 16 -1.5t15 -0.5q24 0 32 13.5t8 34.5v11q0 23 -8 34.5t-32 11.5q-16 0 -31 -3v-100z" />
    <glyph glyph-name="macron" unicode="&#xaf;" horiz-adv-x="472" 
d="M80 591q-21 0 -21 20v70q0 20 21 20h312q21 0 21 -20v-70q0 -20 -21 -20h-312z" />
    <glyph glyph-name="degree" unicode="&#xb0;" horiz-adv-x="472" 
d="M236 398q-32 0 -60 9t-48.5 28t-32.5 48.5t-12 71.5t12 71.5t32.5 48.5t48.5 28t60 9t60 -9t48.5 -28t32.5 -48.5t12 -71.5t-12 -71.5t-32.5 -48.5t-48.5 -28t-60 -9zM236 613q-21 0 -34 -13t-13 -45t13 -45t34 -13t34 13t13 45t-13 45t-34 13z" />
    <glyph glyph-name="plusminus" unicode="&#xb1;" horiz-adv-x="638" 
d="M404 355v-150q0 -21 -20 -21h-130q-20 0 -20 21v150h-153q-21 0 -21 20v112q0 20 21 20h153v150q0 21 20 21h130q20 0 20 -21v-150h153q21 0 21 -20v-112q0 -20 -21 -20h-153zM81 -13q-21 0 -21 20v112q0 20 21 20h476q21 0 21 -20v-112q0 -20 -21 -20h-476z" />
    <glyph glyph-name="twosuperior" unicode="&#xb2;" horiz-adv-x="445" 
d="M201 342h178q15 0 15 -13v-78q0 -14 -15 -14h-314q-14 0 -14 14v78q0 46 21 77.5t74 64.5q45 28 71.5 48t26.5 43q0 22 -16.5 28t-50.5 6q-20 0 -45 -1.5t-44 -4.5q-16 -3 -16 13v74q0 13 14 16q60 15 123 15q52 0 87 -9t57 -27t31.5 -45.5t9.5 -64.5q0 -53 -28 -84.5
t-74 -57.5q-14 -8 -30 -17.5t-29.5 -19.5t-22.5 -18.5t-9 -15.5v-7z" />
    <glyph glyph-name="threesuperior" unicode="&#xb3;" horiz-adv-x="445" 
d="M90 424q-15 0 -15 14v77q0 14 15 14h73q37 0 58.5 5.5t21.5 27.5q0 23 -20 30.5t-59 7.5q-24 0 -45 -1.5t-44 -4.5q-16 -3 -16 13v69q0 13 14 16q32 8 64.5 12t70.5 4q82 0 130.5 -37.5t48.5 -100.5q0 -26 -12.5 -50t-44.5 -42q35 -17 48.5 -42t13.5 -62
q0 -67 -49.5 -105.5t-131.5 -38.5q-33 0 -71 4t-76 12q-14 3 -14 16v69q0 16 17 13q25 -4 49 -5t50 -1q15 0 29.5 1t26 5t19 12t7.5 23q0 28 -22 36.5t-60 8.5h-76z" />
    <glyph glyph-name="acute" unicode="&#xb4;" horiz-adv-x="472" 
d="M238 733q6 5 13.5 7t15.5 -3l82 -61q15 -11 1 -25q-28 -28 -61.5 -50t-79.5 -43q-17 -8 -29 1l-59 44q-11 9 -2 18z" />
    <glyph glyph-name="mu" unicode="&#xb5;" horiz-adv-x="617" 
d="M262 217q0 -42 14.5 -56.5t47.5 -14.5q7 0 14 0.5t17 1.5v349q0 21 20 21h166q20 0 20 -21v-434q0 -41 -30 -48q-43 -11 -86 -17t-94 -6q-27 0 -48.5 4t-40.5 14v-182q0 -21 -20 -21h-166q-20 0 -20 21v669q0 21 20 21h166q20 0 20 -21v-280z" />
    <glyph glyph-name="paragraph" unicode="&#xb6;" horiz-adv-x="647" 
d="M442 582h-38v-692q0 -21 -20 -21h-106q-20 0 -20 21v376q-51 0 -93.5 14.5t-73.5 42t-48 68t-17 92.5t17 92t47.5 68t72 42.5t90.5 14.5h315q20 0 20 -21v-789q0 -21 -20 -21h-106q-20 0 -20 21v692z" />
    <glyph glyph-name="periodcentered" unicode="&#xb7;" horiz-adv-x="300" 
d="M96 285q-14 0 -22 7.5t-13 18.5q-11 28 -17 65t-6 63v18q0 21 20 21h180q20 0 20 -21v-151q0 -21 -20 -21h-142z" />
    <glyph glyph-name="cedilla" unicode="&#xb8;" horiz-adv-x="472" 
d="M119 -177q0 15 17 10q11 -3 22.5 -5t22.5 -2q14 0 23 8t9 22q0 23 -15.5 31.5t-44.5 8.5q-10 0 -12.5 7.5t2.5 17.5l59 99h104l-36 -72q40 -12 61.5 -34.5t21.5 -57.5q0 -27 -10.5 -47.5t-29 -34t-42.5 -20.5t-51 -7q-19 0 -43.5 4.5t-38.5 11.5q-11 5 -15 9t-4 13v38z
" />
    <glyph glyph-name="onesuperior" unicode="&#xb9;" horiz-adv-x="445" 
d="M153 599h-15q-16 0 -33 -1.5t-33 -4.5t-16 13v70q0 13 11 15q22 3 46.5 6t47.5 5t44.5 3t37.5 1h54q15 0 15 -14v-440q0 -15 -15 -15h-129q-15 0 -15 15v347z" />
    <glyph glyph-name="ordmasculine" unicode="&#xba;" horiz-adv-x="468" 
d="M30 530q0 96 54.5 144t149.5 48t149.5 -48t54.5 -144v-25q0 -96 -54.5 -144t-149.5 -48t-149.5 48t-54.5 144v25zM271 530q0 37 -7.5 55t-29.5 18t-29.5 -18t-7.5 -55v-25q0 -37 7.5 -55t29.5 -18t29.5 18t7.5 55v25z" />
    <glyph glyph-name="guillemotright" unicode="&#xbb;" horiz-adv-x="588" 
d="M288 433q-12 9 -4 23l23 41q5 8 11.5 9t14.5 -4q50 -30 90.5 -59.5t83.5 -65.5q9 -8 15 -16.5t6 -20.5v-68q0 -12 -6 -20.5t-15 -16.5q-43 -36 -83.5 -65.5t-90.5 -59.5q-8 -5 -14.5 -4t-11.5 9l-23 41q-8 14 4 23l152 127zM53 433q-12 9 -4 23l23 41q5 8 11.5 9t14.5 -4
q50 -30 90.5 -59.5t83.5 -65.5q9 -8 15 -16.5t6 -20.5v-68q0 -12 -6 -20.5t-15 -16.5q-43 -36 -83.5 -65.5t-90.5 -59.5q-8 -5 -14.5 -4t-11.5 9l-23 41q-8 14 4 23l152 127z" />
    <glyph glyph-name="onequarter" unicode="&#xbc;" horiz-adv-x="1042" 
d="M153 599h-15q-16 0 -33 -1.5t-33 -4.5t-16 13v70q0 13 11 15q22 3 46.5 6t47.5 5t44.5 3t37.5 1h54q15 0 15 -14v-440q0 -15 -15 -15h-129q-15 0 -15 15v347zM390 -3q-7 -12 -21 -12h-71q-9 0 -11 5t1 11l364 702q7 12 21 12h71q9 0 11 -5t-1 -11zM807 177v112
q0 14 14 14h108q14 0 14 -14v-112h43q16 0 16 -13v-76q0 -14 -16 -14h-43v-58q0 -15 -14 -15h-108q-14 0 -14 15v58h-181q-16 0 -16 14v65q0 17 5 39q17 78 36.5 140t45.5 122q5 10 19 10h89q7 0 8 -4.5t-1 -10.5q-24 -63 -44 -132t-33 -140h72z" />
    <glyph glyph-name="onehalf" unicode="&#xbd;" horiz-adv-x="1042" 
d="M153 599h-15q-16 0 -33 -1.5t-33 -4.5t-16 13v70q0 13 11 15q22 3 46.5 6t47.5 5t44.5 3t37.5 1h54q15 0 15 -14v-440q0 -15 -15 -15h-129q-15 0 -15 15v347zM390 -3q-7 -12 -21 -12h-71q-9 0 -11 5t1 11l364 702q7 12 21 12h71q9 0 11 -5t-1 -11zM786 106h178
q15 0 15 -13v-78q0 -14 -15 -14h-314q-14 0 -14 14v78q0 46 21 77.5t74 64.5q45 28 71.5 48t26.5 43q0 22 -16.5 28t-50.5 6q-20 0 -45 -1.5t-44 -4.5q-16 -3 -16 13v74q0 13 14 16q60 15 123 15q52 0 87 -9t57 -27t31.5 -45.5t9.5 -64.5q0 -53 -28 -84.5t-74 -57.5
q-14 -8 -30 -17.5t-29.5 -19.5t-22.5 -18.5t-9 -15.5v-7z" />
    <glyph glyph-name="threequarters" unicode="&#xbe;" horiz-adv-x="1042" 
d="M390 -3q-7 -12 -21 -12h-71q-9 0 -11 5t1 11l364 702q7 12 21 12h71q9 0 11 -5t-1 -11zM807 177v112q0 14 14 14h108q14 0 14 -14v-112h43q16 0 16 -13v-76q0 -14 -16 -14h-43v-58q0 -15 -14 -15h-108q-14 0 -14 15v58h-181q-16 0 -16 14v65q0 17 5 39q17 78 36.5 140
t45.5 122q5 10 19 10h89q7 0 8 -4.5t-1 -10.5q-24 -63 -44 -132t-33 -140h72zM90 424q-15 0 -15 14v77q0 14 15 14h73q37 0 58.5 5.5t21.5 27.5q0 23 -20 30.5t-59 7.5q-24 0 -45 -1.5t-44 -4.5q-16 -3 -16 13v69q0 13 14 16q32 8 64.5 12t70.5 4q82 0 130.5 -37.5
t48.5 -100.5q0 -26 -12.5 -50t-44.5 -42q35 -17 48.5 -42t13.5 -62q0 -67 -49.5 -105.5t-131.5 -38.5q-33 0 -71 4t-76 12q-14 3 -14 16v69q0 16 17 13q25 -4 49 -5t50 -1q15 0 29.5 1t26 5t19 12t7.5 23q0 28 -22 36.5t-60 8.5h-76z" />
    <glyph glyph-name="questiondown" unicode="&#xbf;" horiz-adv-x="502" 
d="M337 518q14 0 20.5 -5.5t10.5 -16.5t7 -25t5 -29t3 -28.5t1 -22.5v-5q0 -21 -20 -21h-159q-20 0 -20 21v111q0 21 20 21h132zM326 -50q32 0 64.5 2t65.5 7q8 2 12 -3t4 -13v-90q0 -18 -21 -24q-38 -11 -79.5 -17t-83.5 -6q-112 0 -175 52t-63 145q0 22 5 45.5t17 47.5
t33 49t53 50q16 13 21.5 33t5.5 44v20q0 21 20 21h151q20 0 20 -21v-26q0 -60 -17 -103t-65 -78q-29 -21 -42 -39t-13 -43q0 -31 23 -42t64 -11z" />
    <glyph glyph-name="Agrave" unicode="&#xc0;" horiz-adv-x="638" 
d="M31 0q-11 0 -14.5 6.5t-1.5 16.5l152 658q2 8 8 13.5t19 5.5h250q13 0 19 -5.5t8 -13.5l152 -658q2 -10 -1.5 -16.5t-14.5 -6.5h-177q-20 0 -23 17l-18 105h-140l-18 -105q-3 -17 -23 -17h-177zM319 534l-46 -268h91zM437 815q9 -9 -2 -18l-59 -44q-12 -9 -29 -1
q-46 21 -79.5 43t-61.5 50q-14 14 1 25l82 61q8 5 15.5 3t13.5 -7z" />
    <glyph glyph-name="Aacute" unicode="&#xc1;" horiz-adv-x="638" 
d="M31 0q-11 0 -14.5 6.5t-1.5 16.5l152 658q2 8 8 13.5t19 5.5h250q13 0 19 -5.5t8 -13.5l152 -658q2 -10 -1.5 -16.5t-14.5 -6.5h-177q-20 0 -23 17l-18 105h-140l-18 -105q-3 -17 -23 -17h-177zM319 534l-46 -268h91zM321 927q6 5 13.5 7t15.5 -3l82 -61q15 -11 1 -25
q-28 -28 -61.5 -50t-79.5 -43q-17 -8 -29 1l-59 44q-11 9 -2 18z" />
    <glyph glyph-name="Acircumflex" unicode="&#xc2;" horiz-adv-x="638" 
d="M31 0q-11 0 -14.5 6.5t-1.5 16.5l152 658q2 8 8 13.5t19 5.5h250q13 0 19 -5.5t8 -13.5l152 -658q2 -10 -1.5 -16.5t-14.5 -6.5h-177q-20 0 -23 17l-18 105h-140l-18 -105q-3 -17 -23 -17h-177zM319 534l-46 -268h91zM319 828l-122 -77q-12 -8 -23 1l-47 36q-11 10 -1 22
q26 33 50 57.5t49 44.5q8 7 15 9.5t18 2.5h122q11 0 18 -2.5t15 -9.5q25 -20 49 -44.5t50 -57.5q10 -12 -1 -22l-47 -36q-11 -9 -23 -1z" />
    <glyph glyph-name="Atilde" unicode="&#xc3;" horiz-adv-x="638" 
d="M31 0q-11 0 -14.5 6.5t-1.5 16.5l152 658q2 8 8 13.5t19 5.5h250q13 0 19 -5.5t8 -13.5l152 -658q2 -10 -1.5 -16.5t-14.5 -6.5h-177q-20 0 -23 17l-18 105h-140l-18 -105q-3 -17 -23 -17h-177zM319 534l-46 -268h91zM338 892q10 -6 18 -11.5t18 -5.5q20 0 20 20v10
q0 9 3 12.5t13 3.5h74q11 0 16 -6t9 -15q5 -11 6 -22t1 -22q0 -51 -32 -73.5t-80 -22.5q-33 0 -55.5 7t-48.5 24q-10 6 -18 11.5t-18 5.5q-20 0 -20 -20v-10q0 -9 -3 -12.5t-13 -3.5h-74q-11 0 -16 6t-9 15q-5 11 -6 22t-1 22q0 51 32 73.5t80 22.5q33 0 55.5 -7t48.5 -24z
" />
    <glyph glyph-name="Adieresis" unicode="&#xc4;" horiz-adv-x="638" 
d="M31 0q-11 0 -14.5 6.5t-1.5 16.5l152 658q2 8 8 13.5t19 5.5h250q13 0 19 -5.5t8 -13.5l152 -658q2 -10 -1.5 -16.5t-14.5 -6.5h-177q-20 0 -23 17l-18 105h-140l-18 -105q-3 -17 -23 -17h-177zM319 534l-46 -268h91zM374 764q-20 0 -20 21v106q0 21 20 21h120
q20 0 20 -21v-18q0 -13 -5.5 -37t-17.5 -51q-4 -8 -11.5 -14.5t-18.5 -6.5h-87zM264 912q20 0 20 -21v-106q0 -21 -20 -21h-120q-20 0 -20 21v18q0 13 5.5 37t17.5 51q4 8 11.5 14.5t18.5 6.5h87z" />
    <glyph glyph-name="Aring" unicode="&#xc5;" horiz-adv-x="638" 
d="M31 0q-11 0 -14.5 6.5t-1.5 16.5l152 658q2 8 8 13.5t19 5.5h250q13 0 19 -5.5t8 -13.5l152 -658q2 -10 -1.5 -16.5t-14.5 -6.5h-177q-20 0 -23 17l-18 105h-140l-18 -105q-3 -17 -23 -17h-177zM319 534l-46 -268h91zM319 957q60 0 98 -26t38 -88t-38 -88t-98 -26t-98 26
t-38 88t38 88t98 26zM319 805q15 0 23.5 8.5t8.5 29.5t-8.5 29.5t-23.5 8.5t-23.5 -8.5t-8.5 -29.5t8.5 -29.5t23.5 -8.5z" />
    <glyph glyph-name="AE" unicode="&#xc6;" horiz-adv-x="884" 
d="M621 542v-106h162q21 0 21 -20v-118q0 -20 -21 -20h-162v-80q0 -28 8.5 -40t36.5 -12h150q17 0 17 -17v-109q0 -23 -23 -24q-63 -5 -123 -6.5t-112 -1.5q-85 0 -126.5 31.5t-46.5 102.5h-138l-32 -105q-5 -17 -23 -17h-177q-11 0 -15 6.5t-1 16.5l227 658q3 8 8.5 13.5
t18.5 5.5h532q21 0 21 -20v-118q0 -20 -21 -20h-181zM401 266v302l-93 -302h93z" />
    <glyph glyph-name="Ccedilla" unicode="&#xc7;" horiz-adv-x="576" 
d="M223 -177q0 15 17 10q11 -3 22.5 -5t22.5 -2q14 0 23 8t9 22q0 23 -15.5 31.5t-44.5 8.5q-10 0 -12.5 7.5t2.5 17.5l42 71q-66 7 -112.5 31t-75.5 65.5t-42 99t-13 132.5v60q0 82 15.5 144.5t50.5 104t92.5 62.5t141.5 21q41 0 86.5 -8t77.5 -20q20 -7 20 -24v-104
q0 -8 -5 -13t-12 -4q-31 4 -57 5.5t-58 1.5q-37 0 -62.5 -9t-41 -30t-22 -55t-6.5 -83v-38q0 -50 7.5 -83.5t24 -54.5t42.5 -30t63 -9q32 0 61 1.5t59 5.5q8 1 12.5 -4t4.5 -13v-104q0 -10 -4.5 -14.5t-15.5 -9.5q-29 -12 -60 -18t-66 -8l-20 -42q40 -12 61.5 -34.5
t21.5 -57.5q0 -27 -10.5 -47.5t-29 -34t-42.5 -20.5t-51 -7q-19 0 -43.5 4.5t-38.5 11.5q-11 5 -15 9t-4 13v38z" />
    <glyph glyph-name="Egrave" unicode="&#xc8;" horiz-adv-x="596" 
d="M423 815q9 -9 -2 -18l-59 -44q-12 -9 -29 -1q-46 21 -79.5 43t-61.5 50q-14 14 1 25l82 61q8 5 15.5 3t13.5 -7zM286 436h209q21 0 21 -20v-126q0 -20 -21 -20h-209v-64q0 -28 8.5 -40t36.5 -12h197q17 0 17 -17v-113q0 -23 -23 -24q-66 -5 -134.5 -8.5t-137.5 -3.5
q-50 0 -85 9.5t-57 29.5t-32 49.5t-10 70.5v406q0 81 42.5 120t141.5 39q68 0 132 -3t130 -9q23 -1 23 -24v-113q0 -17 -17 -17h-187q-28 0 -36.5 -12t-8.5 -40v-58z" />
    <glyph glyph-name="Eacute" unicode="&#xc9;" horiz-adv-x="596" 
d="M286 436h209q21 0 21 -20v-126q0 -20 -21 -20h-209v-64q0 -28 8.5 -40t36.5 -12h197q17 0 17 -17v-113q0 -23 -23 -24q-66 -5 -134.5 -8.5t-137.5 -3.5q-50 0 -85 9.5t-57 29.5t-32 49.5t-10 70.5v406q0 81 42.5 120t141.5 39q68 0 132 -3t130 -9q23 -1 23 -24v-113
q0 -17 -17 -17h-187q-28 0 -36.5 -12t-8.5 -40v-58zM351 927q6 5 13.5 7t15.5 -3l82 -61q15 -11 1 -25q-28 -28 -61.5 -50t-79.5 -43q-17 -8 -29 1l-59 44q-11 9 -2 18z" />
    <glyph glyph-name="Ecircumflex" unicode="&#xca;" horiz-adv-x="596" 
d="M286 436h209q21 0 21 -20v-126q0 -20 -21 -20h-209v-64q0 -28 8.5 -40t36.5 -12h197q17 0 17 -17v-113q0 -23 -23 -24q-66 -5 -134.5 -8.5t-137.5 -3.5q-50 0 -85 9.5t-57 29.5t-32 49.5t-10 70.5v406q0 81 42.5 120t141.5 39q68 0 132 -3t130 -9q23 -1 23 -24v-113
q0 -17 -17 -17h-187q-28 0 -36.5 -12t-8.5 -40v-58zM316 828l-122 -77q-12 -8 -23 1l-47 36q-11 10 -1 22q26 33 50 57.5t49 44.5q8 7 15 9.5t18 2.5h122q11 0 18 -2.5t15 -9.5q25 -20 49 -44.5t50 -57.5q10 -12 -1 -22l-47 -36q-11 -9 -23 -1z" />
    <glyph glyph-name="Edieresis" unicode="&#xcb;" horiz-adv-x="596" 
d="M286 436h209q21 0 21 -20v-126q0 -20 -21 -20h-209v-64q0 -28 8.5 -40t36.5 -12h197q17 0 17 -17v-113q0 -23 -23 -24q-66 -5 -134.5 -8.5t-137.5 -3.5q-50 0 -85 9.5t-57 29.5t-32 49.5t-10 70.5v406q0 81 42.5 120t141.5 39q68 0 132 -3t130 -9q23 -1 23 -24v-113
q0 -17 -17 -17h-187q-28 0 -36.5 -12t-8.5 -40v-58zM380 764q-20 0 -20 21v106q0 21 20 21h120q20 0 20 -21v-18q0 -13 -5.5 -37t-17.5 -51q-4 -8 -11.5 -14.5t-18.5 -6.5h-87zM270 912q20 0 20 -21v-106q0 -21 -20 -21h-120q-20 0 -20 21v18q0 13 5.5 37t17.5 51
q4 8 11.5 14.5t18.5 6.5h87z" />
    <glyph glyph-name="Igrave" unicode="&#xcc;" horiz-adv-x="372" 
d="M296 21q0 -21 -20 -21h-180q-20 0 -20 21v658q0 21 20 21h180q20 0 20 -21v-658zM274 815q9 -9 -2 -18l-59 -44q-12 -9 -29 -1q-46 21 -79.5 43t-61.5 50q-14 14 1 25l82 61q8 5 15.5 3t13.5 -7z" />
    <glyph glyph-name="Iacute" unicode="&#xcd;" horiz-adv-x="372" 
d="M296 21q0 -21 -20 -21h-180q-20 0 -20 21v658q0 21 20 21h180q20 0 20 -21v-658zM218 927q6 5 13.5 7t15.5 -3l82 -61q15 -11 1 -25q-28 -28 -61.5 -50t-79.5 -43q-17 -8 -29 1l-59 44q-11 9 -2 18z" />
    <glyph glyph-name="Icircumflex" unicode="&#xce;" horiz-adv-x="372" 
d="M296 21q0 -21 -20 -21h-180q-20 0 -20 21v658q0 21 20 21h180q20 0 20 -21v-658zM186 828l-122 -77q-12 -8 -23 1l-47 36q-11 10 -1 22q26 33 50 57.5t49 44.5q8 7 15 9.5t18 2.5h122q11 0 18 -2.5t15 -9.5q25 -20 49 -44.5t50 -57.5q10 -12 -1 -22l-47 -36
q-11 -9 -23 -1z" />
    <glyph glyph-name="Idieresis" unicode="&#xcf;" horiz-adv-x="372" 
d="M296 21q0 -21 -20 -21h-180q-20 0 -20 21v658q0 21 20 21h180q20 0 20 -21v-658zM241 764q-20 0 -20 21v106q0 21 20 21h120q20 0 20 -21v-18q0 -13 -5.5 -37t-17.5 -51q-4 -8 -11.5 -14.5t-18.5 -6.5h-87zM131 912q20 0 20 -21v-106q0 -21 -20 -21h-120q-20 0 -20 21v18
q0 13 5.5 37t17.5 51q4 8 11.5 14.5t18.5 6.5h87z" />
    <glyph glyph-name="Eth" unicode="&#xd0;" horiz-adv-x="683" 
d="M84 392v233q0 32 10 47.5t36 21.5q39 9 84 13.5t108 4.5q94 0 155.5 -25t96.5 -70.5t49 -108.5t14 -138v-40q0 -75 -14 -138t-49 -108.5t-96.5 -70.5t-155.5 -25q-63 0 -108 4.5t-84 13.5q-26 6 -36 21.5t-10 47.5v233h-57q-21 0 -21 20v44q0 20 21 20h57zM427 367
q0 48 -3.5 82t-12.5 55.5t-25 31.5t-41 10q-30 0 -51 -3v-151h59q21 0 21 -20v-44q0 -20 -21 -20h-59v-151q21 -3 51 -3q25 0 41 10t25 31.5t12.5 55.5t3.5 82v34z" />
    <glyph glyph-name="Ntilde" unicode="&#xd1;" horiz-adv-x="738" 
d="M467 288v395q0 17 17 17h171q17 0 17 -17v-666q0 -17 -17 -17h-215q-23 0 -33 5.5t-15 20.5l-121 386v-395q0 -17 -17 -17h-171q-17 0 -17 17v666q0 17 17 17h215q23 0 33 -5.5t15 -20.5zM388 892q10 -6 18 -11.5t18 -5.5q20 0 20 20v10q0 9 3 12.5t13 3.5h74q11 0 16 -6
t9 -15q5 -11 6 -22t1 -22q0 -51 -32 -73.5t-80 -22.5q-33 0 -55.5 7t-48.5 24q-10 6 -18 11.5t-18 5.5q-20 0 -20 -20v-10q0 -9 -3 -12.5t-13 -3.5h-74q-11 0 -16 6t-9 15q-5 11 -6 22t-1 22q0 51 32 73.5t80 22.5q33 0 55.5 -7t48.5 -24z" />
    <glyph glyph-name="Ograve" unicode="&#xd2;" horiz-adv-x="700" 
d="M350 -12q-80 0 -137.5 21.5t-94.5 64t-54.5 106t-17.5 147.5v46q0 84 17.5 147.5t54.5 106t94.5 64t137.5 21.5q160 0 232 -85t72 -254v-46q0 -169 -72 -254t-232 -85zM434 368q0 48 -3 82t-12 55.5t-25.5 31t-43.5 9.5t-43.5 -9.5t-25.5 -31t-12 -55.5t-3 -82v-36
q0 -48 3 -82t12 -55.5t25.5 -31t43.5 -9.5t43.5 9.5t25.5 31t12 55.5t3 82v36zM468 815q9 -9 -2 -18l-59 -44q-12 -9 -29 -1q-46 21 -79.5 43t-61.5 50q-14 14 1 25l82 61q8 5 15.5 3t13.5 -7z" />
    <glyph glyph-name="Oacute" unicode="&#xd3;" horiz-adv-x="700" 
d="M350 -12q-80 0 -137.5 21.5t-94.5 64t-54.5 106t-17.5 147.5v46q0 84 17.5 147.5t54.5 106t94.5 64t137.5 21.5q160 0 232 -85t72 -254v-46q0 -169 -72 -254t-232 -85zM434 368q0 48 -3 82t-12 55.5t-25.5 31t-43.5 9.5t-43.5 -9.5t-25.5 -31t-12 -55.5t-3 -82v-36
q0 -48 3 -82t12 -55.5t25.5 -31t43.5 -9.5t43.5 9.5t25.5 31t12 55.5t3 82v36zM352 927q6 5 13.5 7t15.5 -3l82 -61q15 -11 1 -25q-28 -28 -61.5 -50t-79.5 -43q-17 -8 -29 1l-59 44q-11 9 -2 18z" />
    <glyph glyph-name="Ocircumflex" unicode="&#xd4;" horiz-adv-x="700" 
d="M350 -12q-80 0 -137.5 21.5t-94.5 64t-54.5 106t-17.5 147.5v46q0 84 17.5 147.5t54.5 106t94.5 64t137.5 21.5q160 0 232 -85t72 -254v-46q0 -169 -72 -254t-232 -85zM434 368q0 48 -3 82t-12 55.5t-25.5 31t-43.5 9.5t-43.5 -9.5t-25.5 -31t-12 -55.5t-3 -82v-36
q0 -48 3 -82t12 -55.5t25.5 -31t43.5 -9.5t43.5 9.5t25.5 31t12 55.5t3 82v36zM350 828l-122 -77q-12 -8 -23 1l-47 36q-11 10 -1 22q26 33 50 57.5t49 44.5q8 7 15 9.5t18 2.5h122q11 0 18 -2.5t15 -9.5q25 -20 49 -44.5t50 -57.5q10 -12 -1 -22l-47 -36q-11 -9 -23 -1z
" />
    <glyph glyph-name="Otilde" unicode="&#xd5;" horiz-adv-x="700" 
d="M350 -12q-80 0 -137.5 21.5t-94.5 64t-54.5 106t-17.5 147.5v46q0 84 17.5 147.5t54.5 106t94.5 64t137.5 21.5q160 0 232 -85t72 -254v-46q0 -169 -72 -254t-232 -85zM434 368q0 48 -3 82t-12 55.5t-25.5 31t-43.5 9.5t-43.5 -9.5t-25.5 -31t-12 -55.5t-3 -82v-36
q0 -48 3 -82t12 -55.5t25.5 -31t43.5 -9.5t43.5 9.5t25.5 31t12 55.5t3 82v36zM369 892q10 -6 18 -11.5t18 -5.5q20 0 20 20v10q0 9 3 12.5t13 3.5h74q11 0 16 -6t9 -15q5 -11 6 -22t1 -22q0 -51 -32 -73.5t-80 -22.5q-33 0 -55.5 7t-48.5 24q-10 6 -18 11.5t-18 5.5
q-20 0 -20 -20v-10q0 -9 -3 -12.5t-13 -3.5h-74q-11 0 -16 6t-9 15q-5 11 -6 22t-1 22q0 51 32 73.5t80 22.5q33 0 55.5 -7t48.5 -24z" />
    <glyph glyph-name="Odieresis" unicode="&#xd6;" horiz-adv-x="700" 
d="M350 -12q-80 0 -137.5 21.5t-94.5 64t-54.5 106t-17.5 147.5v46q0 84 17.5 147.5t54.5 106t94.5 64t137.5 21.5q160 0 232 -85t72 -254v-46q0 -169 -72 -254t-232 -85zM434 368q0 48 -3 82t-12 55.5t-25.5 31t-43.5 9.5t-43.5 -9.5t-25.5 -31t-12 -55.5t-3 -82v-36
q0 -48 3 -82t12 -55.5t25.5 -31t43.5 -9.5t43.5 9.5t25.5 31t12 55.5t3 82v36zM405 764q-20 0 -20 21v106q0 21 20 21h120q20 0 20 -21v-18q0 -13 -5.5 -37t-17.5 -51q-4 -8 -11.5 -14.5t-18.5 -6.5h-87zM295 912q20 0 20 -21v-106q0 -21 -20 -21h-120q-20 0 -20 21v18
q0 13 5.5 37t17.5 51q4 8 11.5 14.5t18.5 6.5h87z" />
    <glyph glyph-name="multiply" unicode="&#xd7;" horiz-adv-x="630" 
d="M321 218l-120 -120q-14 -14 -29 -1l-92 92q-13 15 1 29l120 120l-120 121q-7 8 -8 14.5t7 14.5l79 79q8 8 14.5 7t14.5 -8l121 -120l120 120q14 14 29 1l92 -92q13 -15 -1 -29l-120 -120l120 -121q7 -8 8 -14.5t-7 -14.5l-79 -79q-8 -8 -14.5 -7t-14.5 8z" />
    <glyph glyph-name="Oslash" unicode="&#xd8;" horiz-adv-x="700" 
d="M143 -88q-7 -12 -21 -12h-51q-9 0 -11 5t1 11l77 136q-48 42 -70 110t-22 165v46q0 84 17.5 147.5t54.5 106t94.5 64t137.5 21.5q87 0 149 -27l59 103q7 12 21 12h51q9 0 11 -5t-1 -11l-78 -137q48 -42 70 -110t22 -164v-46q0 -169 -72 -254t-232 -85q-86 0 -149 26z
M350 546q-27 0 -43.5 -9.5t-25.5 -31t-12 -55.5t-3 -82v-36v-28.5t1 -26.5l140 247q-18 22 -57 22zM434 368v27.5t-1 25.5l-140 -246q18 -21 57 -21q27 0 43.5 9.5t25.5 31t12 55.5t3 82v36z" />
    <glyph glyph-name="Ugrave" unicode="&#xd9;" horiz-adv-x="686" 
d="M343 154q21 0 32.5 10.5t17 32.5t6.5 55.5t1 79.5v351q0 17 17 17h186q17 0 17 -17v-356q0 -77 -10.5 -139.5t-40.5 -107t-84 -68.5t-142 -24t-142 24t-84 68.5t-40.5 107t-10.5 139.5v356q0 17 17 17h186q17 0 17 -17v-351q0 -46 1 -79.5t6.5 -55.5t17 -32.5t32.5 -10.5
zM461 815q9 -9 -2 -18l-59 -44q-12 -9 -29 -1q-46 21 -79.5 43t-61.5 50q-14 14 1 25l82 61q8 5 15.5 3t13.5 -7z" />
    <glyph glyph-name="Uacute" unicode="&#xda;" horiz-adv-x="686" 
d="M343 154q21 0 32.5 10.5t17 32.5t6.5 55.5t1 79.5v351q0 17 17 17h186q17 0 17 -17v-356q0 -77 -10.5 -139.5t-40.5 -107t-84 -68.5t-142 -24t-142 24t-84 68.5t-40.5 107t-10.5 139.5v356q0 17 17 17h186q17 0 17 -17v-351q0 -46 1 -79.5t6.5 -55.5t17 -32.5t32.5 -10.5
zM345 927q6 5 13.5 7t15.5 -3l82 -61q15 -11 1 -25q-28 -28 -61.5 -50t-79.5 -43q-17 -8 -29 1l-59 44q-11 9 -2 18z" />
    <glyph glyph-name="Ucircumflex" unicode="&#xdb;" horiz-adv-x="686" 
d="M343 154q21 0 32.5 10.5t17 32.5t6.5 55.5t1 79.5v351q0 17 17 17h186q17 0 17 -17v-356q0 -77 -10.5 -139.5t-40.5 -107t-84 -68.5t-142 -24t-142 24t-84 68.5t-40.5 107t-10.5 139.5v356q0 17 17 17h186q17 0 17 -17v-351q0 -46 1 -79.5t6.5 -55.5t17 -32.5t32.5 -10.5
zM343 828l-122 -77q-12 -8 -23 1l-47 36q-11 10 -1 22q26 33 50 57.5t49 44.5q8 7 15 9.5t18 2.5h122q11 0 18 -2.5t15 -9.5q25 -20 49 -44.5t50 -57.5q10 -12 -1 -22l-47 -36q-11 -9 -23 -1z" />
    <glyph glyph-name="Udieresis" unicode="&#xdc;" horiz-adv-x="686" 
d="M343 154q21 0 32.5 10.5t17 32.5t6.5 55.5t1 79.5v351q0 17 17 17h186q17 0 17 -17v-356q0 -77 -10.5 -139.5t-40.5 -107t-84 -68.5t-142 -24t-142 24t-84 68.5t-40.5 107t-10.5 139.5v356q0 17 17 17h186q17 0 17 -17v-351q0 -46 1 -79.5t6.5 -55.5t17 -32.5t32.5 -10.5
zM398 764q-20 0 -20 21v106q0 21 20 21h120q20 0 20 -21v-18q0 -13 -5.5 -37t-17.5 -51q-4 -8 -11.5 -14.5t-18.5 -6.5h-87zM288 912q20 0 20 -21v-106q0 -21 -20 -21h-120q-20 0 -20 21v18q0 13 5.5 37t17.5 51q4 8 11.5 14.5t18.5 6.5h87z" />
    <glyph glyph-name="Yacute" unicode="&#xdd;" horiz-adv-x="652" 
d="M425 678q5 11 11.5 16.5t20.5 5.5h165q13 0 17 -7.5t0 -15.5l-203 -442v-214q0 -21 -20 -21h-180q-20 0 -20 21v212l-203 444q-4 8 0 15.5t17 7.5h165q14 0 20.5 -5.5t11.5 -16.5l99 -236zM328 927q6 5 13.5 7t15.5 -3l82 -61q15 -11 1 -25q-28 -28 -61.5 -50t-79.5 -43
q-17 -8 -29 1l-59 44q-11 9 -2 18z" />
    <glyph glyph-name="Thorn" unicode="&#xde;" horiz-adv-x="622" 
d="M66 679q0 21 20 21h170q20 0 20 -21v-81q23 4 50 4q136 0 198 -56.5t62 -162.5v-54q0 -107 -62 -163t-198 -56q-27 0 -50 4v-93q0 -21 -20 -21h-170q-20 0 -20 21v658zM381 369q0 39 -12.5 62t-46.5 23q-11 0 -24.5 -1t-21.5 -4v-186q8 -3 21.5 -4t24.5 -1q34 0 46.5 23
t12.5 62v26z" />
    <glyph glyph-name="germandbls" unicode="&#xdf;" horiz-adv-x="607" 
d="M232 21q0 -21 -20 -21h-136q-20 0 -20 21v464q0 120 63 173.5t189 53.5q57 0 102 -14t76 -39.5t47.5 -60t16.5 -76.5q0 -55 -19.5 -93t-70.5 -65q65 -20 90.5 -64.5t25.5 -115.5q0 -42 -11.5 -78t-36 -62.5t-62 -41t-89.5 -14.5q-29 0 -58.5 6.5t-51.5 17.5q-19 9 -19 26
v90q0 20 19 15q17 -4 35.5 -5.5t35.5 -1.5q30 0 46 16t16 61t-25 61.5t-76 16.5h-13q-21 0 -21 20v96q0 20 21 20h9q19 0 33.5 2t24.5 9.5t15.5 21t5.5 36.5q0 37 -16.5 52.5t-51.5 15.5q-18 0 -31.5 -3.5t-23 -12.5t-14.5 -25t-5 -42v-460z" />
    <glyph glyph-name="agrave" unicode="&#xe0;" horiz-adv-x="575" 
d="M200 318q32 0 65.5 -4.5t62.5 -14.5v26q0 21 -6.5 34.5t-21.5 20.5t-39.5 9.5t-59.5 2.5q-54 0 -108 -9q-17 -3 -17 14v80q0 17 19 23q84 26 173 26q68 0 116.5 -11t79.5 -34.5t45.5 -60.5t14.5 -89v-269q0 -41 -30 -48q-21 -6 -48.5 -10t-56.5 -6.5t-58.5 -4t-54.5 -1.5
q-65 0 -112 8t-78 27t-45.5 50.5t-14.5 78.5q0 42 13.5 73t37 50.5t55.5 29t68 9.5zM328 201q-12 2 -24 3t-23 1q-40 0 -54.5 -13t-14.5 -38q0 -23 15 -36.5t50 -13.5q23 0 51 5v92zM393 641q9 -9 -2 -18l-59 -44q-12 -9 -29 -1q-46 21 -79.5 43t-61.5 50q-14 14 1 25l82 61
q8 5 15.5 3t13.5 -7z" />
    <glyph glyph-name="aacute" unicode="&#xe1;" horiz-adv-x="575" 
d="M200 318q32 0 65.5 -4.5t62.5 -14.5v26q0 21 -6.5 34.5t-21.5 20.5t-39.5 9.5t-59.5 2.5q-54 0 -108 -9q-17 -3 -17 14v80q0 17 19 23q84 26 173 26q68 0 116.5 -11t79.5 -34.5t45.5 -60.5t14.5 -89v-269q0 -41 -30 -48q-21 -6 -48.5 -10t-56.5 -6.5t-58.5 -4t-54.5 -1.5
q-65 0 -112 8t-78 27t-45.5 50.5t-14.5 78.5q0 42 13.5 73t37 50.5t55.5 29t68 9.5zM328 201q-12 2 -24 3t-23 1q-40 0 -54.5 -13t-14.5 -38q0 -23 15 -36.5t50 -13.5q23 0 51 5v92zM277 753q6 5 13.5 7t15.5 -3l82 -61q15 -11 1 -25q-28 -28 -61.5 -50t-79.5 -43
q-17 -8 -29 1l-59 44q-11 9 -2 18z" />
    <glyph glyph-name="acircumflex" unicode="&#xe2;" horiz-adv-x="575" 
d="M200 318q32 0 65.5 -4.5t62.5 -14.5v26q0 21 -6.5 34.5t-21.5 20.5t-39.5 9.5t-59.5 2.5q-54 0 -108 -9q-17 -3 -17 14v80q0 17 19 23q84 26 173 26q68 0 116.5 -11t79.5 -34.5t45.5 -60.5t14.5 -89v-269q0 -41 -30 -48q-21 -6 -48.5 -10t-56.5 -6.5t-58.5 -4t-54.5 -1.5
q-65 0 -112 8t-78 27t-45.5 50.5t-14.5 78.5q0 42 13.5 73t37 50.5t55.5 29t68 9.5zM328 201q-12 2 -24 3t-23 1q-40 0 -54.5 -13t-14.5 -38q0 -23 15 -36.5t50 -13.5q23 0 51 5v92zM275 654l-122 -77q-12 -8 -23 1l-47 36q-11 10 -1 22q26 33 50 57.5t49 44.5q8 7 15 9.5
t18 2.5h122q11 0 18 -2.5t15 -9.5q25 -20 49 -44.5t50 -57.5q10 -12 -1 -22l-47 -36q-11 -9 -23 -1z" />
    <glyph glyph-name="atilde" unicode="&#xe3;" horiz-adv-x="575" 
d="M200 318q32 0 65.5 -4.5t62.5 -14.5v26q0 21 -6.5 34.5t-21.5 20.5t-39.5 9.5t-59.5 2.5q-54 0 -108 -9q-17 -3 -17 14v80q0 17 19 23q84 26 173 26q68 0 116.5 -11t79.5 -34.5t45.5 -60.5t14.5 -89v-269q0 -41 -30 -48q-21 -6 -48.5 -10t-56.5 -6.5t-58.5 -4t-54.5 -1.5
q-65 0 -112 8t-78 27t-45.5 50.5t-14.5 78.5q0 42 13.5 73t37 50.5t55.5 29t68 9.5zM328 201q-12 2 -24 3t-23 1q-40 0 -54.5 -13t-14.5 -38q0 -23 15 -36.5t50 -13.5q23 0 51 5v92zM294 718q10 -6 18 -11.5t18 -5.5q20 0 20 20v10q0 9 3 12.5t13 3.5h74q11 0 16 -6t9 -15
q5 -11 6 -22t1 -22q0 -51 -32 -73.5t-80 -22.5q-33 0 -55.5 7t-48.5 24q-10 6 -18 11.5t-18 5.5q-20 0 -20 -20v-10q0 -9 -3 -12.5t-13 -3.5h-74q-11 0 -16 6t-9 15q-5 11 -6 22t-1 22q0 51 32 73.5t80 22.5q33 0 55.5 -7t48.5 -24z" />
    <glyph glyph-name="adieresis" unicode="&#xe4;" horiz-adv-x="575" 
d="M200 318q32 0 65.5 -4.5t62.5 -14.5v26q0 21 -6.5 34.5t-21.5 20.5t-39.5 9.5t-59.5 2.5q-54 0 -108 -9q-17 -3 -17 14v80q0 17 19 23q84 26 173 26q68 0 116.5 -11t79.5 -34.5t45.5 -60.5t14.5 -89v-269q0 -41 -30 -48q-21 -6 -48.5 -10t-56.5 -6.5t-58.5 -4t-54.5 -1.5
q-65 0 -112 8t-78 27t-45.5 50.5t-14.5 78.5q0 42 13.5 73t37 50.5t55.5 29t68 9.5zM328 201q-12 2 -24 3t-23 1q-40 0 -54.5 -13t-14.5 -38q0 -23 15 -36.5t50 -13.5q23 0 51 5v92zM340 590q-20 0 -20 21v106q0 21 20 21h120q20 0 20 -21v-18q0 -13 -5.5 -37t-17.5 -51
q-4 -8 -11.5 -14.5t-18.5 -6.5h-87zM230 738q20 0 20 -21v-106q0 -21 -20 -21h-120q-20 0 -20 21v18q0 13 5.5 37t17.5 51q4 8 11.5 14.5t18.5 6.5h87z" />
    <glyph glyph-name="aring" unicode="&#xe5;" horiz-adv-x="575" 
d="M200 318q32 0 65.5 -4.5t62.5 -14.5v26q0 21 -6.5 34.5t-21.5 20.5t-39.5 9.5t-59.5 2.5q-54 0 -108 -9q-17 -3 -17 14v80q0 17 19 23q84 26 173 26q68 0 116.5 -11t79.5 -34.5t45.5 -60.5t14.5 -89v-269q0 -41 -30 -48q-21 -6 -48.5 -10t-56.5 -6.5t-58.5 -4t-54.5 -1.5
q-65 0 -112 8t-78 27t-45.5 50.5t-14.5 78.5q0 42 13.5 73t37 50.5t55.5 29t68 9.5zM328 201q-12 2 -24 3t-23 1q-40 0 -54.5 -13t-14.5 -38q0 -23 15 -36.5t50 -13.5q23 0 51 5v92zM295 783q60 0 98 -26t38 -88t-38 -88t-98 -26t-98 26t-38 88t38 88t98 26zM295 631
q15 0 23.5 8.5t8.5 29.5t-8.5 29.5t-23.5 8.5t-23.5 -8.5t-8.5 -29.5t8.5 -29.5t23.5 -8.5z" />
    <glyph glyph-name="ae" unicode="&#xe6;" horiz-adv-x="837" 
d="M200 318q26 0 60.5 -4.5t63.5 -14.5v26q0 21 -6.5 34.5t-21 20.5t-38 9.5t-57.5 2.5q-32 0 -54.5 -2t-50.5 -7q-16 -3 -16 14v80q0 17 18 23q37 12 76 19t82 7q48 0 89 -13t70 -38q44 27 85 39t92 12q103 0 161 -59t58 -163q0 -55 -30.5 -82t-96.5 -27h-162
q7 -35 34.5 -52t81.5 -17q33 0 60.5 2t58.5 7q16 3 16 -14v-81q0 -20 -17 -25q-38 -11 -71 -17t-73 -6q-43 0 -86.5 8t-83.5 27q-46 -20 -87 -27.5t-91 -7.5q-63 0 -107.5 9t-72 28.5t-40.5 51t-13 75.5q0 42 13 73t36 50.5t54 29t66 9.5zM324 201q-11 2 -23 3t-23 1
q-38 0 -52.5 -13t-14.5 -38q0 -23 14.5 -36t49.5 -13q12 0 23.5 1t25.5 3v92zM595 302q18 0 25.5 5.5t7.5 22.5q0 23 -12 41.5t-41 18.5q-30 0 -42.5 -24.5t-14.5 -63.5h77z" />
    <glyph glyph-name="ccedilla" unicode="&#xe7;" horiz-adv-x="502" 
d="M339 146q64 0 120 9q17 3 17 -14v-100q0 -15 -19 -23q-18 -8 -46.5 -13.5t-57.5 -9.5l-23 -47q40 -12 61.5 -34.5t21.5 -57.5q0 -27 -10.5 -47.5t-29 -34t-42.5 -20.5t-51 -7q-19 0 -43.5 4.5t-38.5 11.5q-11 5 -15 9t-4 13v38q0 15 17 10q11 -3 22.5 -5t22.5 -2
q14 0 23 8t9 22q0 23 -15.5 31.5t-44.5 8.5q-10 0 -12.5 7.5t2.5 17.5l44 74q-60 6 -102 25.5t-68.5 50.5t-38.5 72.5t-12 92.5v46q0 56 15 101t48 77t85.5 49t127.5 17q17 0 37 -2t40.5 -5.5t38.5 -8t32 -10.5q19 -8 19 -23v-100q0 -17 -17 -14q-26 5 -53 7t-60 2
q-60 0 -83.5 -25.5t-23.5 -76.5v-22q0 -51 23.5 -76.5t83.5 -25.5z" />
    <glyph glyph-name="egrave" unicode="&#xe8;" horiz-adv-x="554" 
d="M528 304q0 -55 -31.5 -82t-99.5 -27h-166q9 -38 36.5 -53.5t82.5 -15.5q34 0 62 2t60 7q17 3 17 -14v-81q0 -20 -19 -26q-78 -22 -168 -22q-77 0 -130 17.5t-85.5 50t-46.5 78t-14 101.5v40q0 54 14 99t45.5 78t82 51.5t124.5 18.5q117 0 176.5 -59t59.5 -163zM311 302
q28 0 28 28q0 27 -13 43.5t-41 16.5q-32 0 -44.5 -24.5t-14.5 -63.5h85zM358 641q9 -9 -2 -18l-59 -44q-12 -9 -29 -1q-46 21 -79.5 43t-61.5 50q-14 14 1 25l82 61q8 5 15.5 3t13.5 -7z" />
    <glyph glyph-name="eacute" unicode="&#xe9;" horiz-adv-x="554" 
d="M528 304q0 -55 -31.5 -82t-99.5 -27h-166q9 -38 36.5 -53.5t82.5 -15.5q34 0 62 2t60 7q17 3 17 -14v-81q0 -20 -19 -26q-78 -22 -168 -22q-77 0 -130 17.5t-85.5 50t-46.5 78t-14 101.5v40q0 54 14 99t45.5 78t82 51.5t124.5 18.5q117 0 176.5 -59t59.5 -163zM311 302
q28 0 28 28q0 27 -13 43.5t-41 16.5q-32 0 -44.5 -24.5t-14.5 -63.5h85zM293 753q6 5 13.5 7t15.5 -3l82 -61q15 -11 1 -25q-28 -28 -61.5 -50t-79.5 -43q-17 -8 -29 1l-59 44q-11 9 -2 18z" />
    <glyph glyph-name="ecircumflex" unicode="&#xea;" horiz-adv-x="554" 
d="M528 304q0 -55 -31.5 -82t-99.5 -27h-166q9 -38 36.5 -53.5t82.5 -15.5q34 0 62 2t60 7q17 3 17 -14v-81q0 -20 -19 -26q-78 -22 -168 -22q-77 0 -130 17.5t-85.5 50t-46.5 78t-14 101.5v40q0 54 14 99t45.5 78t82 51.5t124.5 18.5q117 0 176.5 -59t59.5 -163zM311 302
q28 0 28 28q0 27 -13 43.5t-41 16.5q-32 0 -44.5 -24.5t-14.5 -63.5h85zM276 654l-122 -77q-12 -8 -23 1l-47 36q-11 10 -1 22q26 33 50 57.5t49 44.5q8 7 15 9.5t18 2.5h122q11 0 18 -2.5t15 -9.5q25 -20 49 -44.5t50 -57.5q10 -12 -1 -22l-47 -36q-11 -9 -23 -1z" />
    <glyph glyph-name="edieresis" unicode="&#xeb;" horiz-adv-x="554" 
d="M528 304q0 -55 -31.5 -82t-99.5 -27h-166q9 -38 36.5 -53.5t82.5 -15.5q34 0 62 2t60 7q17 3 17 -14v-81q0 -20 -19 -26q-78 -22 -168 -22q-77 0 -130 17.5t-85.5 50t-46.5 78t-14 101.5v40q0 54 14 99t45.5 78t82 51.5t124.5 18.5q117 0 176.5 -59t59.5 -163zM311 302
q28 0 28 28q0 27 -13 43.5t-41 16.5q-32 0 -44.5 -24.5t-14.5 -63.5h85zM338 590q-20 0 -20 21v106q0 21 20 21h120q20 0 20 -21v-18q0 -13 -5.5 -37t-17.5 -51q-4 -8 -11.5 -14.5t-18.5 -6.5h-87zM228 738q20 0 20 -21v-106q0 -21 -20 -21h-120q-20 0 -20 21v18
q0 13 5.5 37t17.5 51q4 8 11.5 14.5t18.5 6.5h87z" />
    <glyph glyph-name="igrave" unicode="&#xec;" horiz-adv-x="338" 
d="M66 497q0 21 20 21h166q20 0 20 -21v-476q0 -21 -20 -21h-166q-20 0 -20 21v476zM247 641q9 -9 -2 -18l-59 -44q-12 -9 -29 -1q-46 21 -79.5 43t-61.5 50q-14 14 1 25l82 61q8 5 15.5 3t13.5 -7z" />
    <glyph glyph-name="iacute" unicode="&#xed;" horiz-adv-x="338" 
d="M66 497q0 21 20 21h166q20 0 20 -21v-476q0 -21 -20 -21h-166q-20 0 -20 21v476zM211 753q6 5 13.5 7t15.5 -3l82 -61q15 -11 1 -25q-28 -28 -61.5 -50t-79.5 -43q-17 -8 -29 1l-59 44q-11 9 -2 18z" />
    <glyph glyph-name="icircumflex" unicode="&#xee;" horiz-adv-x="338" 
d="M66 497q0 21 20 21h166q20 0 20 -21v-476q0 -21 -20 -21h-166q-20 0 -20 21v476zM169 654l-122 -77q-12 -8 -23 1l-47 36q-11 10 -1 22q26 33 50 57.5t49 44.5q8 7 15 9.5t18 2.5h122q11 0 18 -2.5t15 -9.5q25 -20 49 -44.5t50 -57.5q10 -12 -1 -22l-47 -36
q-11 -9 -23 -1z" />
    <glyph glyph-name="idieresis" unicode="&#xef;" horiz-adv-x="338" 
d="M66 497q0 21 20 21h166q20 0 20 -21v-476q0 -21 -20 -21h-166q-20 0 -20 21v476zM224 590q-20 0 -20 21v106q0 21 20 21h120q20 0 20 -21v-18q0 -13 -5.5 -37t-17.5 -51q-4 -8 -11.5 -14.5t-18.5 -6.5h-87zM114 738q20 0 20 -21v-106q0 -21 -20 -21h-120q-20 0 -20 21v18
q0 13 5.5 37t17.5 51q4 8 11.5 14.5t18.5 6.5h87z" />
    <glyph glyph-name="eth" unicode="&#xf0;" horiz-adv-x="629" 
d="M273 511q-10 -5 -16.5 -3.5t-11.5 12.5l-20 39q-10 18 10 27l58 27q-20 5 -40 5q-32 0 -58.5 -1.5t-56.5 -5.5q-17 0 -17 17v67q0 19 20 24q39 10 76.5 14.5t86.5 4.5t87.5 -12t67.5 -34l72 34q10 5 16.5 3.5t11.5 -12.5l20 -39q10 -18 -10 -27l-52 -25
q35 -57 48.5 -131.5t13.5 -155.5q0 -83 -14 -147.5t-47.5 -109t-89 -67.5t-137.5 -23q-128 0 -196.5 60.5t-68.5 190.5v15q0 58 20 103t54.5 75t81 45.5t100.5 15.5q24 0 50.5 -3.5t49.5 -9.5q-3 20 -7.5 37.5t-11.5 31.5zM333 377q-27 0 -48.5 -5.5t-36.5 -19.5t-23 -37.5
t-8 -60.5v-11q0 -69 16 -100.5t58 -31.5q27 0 45.5 11t30 38t16.5 71.5t5 111.5v31q-26 3 -55 3z" />
    <glyph glyph-name="ntilde" unicode="&#xf1;" horiz-adv-x="612" 
d="M561 21q0 -21 -20 -21h-166q-20 0 -20 21v284q0 33 -10.5 50t-41.5 17q-23 0 -41 -3v-348q0 -21 -20 -21h-166q-20 0 -20 21v434q0 40 30 48q21 6 49 10t57.5 7t59 4.5t55.5 1.5q68 0 116 -11.5t79 -38t45 -69.5t14 -105v-281zM312 718q10 -6 18 -11.5t18 -5.5
q20 0 20 20v10q0 9 3 12.5t13 3.5h74q11 0 16 -6t9 -15q5 -11 6 -22t1 -22q0 -51 -32 -73.5t-80 -22.5q-33 0 -55.5 7t-48.5 24q-10 6 -18 11.5t-18 5.5q-20 0 -20 -20v-10q0 -9 -3 -12.5t-13 -3.5h-74q-11 0 -16 6t-9 15q-5 11 -6 22t-1 22q0 51 32 73.5t80 22.5
q33 0 55.5 -7t48.5 -24z" />
    <glyph glyph-name="ograve" unicode="&#xf2;" horiz-adv-x="568" 
d="M26 279q0 124 66 185.5t192 61.5t192 -61.5t66 -185.5v-40q0 -124 -66 -185.5t-192 -61.5t-192 61.5t-66 185.5v40zM336 277q0 53 -10 74t-42 21t-42 -21t-10 -74v-36q0 -54 10 -74.5t42 -20.5t42 20.5t10 74.5v36zM402 641q9 -9 -2 -18l-59 -44q-12 -9 -29 -1
q-46 21 -79.5 43t-61.5 50q-14 14 1 25l82 61q8 5 15.5 3t13.5 -7z" />
    <glyph glyph-name="oacute" unicode="&#xf3;" horiz-adv-x="568" 
d="M26 279q0 124 66 185.5t192 61.5t192 -61.5t66 -185.5v-40q0 -124 -66 -185.5t-192 -61.5t-192 61.5t-66 185.5v40zM336 277q0 53 -10 74t-42 21t-42 -21t-10 -74v-36q0 -54 10 -74.5t42 -20.5t42 20.5t10 74.5v36zM286 753q6 5 13.5 7t15.5 -3l82 -61q15 -11 1 -25
q-28 -28 -61.5 -50t-79.5 -43q-17 -8 -29 1l-59 44q-11 9 -2 18z" />
    <glyph glyph-name="ocircumflex" unicode="&#xf4;" horiz-adv-x="568" 
d="M26 279q0 124 66 185.5t192 61.5t192 -61.5t66 -185.5v-40q0 -124 -66 -185.5t-192 -61.5t-192 61.5t-66 185.5v40zM336 277q0 53 -10 74t-42 21t-42 -21t-10 -74v-36q0 -54 10 -74.5t42 -20.5t42 20.5t10 74.5v36zM284 654l-122 -77q-12 -8 -23 1l-47 36q-11 10 -1 22
q26 33 50 57.5t49 44.5q8 7 15 9.5t18 2.5h122q11 0 18 -2.5t15 -9.5q25 -20 49 -44.5t50 -57.5q10 -12 -1 -22l-47 -36q-11 -9 -23 -1z" />
    <glyph glyph-name="otilde" unicode="&#xf5;" horiz-adv-x="568" 
d="M26 279q0 124 66 185.5t192 61.5t192 -61.5t66 -185.5v-40q0 -124 -66 -185.5t-192 -61.5t-192 61.5t-66 185.5v40zM336 277q0 53 -10 74t-42 21t-42 -21t-10 -74v-36q0 -54 10 -74.5t42 -20.5t42 20.5t10 74.5v36zM303 718q10 -6 18 -11.5t18 -5.5q20 0 20 20v10
q0 9 3 12.5t13 3.5h74q11 0 16 -6t9 -15q5 -11 6 -22t1 -22q0 -51 -32 -73.5t-80 -22.5q-33 0 -55.5 7t-48.5 24q-10 6 -18 11.5t-18 5.5q-20 0 -20 -20v-10q0 -9 -3 -12.5t-13 -3.5h-74q-11 0 -16 6t-9 15q-5 11 -6 22t-1 22q0 51 32 73.5t80 22.5q33 0 55.5 -7t48.5 -24z
" />
    <glyph glyph-name="odieresis" unicode="&#xf6;" horiz-adv-x="568" 
d="M26 279q0 124 66 185.5t192 61.5t192 -61.5t66 -185.5v-40q0 -124 -66 -185.5t-192 -61.5t-192 61.5t-66 185.5v40zM336 277q0 53 -10 74t-42 21t-42 -21t-10 -74v-36q0 -54 10 -74.5t42 -20.5t42 20.5t10 74.5v36zM339 590q-20 0 -20 21v106q0 21 20 21h120q20 0 20 -21
v-18q0 -13 -5.5 -37t-17.5 -51q-4 -8 -11.5 -14.5t-18.5 -6.5h-87zM229 738q20 0 20 -21v-106q0 -21 -20 -21h-120q-20 0 -20 21v18q0 13 5.5 37t17.5 51q4 8 11.5 14.5t18.5 6.5h87z" />
    <glyph glyph-name="divide" unicode="&#xf7;" horiz-adv-x="638" 
d="M288 33q-14 0 -22 7.5t-13 18.5q-11 28 -17 50t-6 48v18q0 21 20 21h139q20 0 20 -21v-121q0 -21 -20 -21h-101zM351 631q14 0 22 -7.5t13 -18.5q11 -28 17 -50t6 -48v-18q0 -21 -20 -21h-139q-20 0 -20 21v121q0 21 20 21h101zM557 408q21 0 21 -20v-112q0 -20 -21 -20
h-476q-21 0 -21 20v112q0 20 21 20h476z" />
    <glyph glyph-name="oslash" unicode="&#xf8;" horiz-adv-x="568" 
d="M120 -98q-7 -12 -21 -12h-51q-9 0 -11 5t1 11l75 130q-87 63 -87 203v40q0 124 66 185.5t192 61.5q57 0 104 -14l60 104q7 12 21 12h51q9 0 11 -5t-1 -11l-76 -131q43 -31 65.5 -81t22.5 -121v-40q0 -124 -66 -185.5t-192 -61.5q-29 0 -55 3.5t-49 9.5zM284 372
q-32 0 -42 -21t-10 -74v-35l73 127q-9 3 -21 3zM284 146q32 0 42 20.5t10 74.5v35l-73 -127q9 -3 21 -3z" />
    <glyph glyph-name="ugrave" unicode="&#xf9;" horiz-adv-x="617" 
d="M56 497q0 21 20 21h166q20 0 20 -21v-284q0 -33 10.5 -50t41.5 -17q23 0 41 3v348q0 21 20 21h166q20 0 20 -21v-434q0 -41 -30 -48q-21 -6 -49 -10t-57.5 -7t-59.5 -4.5t-55 -1.5q-68 0 -116 11.5t-79 38t-45 69.5t-14 105v281zM396 641q9 -9 -2 -18l-59 -44
q-12 -9 -29 -1q-46 21 -79.5 43t-61.5 50q-14 14 1 25l82 61q8 5 15.5 3t13.5 -7z" />
    <glyph glyph-name="uacute" unicode="&#xfa;" horiz-adv-x="617" 
d="M56 497q0 21 20 21h166q20 0 20 -21v-284q0 -33 10.5 -50t41.5 -17q23 0 41 3v348q0 21 20 21h166q20 0 20 -21v-434q0 -41 -30 -48q-21 -6 -49 -10t-57.5 -7t-59.5 -4.5t-55 -1.5q-68 0 -116 11.5t-79 38t-45 69.5t-14 105v281zM340 753q6 5 13.5 7t15.5 -3l82 -61
q15 -11 1 -25q-28 -28 -61.5 -50t-79.5 -43q-17 -8 -29 1l-59 44q-11 9 -2 18z" />
    <glyph glyph-name="ucircumflex" unicode="&#xfb;" horiz-adv-x="617" 
d="M56 497q0 21 20 21h166q20 0 20 -21v-284q0 -33 10.5 -50t41.5 -17q23 0 41 3v348q0 21 20 21h166q20 0 20 -21v-434q0 -41 -30 -48q-21 -6 -49 -10t-57.5 -7t-59.5 -4.5t-55 -1.5q-68 0 -116 11.5t-79 38t-45 69.5t-14 105v281zM308 654l-122 -77q-12 -8 -23 1l-47 36
q-11 10 -1 22q26 33 50 57.5t49 44.5q8 7 15 9.5t18 2.5h122q11 0 18 -2.5t15 -9.5q25 -20 49 -44.5t50 -57.5q10 -12 -1 -22l-47 -36q-11 -9 -23 -1z" />
    <glyph glyph-name="udieresis" unicode="&#xfc;" horiz-adv-x="617" 
d="M56 497q0 21 20 21h166q20 0 20 -21v-284q0 -33 10.5 -50t41.5 -17q23 0 41 3v348q0 21 20 21h166q20 0 20 -21v-434q0 -41 -30 -48q-21 -6 -49 -10t-57.5 -7t-59.5 -4.5t-55 -1.5q-68 0 -116 11.5t-79 38t-45 69.5t-14 105v281zM363 590q-20 0 -20 21v106q0 21 20 21
h120q20 0 20 -21v-18q0 -13 -5.5 -37t-17.5 -51q-4 -8 -11.5 -14.5t-18.5 -6.5h-87zM253 738q20 0 20 -21v-106q0 -21 -20 -21h-120q-20 0 -20 21v18q0 13 5.5 37t17.5 51q4 8 11.5 14.5t18.5 6.5h87z" />
    <glyph glyph-name="yacute" unicode="&#xfd;" horiz-adv-x="617" 
d="M248 -46q56 0 81.5 12.5t25.5 43.5v10q-26 -9 -56.5 -11.5t-68.5 -2.5q-88 0 -131 48.5t-43 150.5v292q0 21 20 21h166q20 0 20 -21v-280q0 -26 12 -41.5t43 -15.5h19t19 2v335q0 21 20 21h166q20 0 20 -21v-495q0 -47 -14 -84.5t-45.5 -63.5t-83 -40t-127.5 -14
q-45 0 -89.5 7t-78.5 19q-19 6 -19 23v100q0 17 17 14q60 -9 127 -9zM310 753q6 5 13.5 7t15.5 -3l82 -61q15 -11 1 -25q-28 -28 -61.5 -50t-79.5 -43q-17 -8 -29 1l-59 44q-11 9 -2 18z" />
    <glyph glyph-name="thorn" unicode="&#xfe;" horiz-adv-x="599" 
d="M359 526q53 0 93 -17.5t67 -49t40.5 -75.5t13.5 -98v-36q0 -60 -18 -107.5t-53.5 -81t-87.5 -51.5t-121 -18h-15.5t-15.5 1v-169q0 -17 -17 -17h-172q-17 0 -17 17v889q0 17 17 17h172q17 0 17 -17v-201q8 3 20.5 5.5t26 4.5t26.5 3t24 1zM262 149q19 -3 37 -3
q41 0 54.5 31.5t13.5 80.5v20q0 51 -17 72.5t-55 21.5q-8 0 -16.5 -0.5t-16.5 -1.5v-221z" />
    <glyph glyph-name="ydieresis" unicode="&#xff;" horiz-adv-x="617" 
d="M248 -46q56 0 81.5 12.5t25.5 43.5v10q-26 -9 -56.5 -11.5t-68.5 -2.5q-88 0 -131 48.5t-43 150.5v292q0 21 20 21h166q20 0 20 -21v-280q0 -26 12 -41.5t43 -15.5h19t19 2v335q0 21 20 21h166q20 0 20 -21v-495q0 -47 -14 -84.5t-45.5 -63.5t-83 -40t-127.5 -14
q-45 0 -89.5 7t-78.5 19q-19 6 -19 23v100q0 17 17 14q60 -9 127 -9zM363 590q-20 0 -20 21v106q0 21 20 21h120q20 0 20 -21v-18q0 -13 -5.5 -37t-17.5 -51q-4 -8 -11.5 -14.5t-18.5 -6.5h-87zM253 738q20 0 20 -21v-106q0 -21 -20 -21h-120q-20 0 -20 21v18q0 13 5.5 37
t17.5 51q4 8 11.5 14.5t18.5 6.5h87z" />
    <glyph glyph-name="Amacron" unicode="&#x100;" horiz-adv-x="638" 
d="M31 0q-11 0 -14.5 6.5t-1.5 16.5l152 658q2 8 8 13.5t19 5.5h250q13 0 19 -5.5t8 -13.5l152 -658q2 -10 -1.5 -16.5t-14.5 -6.5h-177q-20 0 -23 17l-18 105h-140l-18 -105q-3 -17 -23 -17h-177zM319 534l-46 -268h91zM163 785q-21 0 -21 20v70q0 20 21 20h312
q21 0 21 -20v-70q0 -20 -21 -20h-312z" />
    <glyph glyph-name="amacron" unicode="&#x101;" horiz-adv-x="575" 
d="M200 318q32 0 65.5 -4.5t62.5 -14.5v26q0 21 -6.5 34.5t-21.5 20.5t-39.5 9.5t-59.5 2.5q-54 0 -108 -9q-17 -3 -17 14v80q0 17 19 23q84 26 173 26q68 0 116.5 -11t79.5 -34.5t45.5 -60.5t14.5 -89v-269q0 -41 -30 -48q-21 -6 -48.5 -10t-56.5 -6.5t-58.5 -4t-54.5 -1.5
q-65 0 -112 8t-78 27t-45.5 50.5t-14.5 78.5q0 42 13.5 73t37 50.5t55.5 29t68 9.5zM328 201q-12 2 -24 3t-23 1q-40 0 -54.5 -13t-14.5 -38q0 -23 15 -36.5t50 -13.5q23 0 51 5v92zM136 611q-21 0 -21 20v70q0 20 21 20h312q21 0 21 -20v-70q0 -20 -21 -20h-312z" />
    <glyph glyph-name="Abreve" unicode="&#x102;" horiz-adv-x="638" 
d="M31 0q-11 0 -14.5 6.5t-1.5 16.5l152 658q2 8 8 13.5t19 5.5h250q13 0 19 -5.5t8 -13.5l152 -658q2 -10 -1.5 -16.5t-14.5 -6.5h-177q-20 0 -23 17l-18 105h-140l-18 -105q-3 -17 -23 -17h-177zM319 534l-46 -268h91zM319 851q32 0 55.5 14.5t30.5 41.5q2 8 6.5 12.5
t13.5 4.5h63q19 0 19 -18q0 -38 -14 -68t-39 -52t-59.5 -33.5t-75.5 -11.5t-75.5 11.5t-59.5 33.5t-39 52t-14 68q0 18 19 18h63q9 0 13.5 -4.5t6.5 -12.5q7 -27 30.5 -41.5t55.5 -14.5z" />
    <glyph glyph-name="abreve" unicode="&#x103;" horiz-adv-x="575" 
d="M200 318q32 0 65.5 -4.5t62.5 -14.5v26q0 21 -6.5 34.5t-21.5 20.5t-39.5 9.5t-59.5 2.5q-54 0 -108 -9q-17 -3 -17 14v80q0 17 19 23q84 26 173 26q68 0 116.5 -11t79.5 -34.5t45.5 -60.5t14.5 -89v-269q0 -41 -30 -48q-21 -6 -48.5 -10t-56.5 -6.5t-58.5 -4t-54.5 -1.5
q-65 0 -112 8t-78 27t-45.5 50.5t-14.5 78.5q0 42 13.5 73t37 50.5t55.5 29t68 9.5zM328 201q-12 2 -24 3t-23 1q-40 0 -54.5 -13t-14.5 -38q0 -23 15 -36.5t50 -13.5q23 0 51 5v92zM280 679q32 0 55.5 14.5t30.5 41.5q2 8 6.5 12.5t13.5 4.5h63q19 0 19 -18q0 -38 -14 -68
t-39 -52t-59.5 -33.5t-75.5 -11.5t-75.5 11.5t-59.5 33.5t-39 52t-14 68q0 18 19 18h63q9 0 13.5 -4.5t6.5 -12.5q7 -27 30.5 -41.5t55.5 -14.5z" />
    <glyph glyph-name="Aogonek" unicode="&#x104;" horiz-adv-x="638" 
d="M31 0q-11 0 -14.5 6.5t-1.5 16.5l152 658q2 8 8 13.5t19 5.5h250q13 0 19 -5.5t8 -13.5l152 -658q2 -10 -1.5 -16.5t-14.5 -6.5h-22q-55 -52 -55 -107q0 -17 5.5 -26t21.5 -9q20 0 35 3q11 2 17 1t6 -11v-40q0 -10 -11 -18t-30 -14t-41 -6q-75 0 -106 27.5t-31 78.5
q0 33 18 63.5t51 57.5h-35q-20 0 -23 17l-18 105h-140l-18 -105q-3 -17 -23 -17h-177zM319 534l-46 -268h91z" />
    <glyph glyph-name="aogonek" unicode="&#x105;" horiz-adv-x="575" 
d="M200 318q32 0 65.5 -4.5t62.5 -14.5v26q0 21 -6.5 34.5t-21.5 20.5t-39.5 9.5t-59.5 2.5q-54 0 -108 -9q-17 -3 -17 14v80q0 17 19 23q84 26 173 26q68 0 116.5 -11t79.5 -34.5t45.5 -60.5t14.5 -89v-269q0 -41 -30 -48q-7 -2 -14 -3.5t-15 -3.5q-32 -28 -47.5 -55.5
t-15.5 -58.5q0 -17 5.5 -26t21.5 -9q20 0 35 3q11 2 17 1t6 -11v-40q0 -10 -11 -18t-30 -14t-41 -6q-75 0 -106 27.5t-31 78.5q0 31 16 59.5t45 54.5q-14 -1 -27.5 -1h-25.5q-65 0 -112 8t-78 27t-45.5 50.5t-14.5 78.5q0 42 13.5 73t37 50.5t55.5 29t68 9.5zM328 201
q-12 2 -24 3t-23 1q-40 0 -54.5 -13t-14.5 -38q0 -23 15 -36.5t50 -13.5q23 0 51 5v92z" />
    <glyph glyph-name="Cacute" unicode="&#x106;" horiz-adv-x="576" 
d="M344 927q6 5 13.5 7t15.5 -3l82 -61q15 -11 1 -25q-28 -28 -61.5 -50t-79.5 -43q-17 -8 -29 1l-59 44q-11 9 -2 18zM46 380q0 82 15.5 144.5t50.5 104t92.5 62.5t141.5 21q41 0 86.5 -8t77.5 -20q20 -7 20 -24v-104q0 -8 -5 -13t-12 -4q-31 4 -57 5.5t-58 1.5
q-37 0 -62.5 -9t-41 -30t-22 -55t-6.5 -83v-38q0 -50 7.5 -83.5t24 -54.5t42.5 -30t63 -9q32 0 61 1.5t59 5.5q8 1 12.5 -4t4.5 -13v-104q0 -10 -4.5 -14.5t-15.5 -9.5q-38 -15 -79.5 -21.5t-89.5 -6.5q-84 0 -142 21t-94.5 62.5t-52.5 103.5t-16 145v60z" />
    <glyph glyph-name="cacute" unicode="&#x107;" horiz-adv-x="502" 
d="M339 146q64 0 120 9q17 3 17 -14v-100q0 -15 -19 -23q-14 -6 -33.5 -10.5t-41 -8t-42.5 -5.5t-38 -2q-75 0 -127.5 17t-85.5 49t-48 77t-15 101v46q0 56 15 101t48 77t85.5 49t127.5 17q17 0 37 -2t40.5 -5.5t38.5 -8t32 -10.5q19 -8 19 -23v-100q0 -17 -17 -14
q-26 5 -53 7t-60 2q-60 0 -83.5 -25.5t-23.5 -76.5v-22q0 -51 23.5 -76.5t83.5 -25.5zM273 753q6 5 13.5 7t15.5 -3l82 -61q15 -11 1 -25q-28 -28 -61.5 -50t-79.5 -43q-17 -8 -29 1l-59 44q-11 9 -2 18z" />
    <glyph glyph-name="Ccircumflex" unicode="&#x108;" horiz-adv-x="576" 
d="M318 828l-122 -77q-12 -8 -23 1l-47 36q-11 10 -1 22q26 33 50 57.5t49 44.5q8 7 15 9.5t18 2.5h122q11 0 18 -2.5t15 -9.5q25 -20 49 -44.5t50 -57.5q10 -12 -1 -22l-47 -36q-11 -9 -23 -1zM46 380q0 82 15.5 144.5t50.5 104t92.5 62.5t141.5 21q41 0 86.5 -8t77.5 -20
q20 -7 20 -24v-104q0 -8 -5 -13t-12 -4q-31 4 -57 5.5t-58 1.5q-37 0 -62.5 -9t-41 -30t-22 -55t-6.5 -83v-38q0 -50 7.5 -83.5t24 -54.5t42.5 -30t63 -9q32 0 61 1.5t59 5.5q8 1 12.5 -4t4.5 -13v-104q0 -10 -4.5 -14.5t-15.5 -9.5q-38 -15 -79.5 -21.5t-89.5 -6.5
q-84 0 -142 21t-94.5 62.5t-52.5 103.5t-16 145v60z" />
    <glyph glyph-name="ccircumflex" unicode="&#x109;" horiz-adv-x="502" 
d="M339 146q64 0 120 9q17 3 17 -14v-100q0 -15 -19 -23q-14 -6 -33.5 -10.5t-41 -8t-42.5 -5.5t-38 -2q-75 0 -127.5 17t-85.5 49t-48 77t-15 101v46q0 56 15 101t48 77t85.5 49t127.5 17q17 0 37 -2t40.5 -5.5t38.5 -8t32 -10.5q19 -8 19 -23v-100q0 -17 -17 -14
q-26 5 -53 7t-60 2q-60 0 -83.5 -25.5t-23.5 -76.5v-22q0 -51 23.5 -76.5t83.5 -25.5zM271 654l-122 -77q-12 -8 -23 1l-47 36q-11 10 -1 22q26 33 50 57.5t49 44.5q8 7 15 9.5t18 2.5h122q11 0 18 -2.5t15 -9.5q25 -20 49 -44.5t50 -57.5q10 -12 -1 -22l-47 -36
q-11 -9 -23 -1z" />
    <glyph glyph-name="Cdotaccent" unicode="&#x10a;" horiz-adv-x="576" 
d="M265 764q-20 0 -20 21v106q0 21 20 21h140q20 0 20 -21v-18q0 -13 -5.5 -37t-17.5 -51q-4 -8 -11.5 -14.5t-18.5 -6.5h-107zM46 380q0 82 15.5 144.5t50.5 104t92.5 62.5t141.5 21q41 0 86.5 -8t77.5 -20q20 -7 20 -24v-104q0 -8 -5 -13t-12 -4q-31 4 -57 5.5t-58 1.5
q-37 0 -62.5 -9t-41 -30t-22 -55t-6.5 -83v-38q0 -50 7.5 -83.5t24 -54.5t42.5 -30t63 -9q32 0 61 1.5t59 5.5q8 1 12.5 -4t4.5 -13v-104q0 -10 -4.5 -14.5t-15.5 -9.5q-38 -15 -79.5 -21.5t-89.5 -6.5q-84 0 -142 21t-94.5 62.5t-52.5 103.5t-16 145v60z" />
    <glyph glyph-name="cdotaccent" unicode="&#x10b;" horiz-adv-x="502" 
d="M339 146q64 0 120 9q17 3 17 -14v-100q0 -15 -19 -23q-14 -6 -33.5 -10.5t-41 -8t-42.5 -5.5t-38 -2q-75 0 -127.5 17t-85.5 49t-48 77t-15 101v46q0 56 15 101t48 77t85.5 49t127.5 17q17 0 37 -2t40.5 -5.5t38.5 -8t32 -10.5q19 -8 19 -23v-100q0 -17 -17 -14
q-26 5 -53 7t-60 2q-60 0 -83.5 -25.5t-23.5 -76.5v-22q0 -51 23.5 -76.5t83.5 -25.5zM201 590q-20 0 -20 21v106q0 21 20 21h140q20 0 20 -21v-18q0 -13 -5.5 -37t-17.5 -51q-4 -8 -11.5 -14.5t-18.5 -6.5h-107z" />
    <glyph glyph-name="Ccaron" unicode="&#x10c;" horiz-adv-x="576" 
d="M440 932q12 8 23 -1l47 -36q11 -10 1 -22q-26 -33 -50 -57.5t-49 -44.5q-8 -7 -15 -9.5t-18 -2.5h-122q-11 0 -18 2.5t-15 9.5q-25 20 -49 44.5t-50 57.5q-10 12 1 22l47 36q11 9 23 1l122 -77zM46 380q0 82 15.5 144.5t50.5 104t92.5 62.5t141.5 21q41 0 86.5 -8
t77.5 -20q20 -7 20 -24v-104q0 -8 -5 -13t-12 -4q-31 4 -57 5.5t-58 1.5q-37 0 -62.5 -9t-41 -30t-22 -55t-6.5 -83v-38q0 -50 7.5 -83.5t24 -54.5t42.5 -30t63 -9q32 0 61 1.5t59 5.5q8 1 12.5 -4t4.5 -13v-104q0 -10 -4.5 -14.5t-15.5 -9.5q-38 -15 -79.5 -21.5
t-89.5 -6.5q-84 0 -142 21t-94.5 62.5t-52.5 103.5t-16 145v60z" />
    <glyph glyph-name="ccaron" unicode="&#x10d;" horiz-adv-x="502" 
d="M339 146q64 0 120 9q17 3 17 -14v-100q0 -15 -19 -23q-14 -6 -33.5 -10.5t-41 -8t-42.5 -5.5t-38 -2q-75 0 -127.5 17t-85.5 49t-48 77t-15 101v46q0 56 15 101t48 77t85.5 49t127.5 17q17 0 37 -2t40.5 -5.5t38.5 -8t32 -10.5q19 -8 19 -23v-100q0 -17 -17 -14
q-26 5 -53 7t-60 2q-60 0 -83.5 -25.5t-23.5 -76.5v-22q0 -51 23.5 -76.5t83.5 -25.5zM393 758q12 8 23 -1l47 -36q11 -10 1 -22q-26 -33 -50 -57.5t-49 -44.5q-8 -7 -15 -9.5t-18 -2.5h-122q-11 0 -18 2.5t-15 9.5q-25 20 -49 44.5t-50 57.5q-10 12 1 22l47 36q11 9 23 1
l122 -77z" />
    <glyph glyph-name="Dcaron" unicode="&#x10e;" horiz-adv-x="665" 
d="M619 330q0 -75 -14 -138t-49 -108.5t-96.5 -70.5t-155.5 -25q-63 0 -108 4.5t-84 13.5q-26 6 -36 21.5t-10 47.5v550q0 32 10 47.5t36 21.5q39 9 84 13.5t108 4.5q94 0 155.5 -25t96.5 -70.5t49 -108.5t14 -138v-40zM409 367q0 48 -3.5 82t-12.5 55.5t-25 31.5t-41 10
q-30 0 -51 -3v-386q21 -3 51 -3q25 0 41 10t25 31.5t12.5 55.5t3.5 82v34zM432 932q12 8 23 -1l47 -36q11 -10 1 -22q-26 -33 -50 -57.5t-49 -44.5q-8 -7 -15 -9.5t-18 -2.5h-122q-11 0 -18 2.5t-15 9.5q-25 20 -49 44.5t-50 57.5q-10 12 1 22l47 36q11 9 23 1l122 -77z" />
    <glyph glyph-name="dcaron" unicode="&#x10f;" horiz-adv-x="783" 
d="M240 526q-53 0 -93 -17.5t-67 -49t-40.5 -75.5t-13.5 -98v-36q0 -60 18 -107.5t53.5 -81t87.5 -51.5t121 -18q51 0 107.5 6t99.5 17q30 7 30 48v650q0 17 -17 17h-172q-17 0 -17 -17v-201q-9 3 -21 6t-25.5 4.5t-27 2.5t-23.5 1zM337 149q-20 -3 -37 -3q-41 0 -54.5 31.5
t-13.5 80.5v20q0 51 17 72.5t55 21.5q16 0 33 -3v-220zM593 489q-12 7 -4 18q15 21 25 44.5t10 47.5q0 8 -2 17.5t-4 17.5q-7 22 -9.5 40.5t-2.5 34.5v15q0 9 3.5 13.5t14.5 4.5h125q18 0 18 -18v-19q0 -47 -19.5 -110.5t-72.5 -128.5q-4 -5 -11.5 -6.5t-15.5 2.5z" />
    <glyph glyph-name="Dcroat" unicode="&#x110;" horiz-adv-x="683" 
d="M84 392v233q0 32 10 47.5t36 21.5q39 9 84 13.5t108 4.5q94 0 155.5 -25t96.5 -70.5t49 -108.5t14 -138v-40q0 -75 -14 -138t-49 -108.5t-96.5 -70.5t-155.5 -25q-63 0 -108 4.5t-84 13.5q-26 6 -36 21.5t-10 47.5v233h-57q-21 0 -21 20v44q0 20 21 20h57zM427 367
q0 48 -3.5 82t-12.5 55.5t-25 31.5t-41 10q-30 0 -51 -3v-151h59q21 0 21 -20v-44q0 -20 -21 -20h-59v-151q21 -3 51 -3q25 0 41 10t25 31.5t12.5 55.5t3.5 82v34z" />
    <glyph glyph-name="dcroat" unicode="&#x111;" horiz-adv-x="620" 
d="M194 583q-21 0 -21 20v44q0 20 21 20h143v46q0 17 17 17h172q17 0 17 -17v-46h50q21 0 21 -20v-44q0 -20 -21 -20h-50v-520q0 -41 -30 -48q-43 -11 -99.5 -17t-107.5 -6q-69 0 -121 18t-87.5 51.5t-53.5 81t-18 107.5v36q0 54 13.5 98t40.5 75.5t67 49t93 17.5
q10 0 23.5 -1t27 -3t25.5 -4.5t21 -5.5v71h-143zM304 372q-38 0 -55 -21.5t-17 -72.5v-20q0 -49 13.5 -80.5t54.5 -31.5q17 0 37 3v221q-8 1 -17 1.5t-16 0.5z" />
    <glyph glyph-name="Emacron" unicode="&#x112;" horiz-adv-x="596" 
d="M286 436h209q21 0 21 -20v-126q0 -20 -21 -20h-209v-64q0 -28 8.5 -40t36.5 -12h197q17 0 17 -17v-113q0 -23 -23 -24q-66 -5 -134.5 -8.5t-137.5 -3.5q-50 0 -85 9.5t-57 29.5t-32 49.5t-10 70.5v406q0 81 42.5 120t141.5 39q68 0 132 -3t130 -9q23 -1 23 -24v-113
q0 -17 -17 -17h-187q-28 0 -36.5 -12t-8.5 -40v-58zM160 785q-21 0 -21 20v70q0 20 21 20h312q21 0 21 -20v-70q0 -20 -21 -20h-312z" />
    <glyph glyph-name="emacron" unicode="&#x113;" horiz-adv-x="554" 
d="M528 304q0 -55 -31.5 -82t-99.5 -27h-166q9 -38 36.5 -53.5t82.5 -15.5q34 0 62 2t60 7q17 3 17 -14v-81q0 -20 -19 -26q-78 -22 -168 -22q-77 0 -130 17.5t-85.5 50t-46.5 78t-14 101.5v40q0 54 14 99t45.5 78t82 51.5t124.5 18.5q117 0 176.5 -59t59.5 -163zM311 302
q28 0 28 28q0 27 -13 43.5t-41 16.5q-32 0 -44.5 -24.5t-14.5 -63.5h85zM125 611q-21 0 -21 20v70q0 20 21 20h312q21 0 21 -20v-70q0 -20 -21 -20h-312z" />
    <glyph glyph-name="Ebreve" unicode="&#x114;" horiz-adv-x="596" 
d="M286 436h209q21 0 21 -20v-126q0 -20 -21 -20h-209v-64q0 -28 8.5 -40t36.5 -12h197q17 0 17 -17v-113q0 -23 -23 -24q-66 -5 -134.5 -8.5t-137.5 -3.5q-50 0 -85 9.5t-57 29.5t-32 49.5t-10 70.5v406q0 81 42.5 120t141.5 39q68 0 132 -3t130 -9q23 -1 23 -24v-113
q0 -17 -17 -17h-187q-28 0 -36.5 -12t-8.5 -40v-58zM313 851q32 0 55.5 14.5t30.5 41.5q2 8 6.5 12.5t13.5 4.5h63q19 0 19 -18q0 -38 -14 -68t-39 -52t-59.5 -33.5t-75.5 -11.5t-75.5 11.5t-59.5 33.5t-39 52t-14 68q0 18 19 18h63q9 0 13.5 -4.5t6.5 -12.5
q7 -27 30.5 -41.5t55.5 -14.5z" />
    <glyph glyph-name="ebreve" unicode="&#x115;" horiz-adv-x="554" 
d="M528 304q0 -55 -31.5 -82t-99.5 -27h-166q9 -38 36.5 -53.5t82.5 -15.5q34 0 62 2t60 7q17 3 17 -14v-81q0 -20 -19 -26q-78 -22 -168 -22q-77 0 -130 17.5t-85.5 50t-46.5 78t-14 101.5v40q0 54 14 99t45.5 78t82 51.5t124.5 18.5q117 0 176.5 -59t59.5 -163zM311 302
q28 0 28 28q0 27 -13 43.5t-41 16.5q-32 0 -44.5 -24.5t-14.5 -63.5h85zM278 679q32 0 55.5 14.5t30.5 41.5q2 8 6.5 12.5t13.5 4.5h63q19 0 19 -18q0 -38 -14 -68t-39 -52t-59.5 -33.5t-75.5 -11.5t-75.5 11.5t-59.5 33.5t-39 52t-14 68q0 18 19 18h63q9 0 13.5 -4.5
t6.5 -12.5q7 -27 30.5 -41.5t55.5 -14.5z" />
    <glyph glyph-name="Edotaccent" unicode="&#x116;" horiz-adv-x="596" 
d="M286 436h209q21 0 21 -20v-126q0 -20 -21 -20h-209v-64q0 -28 8.5 -40t36.5 -12h197q17 0 17 -17v-113q0 -23 -23 -24q-66 -5 -134.5 -8.5t-137.5 -3.5q-50 0 -85 9.5t-57 29.5t-32 49.5t-10 70.5v406q0 81 42.5 120t141.5 39q68 0 132 -3t130 -9q23 -1 23 -24v-113
q0 -17 -17 -17h-187q-28 0 -36.5 -12t-8.5 -40v-58zM255 764q-20 0 -20 21v106q0 21 20 21h140q20 0 20 -21v-18q0 -13 -5.5 -37t-17.5 -51q-4 -8 -11.5 -14.5t-18.5 -6.5h-107z" />
    <glyph glyph-name="edotaccent" unicode="&#x117;" horiz-adv-x="554" 
d="M528 304q0 -55 -31.5 -82t-99.5 -27h-166q9 -38 36.5 -53.5t82.5 -15.5q34 0 62 2t60 7q17 3 17 -14v-81q0 -20 -19 -26q-78 -22 -168 -22q-77 0 -130 17.5t-85.5 50t-46.5 78t-14 101.5v40q0 54 14 99t45.5 78t82 51.5t124.5 18.5q117 0 176.5 -59t59.5 -163zM311 302
q28 0 28 28q0 27 -13 43.5t-41 16.5q-32 0 -44.5 -24.5t-14.5 -63.5h85zM189 590q-20 0 -20 21v106q0 21 20 21h140q20 0 20 -21v-18q0 -13 -5.5 -37t-17.5 -51q-4 -8 -11.5 -14.5t-18.5 -6.5h-107z" />
    <glyph glyph-name="Eogonek" unicode="&#x118;" horiz-adv-x="596" 
d="M286 436h209q21 0 21 -20v-126q0 -20 -21 -20h-209v-64q0 -28 8.5 -40t36.5 -12h197q17 0 17 -17v-113q0 -23 -23 -24q-5 0 -10 -0.5t-10 -0.5q-53 -53 -53 -106q0 -17 5.5 -26t21.5 -9q20 0 35 3q11 2 17 1t6 -11v-40q0 -10 -11 -18t-30 -14t-41 -6q-75 0 -106 27.5
t-31 78.5q0 30 15 58t43 54q-62 -3 -123 -3q-50 0 -85 9.5t-57 29.5t-32 49.5t-10 70.5v406q0 81 42.5 120t141.5 39q68 0 132 -3t130 -9q23 -1 23 -24v-113q0 -17 -17 -17h-187q-28 0 -36.5 -12t-8.5 -40v-58z" />
    <glyph glyph-name="eogonek" unicode="&#x119;" horiz-adv-x="554" 
d="M528 304q0 -55 -31.5 -82t-99.5 -27h-166q9 -38 36.5 -53.5t82.5 -15.5q34 0 62 2t60 7q17 3 17 -14v-81q0 -20 -19 -26q-35 -11 -70 -15q-54 -51 -54 -106q0 -17 5.5 -26t21.5 -9q20 0 35 3q11 2 17 1t6 -11v-40q0 -10 -11 -18t-30 -14t-41 -6q-75 0 -106 27.5t-31 78.5
q0 62 60 114q-69 3 -116 22t-76 51t-41.5 76t-12.5 97v40q0 54 14 99t45.5 78t82 51.5t124.5 18.5q117 0 176.5 -59t59.5 -163zM311 302q28 0 28 28q0 27 -13 43.5t-41 16.5q-32 0 -44.5 -24.5t-14.5 -63.5h85z" />
    <glyph glyph-name="Ecaron" unicode="&#x11a;" horiz-adv-x="596" 
d="M286 436h209q21 0 21 -20v-126q0 -20 -21 -20h-209v-64q0 -28 8.5 -40t36.5 -12h197q17 0 17 -17v-113q0 -23 -23 -24q-66 -5 -134.5 -8.5t-137.5 -3.5q-50 0 -85 9.5t-57 29.5t-32 49.5t-10 70.5v406q0 81 42.5 120t141.5 39q68 0 132 -3t130 -9q23 -1 23 -24v-113
q0 -17 -17 -17h-187q-28 0 -36.5 -12t-8.5 -40v-58zM442 932q12 8 23 -1l47 -36q11 -10 1 -22q-26 -33 -50 -57.5t-49 -44.5q-8 -7 -15 -9.5t-18 -2.5h-122q-11 0 -18 2.5t-15 9.5q-25 20 -49 44.5t-50 57.5q-10 12 1 22l47 36q11 9 23 1l122 -77z" />
    <glyph glyph-name="ecaron" unicode="&#x11b;" horiz-adv-x="554" 
d="M528 304q0 -55 -31.5 -82t-99.5 -27h-166q9 -38 36.5 -53.5t82.5 -15.5q34 0 62 2t60 7q17 3 17 -14v-81q0 -20 -19 -26q-78 -22 -168 -22q-77 0 -130 17.5t-85.5 50t-46.5 78t-14 101.5v40q0 54 14 99t45.5 78t82 51.5t124.5 18.5q117 0 176.5 -59t59.5 -163zM311 302
q28 0 28 28q0 27 -13 43.5t-41 16.5q-32 0 -44.5 -24.5t-14.5 -63.5h85zM398 758q12 8 23 -1l47 -36q11 -10 1 -22q-26 -33 -50 -57.5t-49 -44.5q-8 -7 -15 -9.5t-18 -2.5h-122q-11 0 -18 2.5t-15 9.5q-25 20 -49 44.5t-50 57.5q-10 12 1 22l47 36q11 9 23 1l122 -77z" />
    <glyph glyph-name="Gcircumflex" unicode="&#x11c;" horiz-adv-x="672" 
d="M266 336q0 -99 31.5 -141t106.5 -42q18 0 37 4v120h-65q-21 0 -21 20v104q0 20 21 20h222q18 0 18 -21v-330q0 -26 -9 -42t-32 -21q-52 -12 -101.5 -15.5t-114.5 -3.5q-84 0 -143.5 23t-97 67t-55 107t-17.5 144v42q0 93 20 158t60.5 105.5t102 59t144.5 18.5
q54 0 104.5 -6.5t95.5 -20.5q22 -7 22 -25v-103q0 -20 -18 -18q-40 3 -80.5 5t-78.5 2q-45 0 -74.5 -9.5t-46.5 -31t-24 -56t-7 -85.5v-28zM341 828l-122 -77q-12 -8 -23 1l-47 36q-11 10 -1 22q26 33 50 57.5t49 44.5q8 7 15 9.5t18 2.5h122q11 0 18 -2.5t15 -9.5
q25 -20 49 -44.5t50 -57.5q10 -12 -1 -22l-47 -36q-11 -9 -23 -1z" />
    <glyph glyph-name="gcircumflex" unicode="&#x11d;" horiz-adv-x="599" 
d="M337 369q-20 3 -37 3q-21 0 -34 -8.5t-20.5 -23.5t-10.5 -34.5t-3 -40.5v-15q0 -45 17 -67t55 -22h16t17 2v206zM543 2q0 -47 -14 -84.5t-45.5 -63.5t-83 -40t-127.5 -14q-45 0 -89.5 7t-78.5 19q-19 6 -19 23v100q0 17 17 14q60 -9 127 -9q56 0 81.5 12.5t25.5 43.5v10
q-9 -3 -21.5 -5.5t-26 -4t-26.5 -2.5t-23 -1q-53 0 -93 17t-67 48t-40.5 74.5t-13.5 97.5v27q0 120 71 187.5t209 67.5q51 0 107.5 -6t99.5 -17q30 -8 30 -48v-453zM304 654l-122 -77q-12 -8 -23 1l-47 36q-11 10 -1 22q26 33 50 57.5t49 44.5q8 7 15 9.5t18 2.5h122
q11 0 18 -2.5t15 -9.5q25 -20 49 -44.5t50 -57.5q10 -12 -1 -22l-47 -36q-11 -9 -23 -1z" />
    <glyph glyph-name="Gbreve" unicode="&#x11e;" horiz-adv-x="672" 
d="M266 336q0 -99 31.5 -141t106.5 -42q18 0 37 4v120h-65q-21 0 -21 20v104q0 20 21 20h222q18 0 18 -21v-330q0 -26 -9 -42t-32 -21q-52 -12 -101.5 -15.5t-114.5 -3.5q-84 0 -143.5 23t-97 67t-55 107t-17.5 144v42q0 93 20 158t60.5 105.5t102 59t144.5 18.5
q54 0 104.5 -6.5t95.5 -20.5q22 -7 22 -25v-103q0 -20 -18 -18q-40 3 -80.5 5t-78.5 2q-45 0 -74.5 -9.5t-46.5 -31t-24 -56t-7 -85.5v-28zM351 851q32 0 55.5 14.5t30.5 41.5q2 8 6.5 12.5t13.5 4.5h63q19 0 19 -18q0 -38 -14 -68t-39 -52t-59.5 -33.5t-75.5 -11.5
t-75.5 11.5t-59.5 33.5t-39 52t-14 68q0 18 19 18h63q9 0 13.5 -4.5t6.5 -12.5q7 -27 30.5 -41.5t55.5 -14.5z" />
    <glyph glyph-name="gbreve" unicode="&#x11f;" horiz-adv-x="599" 
d="M337 369q-20 3 -37 3q-21 0 -34 -8.5t-20.5 -23.5t-10.5 -34.5t-3 -40.5v-15q0 -45 17 -67t55 -22h16t17 2v206zM543 2q0 -47 -14 -84.5t-45.5 -63.5t-83 -40t-127.5 -14q-45 0 -89.5 7t-78.5 19q-19 6 -19 23v100q0 17 17 14q60 -9 127 -9q56 0 81.5 12.5t25.5 43.5v10
q-9 -3 -21.5 -5.5t-26 -4t-26.5 -2.5t-23 -1q-53 0 -93 17t-67 48t-40.5 74.5t-13.5 97.5v27q0 120 71 187.5t209 67.5q51 0 107.5 -6t99.5 -17q30 -8 30 -48v-453zM304 679q32 0 55.5 14.5t30.5 41.5q2 8 6.5 12.5t13.5 4.5h63q19 0 19 -18q0 -38 -14 -68t-39 -52
t-59.5 -33.5t-75.5 -11.5t-75.5 11.5t-59.5 33.5t-39 52t-14 68q0 18 19 18h63q9 0 13.5 -4.5t6.5 -12.5q7 -27 30.5 -41.5t55.5 -14.5z" />
    <glyph glyph-name="Gdotaccent" unicode="&#x120;" horiz-adv-x="672" 
d="M266 336q0 -99 31.5 -141t106.5 -42q18 0 37 4v120h-65q-21 0 -21 20v104q0 20 21 20h222q18 0 18 -21v-330q0 -26 -9 -42t-32 -21q-52 -12 -101.5 -15.5t-114.5 -3.5q-84 0 -143.5 23t-97 67t-55 107t-17.5 144v42q0 93 20 158t60.5 105.5t102 59t144.5 18.5
q54 0 104.5 -6.5t95.5 -20.5q22 -7 22 -25v-103q0 -20 -18 -18q-40 3 -80.5 5t-78.5 2q-45 0 -74.5 -9.5t-46.5 -31t-24 -56t-7 -85.5v-28zM276 764q-20 0 -20 21v106q0 21 20 21h140q20 0 20 -21v-18q0 -13 -5.5 -37t-17.5 -51q-4 -8 -11.5 -14.5t-18.5 -6.5h-107z" />
    <glyph glyph-name="gdotaccent" unicode="&#x121;" horiz-adv-x="599" 
d="M337 369q-20 3 -37 3q-21 0 -34 -8.5t-20.5 -23.5t-10.5 -34.5t-3 -40.5v-15q0 -45 17 -67t55 -22h16t17 2v206zM543 2q0 -47 -14 -84.5t-45.5 -63.5t-83 -40t-127.5 -14q-45 0 -89.5 7t-78.5 19q-19 6 -19 23v100q0 17 17 14q60 -9 127 -9q56 0 81.5 12.5t25.5 43.5v10
q-9 -3 -21.5 -5.5t-26 -4t-26.5 -2.5t-23 -1q-53 0 -93 17t-67 48t-40.5 74.5t-13.5 97.5v27q0 120 71 187.5t209 67.5q51 0 107.5 -6t99.5 -17q30 -8 30 -48v-453zM244 590q-20 0 -20 21v106q0 21 20 21h140q20 0 20 -21v-18q0 -13 -5.5 -37t-17.5 -51q-4 -8 -11.5 -14.5
t-18.5 -6.5h-107z" />
    <glyph glyph-name="Gcommaaccent" unicode="&#x122;" horiz-adv-x="672" 
d="M266 336q0 -99 31.5 -141t106.5 -42q18 0 37 4v120h-65q-21 0 -21 20v104q0 20 21 20h222q18 0 18 -21v-330q0 -26 -9 -42t-32 -21q-52 -12 -101.5 -15.5t-114.5 -3.5q-84 0 -143.5 23t-97 67t-55 107t-17.5 144v42q0 93 20 158t60.5 105.5t102 59t144.5 18.5
q54 0 104.5 -6.5t95.5 -20.5q22 -7 22 -25v-103q0 -20 -18 -18q-40 3 -80.5 5t-78.5 2q-45 0 -74.5 -9.5t-46.5 -31t-24 -56t-7 -85.5v-28zM262 -269q-12 5 -4 18q17 27 23 46.5t6 33.5q0 8 -1 18.5t-4 18.5q-5 16 -7.5 33t-2.5 31v10q0 9 3.5 13.5t14.5 4.5h146
q18 0 18 -18v-14q0 -59 -21 -114t-75 -106q-10 -8 -24 -2z" />
    <glyph glyph-name="gcommaaccent" unicode="&#x123;" horiz-adv-x="599" 
d="M337 369q-20 3 -37 3q-21 0 -34 -8.5t-20.5 -23.5t-10.5 -34.5t-3 -40.5v-15q0 -45 17 -67t55 -22h16t17 2v206zM543 2q0 -47 -14 -84.5t-45.5 -63.5t-83 -40t-127.5 -14q-45 0 -89.5 7t-78.5 19q-19 6 -19 23v100q0 17 17 14q60 -9 127 -9q56 0 81.5 12.5t25.5 43.5v10
q-9 -3 -21.5 -5.5t-26 -4t-26.5 -2.5t-23 -1q-53 0 -93 17t-67 48t-40.5 74.5t-13.5 97.5v27q0 120 71 187.5t209 67.5q51 0 107.5 -6t99.5 -17q30 -8 30 -48v-453zM405 806q12 -5 4 -18q-17 -27 -23 -46.5t-6 -33.5q0 -8 1 -18.5t4 -18.5q5 -16 7.5 -33t2.5 -31v-10
q0 -9 -3.5 -13.5t-14.5 -4.5h-146q-18 0 -18 18v14q0 59 21 114t75 106q10 8 24 2z" />
    <glyph glyph-name="Hcircumflex" unicode="&#x124;" horiz-adv-x="693" 
d="M407 277h-121v-260q0 -17 -17 -17h-186q-17 0 -17 17v666q0 17 17 17h186q17 0 17 -17v-240h121v240q0 17 17 17h186q17 0 17 -17v-666q0 -17 -17 -17h-186q-17 0 -17 17v260zM346 828l-122 -77q-12 -8 -23 1l-47 36q-11 10 -1 22q26 33 50 57.5t49 44.5q8 7 15 9.5
t18 2.5h122q11 0 18 -2.5t15 -9.5q25 -20 49 -44.5t50 -57.5q10 -12 -1 -22l-47 -36q-11 -9 -23 -1z" />
    <glyph glyph-name="hcircumflex" unicode="&#x125;" horiz-adv-x="612" 
d="M561 302q0 119 -43 171.5t-131 52.5q-70 0 -125 -15v198q0 21 -20 21h-166q-20 0 -20 -21v-688q0 -21 20 -21h166q20 0 20 21v348q9 2 19.5 2.5t18.5 0.5q32 0 43.5 -16t11.5 -51v-284q0 -21 20 -21h166q20 0 20 21v281zM250 828l-122 -77q-12 -8 -23 1l-47 36
q-11 10 -1 22q26 33 50 57.5t49 44.5q8 7 15 9.5t18 2.5h122q11 0 18 -2.5t15 -9.5q25 -20 49 -44.5t50 -57.5q10 -12 -1 -22l-47 -36q-11 -9 -23 -1z" />
    <glyph glyph-name="Hbar" unicode="&#x126;" horiz-adv-x="723" 
d="M422 277h-121v-260q0 -17 -17 -17h-186q-17 0 -17 17v510h-39q-21 0 -21 20v44q0 20 21 20h39v72q0 17 17 17h186q17 0 17 -17v-72h121v72q0 17 17 17h186q17 0 17 -17v-72h39q21 0 21 -20v-44q0 -20 -21 -20h-39v-510q0 -17 -17 -17h-186q-17 0 -17 17v260zM301 443h121
v84h-121v-84z" />
    <glyph glyph-name="hbar" unicode="&#x127;" horiz-adv-x="633" 
d="M582 21q0 -21 -20 -21h-166q-20 0 -20 21v279q0 36 -10 54t-45 18q-8 0 -19 -0.5t-19 -1.5v-349q0 -21 -20 -21h-166q-20 0 -20 21v562h-50q-21 0 -21 20v44q0 20 21 20h50v42q0 21 20 21h166q20 0 20 -21v-42h143q21 0 21 -20v-44q0 -20 -21 -20h-143v-72q26 8 56 11.5
t69 3.5q88 0 131 -52.5t43 -171.5v-281z" />
    <glyph glyph-name="Itilde" unicode="&#x128;" horiz-adv-x="372" 
d="M296 21q0 -21 -20 -21h-180q-20 0 -20 21v658q0 21 20 21h180q20 0 20 -21v-658zM205 892q10 -6 18 -11.5t18 -5.5q20 0 20 20v10q0 9 3 12.5t13 3.5h74q11 0 16 -6t9 -15q5 -11 6 -22t1 -22q0 -51 -32 -73.5t-80 -22.5q-33 0 -55.5 7t-48.5 24q-10 6 -18 11.5t-18 5.5
q-20 0 -20 -20v-10q0 -9 -3 -12.5t-13 -3.5h-74q-11 0 -16 6t-9 15q-5 11 -6 22t-1 22q0 51 32 73.5t80 22.5q33 0 55.5 -7t48.5 -24z" />
    <glyph glyph-name="itilde" unicode="&#x129;" horiz-adv-x="338" 
d="M66 497q0 21 20 21h166q20 0 20 -21v-476q0 -21 -20 -21h-166q-20 0 -20 21v476zM188 718q10 -6 18 -11.5t18 -5.5q20 0 20 20v10q0 9 3 12.5t13 3.5h74q11 0 16 -6t9 -15q5 -11 6 -22t1 -22q0 -51 -32 -73.5t-80 -22.5q-33 0 -55.5 7t-48.5 24q-10 6 -18 11.5t-18 5.5
q-20 0 -20 -20v-10q0 -9 -3 -12.5t-13 -3.5h-74q-11 0 -16 6t-9 15q-5 11 -6 22t-1 22q0 51 32 73.5t80 22.5q33 0 55.5 -7t48.5 -24z" />
    <glyph glyph-name="Imacron" unicode="&#x12a;" horiz-adv-x="372" 
d="M296 21q0 -21 -20 -21h-180q-20 0 -20 21v658q0 21 20 21h180q20 0 20 -21v-658zM30 785q-21 0 -21 20v70q0 20 21 20h312q21 0 21 -20v-70q0 -20 -21 -20h-312z" />
    <glyph glyph-name="imacron" unicode="&#x12b;" horiz-adv-x="338" 
d="M66 497q0 21 20 21h166q20 0 20 -21v-476q0 -21 -20 -21h-166q-20 0 -20 21v476zM13 611q-21 0 -21 20v70q0 20 21 20h312q21 0 21 -20v-70q0 -20 -21 -20h-312z" />
    <glyph glyph-name="Ibreve" unicode="&#x12c;" horiz-adv-x="372" 
d="M296 21q0 -21 -20 -21h-180q-20 0 -20 21v658q0 21 20 21h180q20 0 20 -21v-658zM186 851q32 0 55.5 14.5t30.5 41.5q2 8 6.5 12.5t13.5 4.5h63q19 0 19 -18q0 -38 -14 -68t-39 -52t-59.5 -33.5t-75.5 -11.5t-75.5 11.5t-59.5 33.5t-39 52t-14 68q0 18 19 18h63
q9 0 13.5 -4.5t6.5 -12.5q7 -27 30.5 -41.5t55.5 -14.5z" />
    <glyph glyph-name="ibreve" unicode="&#x12d;" horiz-adv-x="338" 
d="M66 497q0 21 20 21h166q20 0 20 -21v-476q0 -21 -20 -21h-166q-20 0 -20 21v476zM169 679q32 0 55.5 14.5t30.5 41.5q2 8 6.5 12.5t13.5 4.5h63q19 0 19 -18q0 -38 -14 -68t-39 -52t-59.5 -33.5t-75.5 -11.5t-75.5 11.5t-59.5 33.5t-39 52t-14 68q0 18 19 18h63
q9 0 13.5 -4.5t6.5 -12.5q7 -27 30.5 -41.5t55.5 -14.5z" />
    <glyph glyph-name="Iogonek" unicode="&#x12e;" horiz-adv-x="372" 
d="M296 21q0 -21 -20 -21h-29q-55 -52 -55 -107q0 -17 5.5 -26t21.5 -9q20 0 35 3q11 2 17 1t6 -11v-40q0 -10 -11 -18t-30 -14t-41 -6q-75 0 -106 27.5t-31 78.5q0 33 18 63.5t51 57.5h-31q-20 0 -20 21v658q0 21 20 21h180q20 0 20 -21v-658z" />
    <glyph glyph-name="iogonek" unicode="&#x12f;" horiz-adv-x="338" 
d="M66 497q0 21 20 21h166q20 0 20 -21v-476q0 -21 -20 -21h-22q-55 -52 -55 -107q0 -17 5.5 -26t21.5 -9q20 0 35 3q11 2 17 1t6 -11v-40q0 -10 -11 -18t-30 -14t-41 -6q-75 0 -106 27.5t-31 78.5q0 33 18 63.5t51 57.5h-24q-20 0 -20 21v476zM86 567q-20 0 -20 21v106
q0 21 20 21h170q20 0 20 -21v-18q0 -13 -5.5 -37t-17.5 -51q-4 -8 -11.5 -14.5t-18.5 -6.5h-137z" />
    <glyph glyph-name="Idotaccent" unicode="&#x130;" horiz-adv-x="372" 
d="M296 21q0 -21 -20 -21h-180q-20 0 -20 21v658q0 21 20 21h180q20 0 20 -21v-658zM116 764q-20 0 -20 21v106q0 21 20 21h140q20 0 20 -21v-18q0 -13 -5.5 -37t-17.5 -51q-4 -8 -11.5 -14.5t-18.5 -6.5h-107z" />
    <glyph glyph-name="dotlessi" unicode="&#x131;" horiz-adv-x="338" 
d="M66 497q0 21 20 21h166q20 0 20 -21v-476q0 -21 -20 -21h-166q-20 0 -20 21v476z" />
    <glyph glyph-name="IJ" unicode="&#x132;" horiz-adv-x="793" 
d="M296 21q0 -21 -20 -21h-180q-20 0 -20 21v658q0 21 20 21h180q20 0 20 -21v-658zM727 683q0 17 -17 17h-186q-17 0 -17 -17v-454q0 -36 -10.5 -55.5t-48.5 -19.5q-25 0 -54.5 2t-55.5 6q-19 3 -19 -14v-104q0 -22 21 -29q19 -6 43 -11t50 -8.5t53 -5.5t53 -2
q58 0 94.5 17t57.5 47.5t28.5 72.5t7.5 91v467z" />
    <glyph glyph-name="ij" unicode="&#x133;" horiz-adv-x="723" 
d="M66 497q0 21 20 21h166q20 0 20 -21v-476q0 -21 -20 -21h-166q-20 0 -20 21v476zM86 567q-20 0 -20 21v106q0 21 20 21h170q20 0 20 -21v-18q0 -13 -5.5 -37t-17.5 -51q-4 -8 -11.5 -14.5t-18.5 -6.5h-137zM657 -4q0 -45 -11 -81.5t-36.5 -62t-67.5 -39t-104 -13.5
q-72 0 -132 19q-19 6 -19 23v102q0 16 17 14q20 -2 40 -3t40 -1q43 0 55 17.5t12 50.5v475q0 21 20 21h166q20 0 20 -21v-501zM471 567q-20 0 -20 21v106q0 21 20 21h170q20 0 20 -21v-18q0 -13 -5.5 -37t-17.5 -51q-4 -8 -11.5 -14.5t-18.5 -6.5h-137z" />
    <glyph glyph-name="Jcircumflex" unicode="&#x134;" horiz-adv-x="475" 
d="M409 683q0 17 -17 17h-186q-17 0 -17 -17v-454q0 -36 -10.5 -55.5t-48.5 -19.5q-25 0 -54.5 2t-55.5 6q-19 3 -19 -14v-104q0 -22 21 -29q19 -6 43 -11t50 -8.5t53 -5.5t53 -2q58 0 94.5 17t57.5 47.5t28.5 72.5t7.5 91v467zM296 828l-122 -77q-12 -8 -23 1l-47 36
q-11 10 -1 22q26 33 50 57.5t49 44.5q8 7 15 9.5t18 2.5h122q11 0 18 -2.5t15 -9.5q25 -20 49 -44.5t50 -57.5q10 -12 -1 -22l-47 -36q-11 -9 -23 -1z" />
    <glyph glyph-name="jcircumflex" unicode="&#x135;" horiz-adv-x="392" 
d="M223 654l-122 -77q-12 -8 -23 1l-47 36q-11 10 -1 22q26 33 50 57.5t49 44.5q8 7 15 9.5t18 2.5h122q11 0 18 -2.5t15 -9.5q25 -20 49 -44.5t50 -57.5q10 -12 -1 -22l-47 -36q-11 -9 -23 -1zM326 -4q0 -45 -11 -81.5t-36.5 -62t-67.5 -39t-104 -13.5q-72 0 -132 19
q-19 6 -19 23v102q0 16 17 14q20 -2 40 -3t40 -1q43 0 55 17.5t12 50.5v475q0 21 20 21h166q20 0 20 -21v-501z" />
    <glyph glyph-name="Kcommaaccent" unicode="&#x136;" horiz-adv-x="648" 
d="M462 363l182 -340q4 -7 2 -15t-14 -8h-187q-14 0 -22 5.5t-13 16.5l-124 274v-275q0 -21 -20 -21h-180q-20 0 -20 21v658q0 21 20 21h180q20 0 20 -21v-249l114 248q5 11 12 16.5t22 5.5h173q12 0 14 -7.5t-2 -15.5zM266 -269q-12 5 -4 18q17 27 23 46.5t6 33.5
q0 8 -1 18.5t-4 18.5q-5 16 -7.5 33t-2.5 31v10q0 9 3.5 13.5t14.5 4.5h146q18 0 18 -18v-14q0 -59 -21 -114t-75 -106q-10 -8 -24 -2z" />
    <glyph glyph-name="kcommaaccent" unicode="&#x137;" horiz-adv-x="585" 
d="M437 273l143 -246q5 -10 4 -18.5t-12 -8.5h-193q-9 0 -14 4t-9 12l-94 192v-187q0 -21 -20 -21h-166q-20 0 -20 21v688q0 21 20 21h166q20 0 20 -21v-377l95 173q7 13 24 13h168q11 0 14 -6.5t-2 -14.5zM216 -269q-12 5 -4 18q17 27 23 46.5t6 33.5q0 8 -1 18.5t-4 18.5
q-5 16 -7.5 33t-2.5 31v10q0 9 3.5 13.5t14.5 4.5h146q18 0 18 -18v-14q0 -59 -21 -114t-75 -106q-10 -8 -24 -2z" />
    <glyph glyph-name="kgreenlandic" unicode="&#x138;" horiz-adv-x="585" 
d="M437 273l143 -246q5 -10 4 -18.5t-12 -8.5h-193q-9 0 -14 4t-9 12l-94 192v-187q0 -21 -20 -21h-166q-20 0 -20 21v476q0 21 20 21h166q20 0 20 -21v-165l95 173q7 13 24 13h168q11 0 14 -6.5t-2 -14.5z" />
    <glyph glyph-name="Lacute" unicode="&#x139;" horiz-adv-x="556" 
d="M286 206q0 -28 8.5 -40t36.5 -12h207q17 0 17 -17v-113q0 -23 -23 -24q-66 -5 -139.5 -8.5t-142.5 -3.5q-50 0 -85 9.5t-57 29.5t-32 49.5t-10 70.5v536q0 17 17 17h186q17 0 17 -17v-477zM179 927q6 5 13.5 7t15.5 -3l82 -61q15 -11 1 -25q-28 -28 -61.5 -50t-79.5 -43
q-17 -8 -29 1l-59 44q-11 9 -2 18z" />
    <glyph glyph-name="lacute" unicode="&#x13a;" horiz-adv-x="397" 
d="M66 188q0 -91 48 -143.5t153 -52.5q26 0 56 4.5t57 12.5q19 6 19 23v108q0 17 -17 14q-12 -2 -22 -3t-21 -1q-43 0 -55 17.5t-12 50.5v491q0 21 -20 21h-166q-20 0 -20 -21v-521zM211 927q6 5 13.5 7t15.5 -3l82 -61q15 -11 1 -25q-28 -28 -61.5 -50t-79.5 -43
q-17 -8 -29 1l-59 44q-11 9 -2 18z" />
    <glyph glyph-name="Lcommaaccent" unicode="&#x13b;" horiz-adv-x="556" 
d="M286 206q0 -28 8.5 -40t36.5 -12h207q17 0 17 -17v-113q0 -23 -23 -24q-66 -5 -139.5 -8.5t-142.5 -3.5q-50 0 -85 9.5t-57 29.5t-32 49.5t-10 70.5v536q0 17 17 17h186q17 0 17 -17v-477zM220 -269q-12 5 -4 18q17 27 23 46.5t6 33.5q0 8 -1 18.5t-4 18.5q-5 16 -7.5 33
t-2.5 31v10q0 9 3.5 13.5t14.5 4.5h146q18 0 18 -18v-14q0 -59 -21 -114t-75 -106q-10 -8 -24 -2z" />
    <glyph glyph-name="lcommaaccent" unicode="&#x13c;" horiz-adv-x="397" 
d="M66 709q0 21 20 21h166q20 0 20 -21v-491q0 -33 12 -50.5t55 -17.5q11 0 21 1t22 3q17 3 17 -14v-108q0 -17 -19 -23q-27 -8 -57 -12.5t-56 -4.5q-105 0 -153 52.5t-48 143.5v521zM132 -269q-12 5 -4 18q17 27 23 46.5t6 33.5q0 8 -1 18.5t-4 18.5q-5 16 -7.5 33t-2.5 31
v10q0 9 3.5 13.5t14.5 4.5h146q18 0 18 -18v-14q0 -59 -21 -114t-75 -106q-10 -8 -24 -2z" />
    <glyph glyph-name="Lcaron" unicode="&#x13d;" horiz-adv-x="556" 
d="M286 206q0 -28 8.5 -40t36.5 -12h207q17 0 17 -17v-113q0 -23 -23 -24q-66 -5 -139.5 -8.5t-142.5 -3.5q-50 0 -85 9.5t-57 29.5t-32 49.5t-10 70.5v536q0 17 17 17h186q17 0 17 -17v-477zM373 484q-12 7 -4 18q15 21 25 44.5t10 47.5q0 8 -2 17.5t-4 17.5
q-7 22 -9.5 40.5t-2.5 34.5v15q0 9 3.5 13.5t14.5 4.5h125q18 0 18 -18v-19q0 -47 -19.5 -110.5t-72.5 -128.5q-4 -5 -11.5 -6.5t-15.5 2.5z" />
    <glyph glyph-name="lcaron" unicode="&#x13e;" horiz-adv-x="512" 
d="M66 188q0 -91 48 -143.5t153 -52.5q26 0 56 4.5t57 12.5q19 6 19 23v108q0 17 -17 14q-12 -2 -22 -3t-21 -1q-43 0 -55 17.5t-12 50.5v491q0 21 -20 21h-166q-20 0 -20 -21v-521zM322 484q-12 7 -4 18q15 21 25 44.5t10 47.5q0 8 -2 17.5t-4 17.5q-7 22 -9.5 40.5
t-2.5 34.5v15q0 9 3.5 13.5t14.5 4.5h125q18 0 18 -18v-19q0 -47 -19.5 -110.5t-72.5 -128.5q-4 -5 -11.5 -6.5t-15.5 2.5z" />
    <glyph glyph-name="Ldot" unicode="&#x13f;" horiz-adv-x="556" 
d="M286 206q0 -28 8.5 -40t36.5 -12h207q17 0 17 -17v-113q0 -23 -23 -24q-66 -5 -139.5 -8.5t-142.5 -3.5q-50 0 -85 9.5t-57 29.5t-32 49.5t-10 70.5v536q0 17 17 17h186q17 0 17 -17v-477zM387 300q-20 0 -20 21v106q0 21 20 21h140q20 0 20 -21v-18q0 -13 -5.5 -37
t-17.5 -51q-4 -8 -11.5 -14.5t-18.5 -6.5h-107z" />
    <glyph glyph-name="ldot" unicode="&#x140;" horiz-adv-x="512" 
d="M66 709q0 21 20 21h166q20 0 20 -21v-491q0 -33 12 -50.5t55 -17.5q11 0 21 1t22 3q17 3 17 -14v-108q0 -17 -19 -23q-27 -8 -57 -12.5t-56 -4.5q-105 0 -153 52.5t-48 143.5v521zM336 300q-20 0 -20 21v106q0 21 20 21h140q20 0 20 -21v-18q0 -13 -5.5 -37t-17.5 -51
q-4 -8 -11.5 -14.5t-18.5 -6.5h-107z" />
    <glyph glyph-name="Lslash" unicode="&#x141;" horiz-adv-x="576" 
d="M106 683q0 17 17 17h186q17 0 17 -17v-199l141 93q17 13 28 -5l24 -37q6 -10 4.5 -16t-10.5 -12l-187 -124v-185q0 -28 8.5 -40t36.5 -12h187q17 0 17 -17v-109q0 -23 -23 -24q-31 -3 -68 -4.5t-73.5 -2t-70.5 -1t-60 -0.5q-90 0 -132 36.5t-42 117.5v96l-60 -39
q-17 -11 -28 5l-25 37q-6 10 -4 16t11 12l106 70v344z" />
    <glyph glyph-name="lslash" unicode="&#x142;" horiz-adv-x="433" 
d="M49 219q-17 -11 -28 5l-25 37q-6 10 -4 16t11 12l96 64v356q0 21 20 21h166q20 0 20 -21v-219l79 53q17 13 28 -5l24 -37q6 -10 4.5 -16t-10.5 -12l-125 -84v-171q0 -33 12 -50.5t55 -17.5q11 0 21 1t22 3q17 3 17 -14v-113q0 -18 -19 -23q-32 -7 -62.5 -9.5t-50.5 -2.5
q-105 0 -153 52.5t-48 143.5v64z" />
    <glyph glyph-name="Nacute" unicode="&#x143;" horiz-adv-x="738" 
d="M467 288v395q0 17 17 17h171q17 0 17 -17v-666q0 -17 -17 -17h-215q-23 0 -33 5.5t-15 20.5l-121 386v-395q0 -17 -17 -17h-171q-17 0 -17 17v666q0 17 17 17h215q23 0 33 -5.5t15 -20.5zM371 927q6 5 13.5 7t15.5 -3l82 -61q15 -11 1 -25q-28 -28 -61.5 -50t-79.5 -43
q-17 -8 -29 1l-59 44q-11 9 -2 18z" />
    <glyph glyph-name="nacute" unicode="&#x144;" horiz-adv-x="612" 
d="M561 21q0 -21 -20 -21h-166q-20 0 -20 21v284q0 33 -10.5 50t-41.5 17q-23 0 -41 -3v-348q0 -21 -20 -21h-166q-20 0 -20 21v434q0 40 30 48q21 6 49 10t57.5 7t59 4.5t55.5 1.5q68 0 116 -11.5t79 -38t45 -69.5t14 -105v-281zM300 753q6 5 13.5 7t15.5 -3l82 -61
q15 -11 1 -25q-28 -28 -61.5 -50t-79.5 -43q-17 -8 -29 1l-59 44q-11 9 -2 18z" />
    <glyph glyph-name="Ncommaaccent" unicode="&#x145;" horiz-adv-x="738" 
d="M467 288v395q0 17 17 17h171q17 0 17 -17v-666q0 -17 -17 -17h-215q-23 0 -33 5.5t-15 20.5l-121 386v-395q0 -17 -17 -17h-171q-17 0 -17 17v666q0 17 17 17h215q23 0 33 -5.5t15 -20.5zM278 -269q-12 5 -4 18q17 27 23 46.5t6 33.5q0 8 -1 18.5t-4 18.5q-5 16 -7.5 33
t-2.5 31v10q0 9 3.5 13.5t14.5 4.5h146q18 0 18 -18v-14q0 -59 -21 -114t-75 -106q-10 -8 -24 -2z" />
    <glyph glyph-name="ncommaaccent" unicode="&#x146;" horiz-adv-x="612" 
d="M561 21q0 -21 -20 -21h-166q-20 0 -20 21v284q0 33 -10.5 50t-41.5 17q-23 0 -41 -3v-348q0 -21 -20 -21h-166q-20 0 -20 21v434q0 40 30 48q21 6 49 10t57.5 7t59 4.5t55.5 1.5q68 0 116 -11.5t79 -38t45 -69.5t14 -105v-281zM217 -269q-12 5 -4 18q17 27 23 46.5
t6 33.5q0 8 -1 18.5t-4 18.5q-5 16 -7.5 33t-2.5 31v10q0 9 3.5 13.5t14.5 4.5h146q18 0 18 -18v-14q0 -59 -21 -114t-75 -106q-10 -8 -24 -2z" />
    <glyph glyph-name="Ncaron" unicode="&#x147;" horiz-adv-x="738" 
d="M467 288v395q0 17 17 17h171q17 0 17 -17v-666q0 -17 -17 -17h-215q-23 0 -33 5.5t-15 20.5l-121 386v-395q0 -17 -17 -17h-171q-17 0 -17 17v666q0 17 17 17h215q23 0 33 -5.5t15 -20.5zM490 932q12 8 23 -1l47 -36q11 -10 1 -22q-26 -33 -50 -57.5t-49 -44.5
q-8 -7 -15 -9.5t-18 -2.5h-122q-11 0 -18 2.5t-15 9.5q-25 20 -49 44.5t-50 57.5q-10 12 1 22l47 36q11 9 23 1l122 -77z" />
    <glyph glyph-name="ncaron" unicode="&#x148;" horiz-adv-x="612" 
d="M561 21q0 -21 -20 -21h-166q-20 0 -20 21v284q0 33 -10.5 50t-41.5 17q-23 0 -41 -3v-348q0 -21 -20 -21h-166q-20 0 -20 21v434q0 40 30 48q21 6 49 10t57.5 7t59 4.5t55.5 1.5q68 0 116 -11.5t79 -38t45 -69.5t14 -105v-281zM410 758q12 8 23 -1l47 -36q11 -10 1 -22
q-26 -33 -50 -57.5t-49 -44.5q-8 -7 -15 -9.5t-18 -2.5h-122q-11 0 -18 2.5t-15 9.5q-25 20 -49 44.5t-50 57.5q-10 12 1 22l47 36q11 9 23 1l122 -77z" />
    <glyph glyph-name="napostrophe" unicode="&#x149;" horiz-adv-x="712" 
d="M661 21q0 -21 -20 -21h-166q-20 0 -20 21v284q0 33 -10.5 50t-41.5 17q-23 0 -41 -3v-348q0 -21 -20 -21h-166q-20 0 -20 21v434q0 40 30 48q21 6 49 10t57.5 7t59 4.5t55.5 1.5q68 0 116 -11.5t79 -38t45 -69.5t14 -105v-281zM24 484q-12 7 -4 18q15 21 25 44.5t10 47.5
q0 8 -2 17.5t-4 17.5q-7 22 -9.5 40.5t-2.5 34.5v15q0 9 3.5 13.5t14.5 4.5h125q18 0 18 -18v-19q0 -47 -19.5 -110.5t-72.5 -128.5q-4 -5 -11.5 -6.5t-15.5 2.5z" />
    <glyph glyph-name="Eng" unicode="&#x14a;" horiz-adv-x="738" 
d="M467 399v284q0 17 17 17h171q17 0 17 -17v-672q0 -44 -10.5 -82t-35.5 -67t-66 -45.5t-101 -16.5q-36 0 -71 6t-62 18q-19 8 -19 23v97q0 16 17 14q20 -2 37.5 -3t37.5 -1q29 0 47.5 9t20.5 34l-196 430v-410q0 -17 -17 -17h-171q-17 0 -17 17v666q0 17 17 17h215
q23 0 32 -6t16 -20z" />
    <glyph glyph-name="eng" unicode="&#x14b;" horiz-adv-x="612" 
d="M561 6q0 -42 -11.5 -79t-37.5 -65.5t-67 -45t-101 -16.5q-35 0 -68 5t-61 14q-19 6 -19 23v92q0 16 17 14q20 -2 34 -3t34 -1q40 0 57 11t17 40v306q0 42 -12 56.5t-45 14.5q-7 0 -16.5 -0.5t-19.5 -1.5v-349q0 -21 -20 -21h-166q-20 0 -20 21v434q0 40 30 48q21 6 49 10
t57.5 7t59 4.5t55.5 1.5q68 0 116 -11.5t79 -38t45 -69.5t14 -105v-296z" />
    <glyph glyph-name="Omacron" unicode="&#x14c;" horiz-adv-x="700" 
d="M350 -12q-80 0 -137.5 21.5t-94.5 64t-54.5 106t-17.5 147.5v46q0 84 17.5 147.5t54.5 106t94.5 64t137.5 21.5q160 0 232 -85t72 -254v-46q0 -169 -72 -254t-232 -85zM434 368q0 48 -3 82t-12 55.5t-25.5 31t-43.5 9.5t-43.5 -9.5t-25.5 -31t-12 -55.5t-3 -82v-36
q0 -48 3 -82t12 -55.5t25.5 -31t43.5 -9.5t43.5 9.5t25.5 31t12 55.5t3 82v36zM194 785q-21 0 -21 20v70q0 20 21 20h312q21 0 21 -20v-70q0 -20 -21 -20h-312z" />
    <glyph glyph-name="omacron" unicode="&#x14d;" horiz-adv-x="568" 
d="M26 279q0 124 66 185.5t192 61.5t192 -61.5t66 -185.5v-40q0 -124 -66 -185.5t-192 -61.5t-192 61.5t-66 185.5v40zM336 277q0 53 -10 74t-42 21t-42 -21t-10 -74v-36q0 -54 10 -74.5t42 -20.5t42 20.5t10 74.5v36zM128 611q-21 0 -21 20v70q0 20 21 20h312q21 0 21 -20
v-70q0 -20 -21 -20h-312z" />
    <glyph glyph-name="Obreve" unicode="&#x14e;" horiz-adv-x="700" 
d="M350 -12q-80 0 -137.5 21.5t-94.5 64t-54.5 106t-17.5 147.5v46q0 84 17.5 147.5t54.5 106t94.5 64t137.5 21.5q160 0 232 -85t72 -254v-46q0 -169 -72 -254t-232 -85zM434 368q0 48 -3 82t-12 55.5t-25.5 31t-43.5 9.5t-43.5 -9.5t-25.5 -31t-12 -55.5t-3 -82v-36
q0 -48 3 -82t12 -55.5t25.5 -31t43.5 -9.5t43.5 9.5t25.5 31t12 55.5t3 82v36zM350 851q32 0 55.5 14.5t30.5 41.5q2 8 6.5 12.5t13.5 4.5h63q19 0 19 -18q0 -38 -14 -68t-39 -52t-59.5 -33.5t-75.5 -11.5t-75.5 11.5t-59.5 33.5t-39 52t-14 68q0 18 19 18h63q9 0 13.5 -4.5
t6.5 -12.5q7 -27 30.5 -41.5t55.5 -14.5z" />
    <glyph glyph-name="obreve" unicode="&#x14f;" horiz-adv-x="568" 
d="M26 279q0 124 66 185.5t192 61.5t192 -61.5t66 -185.5v-40q0 -124 -66 -185.5t-192 -61.5t-192 61.5t-66 185.5v40zM336 277q0 53 -10 74t-42 21t-42 -21t-10 -74v-36q0 -54 10 -74.5t42 -20.5t42 20.5t10 74.5v36zM284 679q32 0 55.5 14.5t30.5 41.5q2 8 6.5 12.5
t13.5 4.5h63q19 0 19 -18q0 -38 -14 -68t-39 -52t-59.5 -33.5t-75.5 -11.5t-75.5 11.5t-59.5 33.5t-39 52t-14 68q0 18 19 18h63q9 0 13.5 -4.5t6.5 -12.5q7 -27 30.5 -41.5t55.5 -14.5z" />
    <glyph glyph-name="Ohungarumlaut" unicode="&#x150;" horiz-adv-x="700" 
d="M350 -12q-80 0 -137.5 21.5t-94.5 64t-54.5 106t-17.5 147.5v46q0 84 17.5 147.5t54.5 106t94.5 64t137.5 21.5q160 0 232 -85t72 -254v-46q0 -169 -72 -254t-232 -85zM434 368q0 48 -3 82t-12 55.5t-25.5 31t-43.5 9.5t-43.5 -9.5t-25.5 -31t-12 -55.5t-3 -82v-36
q0 -48 3 -82t12 -55.5t25.5 -31t43.5 -9.5t43.5 9.5t25.5 31t12 55.5t3 82v36zM255 928q10 10 23 1l79 -58q6 -4 6.5 -10t-5.5 -11l-129 -110q-5 -5 -11.5 -4.5t-11.5 4.5l-53 44q-9 7 -1 18q27 38 52.5 69.5t50.5 56.5zM479 928q12 10 25 1l79 -57q15 -11 1 -25
q-27 -27 -67 -56t-86 -52q-16 -8 -29 1l-56 42q-5 4 -6 9t4 9z" />
    <glyph glyph-name="ohungarumlaut" unicode="&#x151;" horiz-adv-x="568" 
d="M26 279q0 124 66 185.5t192 61.5t192 -61.5t66 -185.5v-40q0 -124 -66 -185.5t-192 -61.5t-192 61.5t-66 185.5v40zM336 277q0 53 -10 74t-42 21t-42 -21t-10 -74v-36q0 -54 10 -74.5t42 -20.5t42 20.5t10 74.5v36zM184 754q10 10 23 1l79 -58q6 -4 6.5 -10t-5.5 -11
l-129 -110q-5 -5 -11.5 -4.5t-11.5 4.5l-53 44q-9 7 -1 18q27 38 52.5 69.5t50.5 56.5zM408 754q12 10 25 1l79 -57q15 -11 1 -25q-27 -27 -67 -56t-86 -52q-16 -8 -29 1l-56 42q-5 4 -6 9t4 9z" />
    <glyph glyph-name="OE" unicode="&#x152;" horiz-adv-x="906" 
d="M643 534v-103h162q21 0 21 -20v-126q0 -20 -21 -20h-162v-59q0 -28 8.5 -40t36.5 -12h150q17 0 17 -17v-113q0 -12 -5.5 -17t-17.5 -7q-125 -12 -235 -12q-60 0 -98 16q-43 -8 -80 -12t-68 -4q-84 0 -142 21t-94.5 62.5t-52.5 103.5t-16 145v58q0 82 15.5 143t50.5 100.5
t92.5 59t141.5 19.5h478q21 0 21 -20v-126q0 -20 -21 -20h-181zM266 331q0 -50 7.5 -84t24 -55t42.5 -30t63 -9h20v390h-28q-35 0 -59.5 -9t-40 -30t-22.5 -54.5t-7 -82.5v-36z" />
    <glyph glyph-name="oe" unicode="&#x153;" horiz-adv-x="870" 
d="M844 304q0 -51 -28.5 -80t-96.5 -29h-172q9 -38 36.5 -53.5t82.5 -15.5q34 0 62 2t60 7q17 3 17 -14v-81q0 -20 -19 -26q-39 -12 -81 -17t-87 -5q-57 0 -100 13t-75 39q-61 -52 -159 -52q-126 0 -192 61.5t-66 185.5v40q0 124 66 185.5t192 61.5q98 0 159 -52
q30 25 70.5 38.5t94.5 13.5q117 0 176.5 -59t59.5 -163zM336 277q0 53 -10 74t-42 21t-42 -21t-10 -74v-36q0 -54 10 -74.5t42 -20.5t42 20.5t10 74.5v36zM621 302q19 0 26.5 5.5t7.5 22.5q0 23 -12 41.5t-42 18.5q-32 0 -44.5 -24.5t-14.5 -63.5h79z" />
    <glyph glyph-name="Racute" unicode="&#x154;" horiz-adv-x="635" 
d="M276 21q0 -21 -20 -21h-170q-20 0 -20 21v604q0 32 10 47.5t36 21.5q42 10 99.5 14t114.5 4q136 0 196.5 -55.5t60.5 -161.5v-38q0 -67 -19 -115t-63 -75l120 -246q4 -8 0.5 -14.5t-11.5 -6.5h-176q-24 0 -32 21l-90 216q-10 1 -19 1.5t-17 2.5v-220zM322 383
q33 0 44.5 23.5t11.5 58.5v20q0 36 -11.5 57.5t-44.5 21.5q-11 0 -24.5 -1t-21.5 -4v-174q13 -2 25 -2h21zM323 927q6 5 13.5 7t15.5 -3l82 -61q15 -11 1 -25q-28 -28 -61.5 -50t-79.5 -43q-17 -8 -29 1l-59 44q-11 9 -2 18z" />
    <glyph glyph-name="racute" unicode="&#x155;" horiz-adv-x="429" 
d="M423 376q0 -11 -4.5 -16t-16.5 -2q-17 5 -42.5 7.5t-42.5 2.5q-14 0 -29 -0.5t-26 -2.5v-344q0 -21 -20 -21h-166q-20 0 -20 21v434q0 40 30 48q43 11 94 17t99 6h27t31.5 -1l33 -2t30.5 -2q13 -2 17.5 -7t4.5 -17v-121zM241 753q6 5 13.5 7t15.5 -3l82 -61q15 -11 1 -25
q-28 -28 -61.5 -50t-79.5 -43q-17 -8 -29 1l-59 44q-11 9 -2 18z" />
    <glyph glyph-name="Rcommaaccent" unicode="&#x156;" horiz-adv-x="635" 
d="M276 21q0 -21 -20 -21h-170q-20 0 -20 21v604q0 32 10 47.5t36 21.5q42 10 99.5 14t114.5 4q136 0 196.5 -55.5t60.5 -161.5v-38q0 -67 -19 -115t-63 -75l120 -246q4 -8 0.5 -14.5t-11.5 -6.5h-176q-24 0 -32 21l-90 216q-10 1 -19 1.5t-17 2.5v-220zM322 383
q33 0 44.5 23.5t11.5 58.5v20q0 36 -11.5 57.5t-44.5 21.5q-11 0 -24.5 -1t-21.5 -4v-174q13 -2 25 -2h21zM229 -269q-12 5 -4 18q17 27 23 46.5t6 33.5q0 8 -1 18.5t-4 18.5q-5 16 -7.5 33t-2.5 31v10q0 9 3.5 13.5t14.5 4.5h146q18 0 18 -18v-14q0 -59 -21 -114t-75 -106
q-10 -8 -24 -2z" />
    <glyph glyph-name="rcommaaccent" unicode="&#x157;" horiz-adv-x="429" 
d="M423 376q0 -11 -4.5 -16t-16.5 -2q-17 5 -42.5 7.5t-42.5 2.5q-14 0 -29 -0.5t-26 -2.5v-344q0 -21 -20 -21h-166q-20 0 -20 21v434q0 40 30 48q43 11 94 17t99 6h27t31.5 -1l33 -2t30.5 -2q13 -2 17.5 -7t4.5 -17v-121zM58 -269q-12 5 -4 18q17 27 23 46.5t6 33.5
q0 8 -1 18.5t-4 18.5q-5 16 -7.5 33t-2.5 31v10q0 9 3.5 13.5t14.5 4.5h146q18 0 18 -18v-14q0 -59 -21 -114t-75 -106q-10 -8 -24 -2z" />
    <glyph glyph-name="Rcaron" unicode="&#x158;" horiz-adv-x="635" 
d="M276 21q0 -21 -20 -21h-170q-20 0 -20 21v604q0 32 10 47.5t36 21.5q42 10 99.5 14t114.5 4q136 0 196.5 -55.5t60.5 -161.5v-38q0 -67 -19 -115t-63 -75l120 -246q4 -8 0.5 -14.5t-11.5 -6.5h-176q-24 0 -32 21l-90 216q-10 1 -19 1.5t-17 2.5v-220zM322 383
q33 0 44.5 23.5t11.5 58.5v20q0 36 -11.5 57.5t-44.5 21.5q-11 0 -24.5 -1t-21.5 -4v-174q13 -2 25 -2h21zM434 932q12 8 23 -1l47 -36q11 -10 1 -22q-26 -33 -50 -57.5t-49 -44.5q-8 -7 -15 -9.5t-18 -2.5h-122q-11 0 -18 2.5t-15 9.5q-25 20 -49 44.5t-50 57.5
q-10 12 1 22l47 36q11 9 23 1l122 -77z" />
    <glyph glyph-name="rcaron" unicode="&#x159;" horiz-adv-x="429" 
d="M423 376q0 -11 -4.5 -16t-16.5 -2q-17 5 -42.5 7.5t-42.5 2.5q-14 0 -29 -0.5t-26 -2.5v-344q0 -21 -20 -21h-166q-20 0 -20 21v434q0 40 30 48q43 11 94 17t99 6h27t31.5 -1l33 -2t30.5 -2q13 -2 17.5 -7t4.5 -17v-121zM350 758q12 8 23 -1l47 -36q11 -10 1 -22
q-26 -33 -50 -57.5t-49 -44.5q-8 -7 -15 -9.5t-18 -2.5h-122q-11 0 -18 2.5t-15 9.5q-25 20 -49 44.5t-50 57.5q-10 12 1 22l47 36q11 9 23 1l122 -77z" />
    <glyph glyph-name="Sacute" unicode="&#x15a;" horiz-adv-x="565" 
d="M240 153q35 0 49.5 14.5t14.5 41.5q0 44 -47 67l-89 42q-35 16 -58 35t-37.5 42t-20.5 51t-6 63q0 100 54 151.5t178 51.5q24 0 50.5 -2t53.5 -6t51.5 -9.5t44.5 -11.5q10 -3 14 -7.5t4 -13.5v-105q0 -24 -23 -21q-36 5 -71 8t-70 3q-38 0 -52 -11t-14 -34t12 -37.5
t34 -24.5l97 -44q66 -30 90.5 -78t24.5 -121q0 -52 -12 -91t-40.5 -65.5t-76 -39.5t-118.5 -13q-57 0 -110.5 7.5t-101.5 21.5q-8 2 -13 6.5t-5 14.5v105q0 11 4.5 17t15.5 4q45 -5 86.5 -8t86.5 -3zM286 927q6 5 13.5 7t15.5 -3l82 -61q15 -11 1 -25q-28 -28 -61.5 -50
t-79.5 -43q-17 -8 -29 1l-59 44q-11 9 -2 18z" />
    <glyph glyph-name="sacute" unicode="&#x15b;" horiz-adv-x="490" 
d="M253 -8q-55 0 -110.5 6.5t-92.5 17.5q-19 6 -19 23v91q0 16 17 14q38 -5 82 -7.5t81 -2.5q31 0 39 6.5t8 17.5q0 14 -10.5 20.5t-27.5 13.5l-56 21q-67 25 -100 60t-33 94q0 43 16 73.5t44 49.5t66.5 27.5t84.5 8.5t90.5 -6t78.5 -17q19 -6 19 -23v-92q0 -16 -17 -14
q-38 5 -68.5 7.5t-63.5 2.5q-25 0 -34.5 -4.5t-9.5 -16.5q0 -15 10 -22t28 -14l64 -25q64 -25 94.5 -61t30.5 -92q0 -74 -54 -115.5t-157 -41.5zM248 753q6 5 13.5 7t15.5 -3l82 -61q15 -11 1 -25q-28 -28 -61.5 -50t-79.5 -43q-17 -8 -29 1l-59 44q-11 9 -2 18z" />
    <glyph glyph-name="Scircumflex" unicode="&#x15c;" horiz-adv-x="565" 
d="M240 153q35 0 49.5 14.5t14.5 41.5q0 44 -47 67l-89 42q-35 16 -58 35t-37.5 42t-20.5 51t-6 63q0 100 54 151.5t178 51.5q24 0 50.5 -2t53.5 -6t51.5 -9.5t44.5 -11.5q10 -3 14 -7.5t4 -13.5v-105q0 -24 -23 -21q-36 5 -71 8t-70 3q-38 0 -52 -11t-14 -34t12 -37.5
t34 -24.5l97 -44q66 -30 90.5 -78t24.5 -121q0 -52 -12 -91t-40.5 -65.5t-76 -39.5t-118.5 -13q-57 0 -110.5 7.5t-101.5 21.5q-8 2 -13 6.5t-5 14.5v105q0 11 4.5 17t15.5 4q45 -5 86.5 -8t86.5 -3zM284 828l-122 -77q-12 -8 -23 1l-47 36q-11 10 -1 22q26 33 50 57.5
t49 44.5q8 7 15 9.5t18 2.5h122q11 0 18 -2.5t15 -9.5q25 -20 49 -44.5t50 -57.5q10 -12 -1 -22l-47 -36q-11 -9 -23 -1z" />
    <glyph glyph-name="scircumflex" unicode="&#x15d;" horiz-adv-x="490" 
d="M253 -8q-55 0 -110.5 6.5t-92.5 17.5q-19 6 -19 23v91q0 16 17 14q38 -5 82 -7.5t81 -2.5q31 0 39 6.5t8 17.5q0 14 -10.5 20.5t-27.5 13.5l-56 21q-67 25 -100 60t-33 94q0 43 16 73.5t44 49.5t66.5 27.5t84.5 8.5t90.5 -6t78.5 -17q19 -6 19 -23v-92q0 -16 -17 -14
q-38 5 -68.5 7.5t-63.5 2.5q-25 0 -34.5 -4.5t-9.5 -16.5q0 -15 10 -22t28 -14l64 -25q64 -25 94.5 -61t30.5 -92q0 -74 -54 -115.5t-157 -41.5zM236 654l-122 -77q-12 -8 -23 1l-47 36q-11 10 -1 22q26 33 50 57.5t49 44.5q8 7 15 9.5t18 2.5h122q11 0 18 -2.5t15 -9.5
q25 -20 49 -44.5t50 -57.5q10 -12 -1 -22l-47 -36q-11 -9 -23 -1z" />
    <glyph glyph-name="Scedilla" unicode="&#x15e;" horiz-adv-x="565" 
d="M188 -177q0 15 17 10q11 -3 22.5 -5t22.5 -2q14 0 23 8t9 22q0 23 -15.5 31.5t-44.5 8.5q-10 0 -12.5 7.5t2.5 17.5l40 67q-101 3 -187 29q-8 2 -13 6.5t-5 14.5v105q0 11 4.5 17t15.5 4q45 -5 86.5 -8t86.5 -3q35 0 49.5 14.5t14.5 41.5q0 44 -47 67l-89 42
q-35 16 -58 35t-37.5 42t-20.5 51t-6 63q0 100 54 151.5t178 51.5q24 0 50.5 -2t53.5 -6t51.5 -9.5t44.5 -11.5q10 -3 14 -7.5t4 -13.5v-105q0 -24 -23 -21q-36 5 -71 8t-70 3q-38 0 -52 -11t-14 -34t12 -37.5t34 -24.5l97 -44q66 -30 90.5 -78t24.5 -121q0 -44 -8 -78
t-27 -59.5t-50 -42t-77 -23.5l-23 -46q40 -12 61.5 -34.5t21.5 -57.5q0 -27 -10.5 -47.5t-29 -34t-42.5 -20.5t-51 -7q-19 0 -43.5 4.5t-38.5 11.5q-11 5 -15 9t-4 13v38z" />
    <glyph glyph-name="scedilla" unicode="&#x15f;" horiz-adv-x="490" 
d="M145 -177q0 15 17 10q11 -3 22.5 -5t22.5 -2q14 0 23 8t9 22q0 23 -15.5 31.5t-44.5 8.5q-10 0 -12.5 7.5t2.5 17.5l43 72q-46 2 -89 8t-73 15q-19 6 -19 23v91q0 16 17 14q38 -5 82 -7.5t81 -2.5q31 0 39 6.5t8 17.5q0 14 -10.5 20.5t-27.5 13.5l-56 21q-67 25 -100 60
t-33 94q0 43 16 73.5t44 49.5t66.5 27.5t84.5 8.5t90.5 -6t78.5 -17q19 -6 19 -23v-92q0 -16 -17 -14q-38 5 -68.5 7.5t-63.5 2.5q-25 0 -34.5 -4.5t-9.5 -16.5q0 -15 10 -22t28 -14l64 -25q64 -25 94.5 -61t30.5 -92q0 -61 -36.5 -99.5t-106.5 -51.5l-25 -50
q40 -12 61.5 -34.5t21.5 -57.5q0 -27 -10.5 -47.5t-29 -34t-42.5 -20.5t-51 -7q-19 0 -43.5 4.5t-38.5 11.5q-11 5 -15 9t-4 13v38z" />
    <glyph glyph-name="Scaron" unicode="&#x160;" horiz-adv-x="565" 
d="M240 153q35 0 49.5 14.5t14.5 41.5q0 44 -47 67l-89 42q-35 16 -58 35t-37.5 42t-20.5 51t-6 63q0 100 54 151.5t178 51.5q24 0 50.5 -2t53.5 -6t51.5 -9.5t44.5 -11.5q10 -3 14 -7.5t4 -13.5v-105q0 -24 -23 -21q-36 5 -71 8t-70 3q-38 0 -52 -11t-14 -34t12 -37.5
t34 -24.5l97 -44q66 -30 90.5 -78t24.5 -121q0 -52 -12 -91t-40.5 -65.5t-76 -39.5t-118.5 -13q-57 0 -110.5 7.5t-101.5 21.5q-8 2 -13 6.5t-5 14.5v105q0 11 4.5 17t15.5 4q45 -5 86.5 -8t86.5 -3zM406 932q12 8 23 -1l47 -36q11 -10 1 -22q-26 -33 -50 -57.5t-49 -44.5
q-8 -7 -15 -9.5t-18 -2.5h-122q-11 0 -18 2.5t-15 9.5q-25 20 -49 44.5t-50 57.5q-10 12 1 22l47 36q11 9 23 1l122 -77z" />
    <glyph glyph-name="scaron" unicode="&#x161;" horiz-adv-x="490" 
d="M253 -8q-55 0 -110.5 6.5t-92.5 17.5q-19 6 -19 23v91q0 16 17 14q38 -5 82 -7.5t81 -2.5q31 0 39 6.5t8 17.5q0 14 -10.5 20.5t-27.5 13.5l-56 21q-67 25 -100 60t-33 94q0 43 16 73.5t44 49.5t66.5 27.5t84.5 8.5t90.5 -6t78.5 -17q19 -6 19 -23v-92q0 -16 -17 -14
q-38 5 -68.5 7.5t-63.5 2.5q-25 0 -34.5 -4.5t-9.5 -16.5q0 -15 10 -22t28 -14l64 -25q64 -25 94.5 -61t30.5 -92q0 -74 -54 -115.5t-157 -41.5zM358 758q12 8 23 -1l47 -36q11 -10 1 -22q-26 -33 -50 -57.5t-49 -44.5q-8 -7 -15 -9.5t-18 -2.5h-122q-11 0 -18 2.5t-15 9.5
q-25 20 -49 44.5t-50 57.5q-10 12 1 22l47 36q11 9 23 1l122 -77z" />
    <glyph glyph-name="Tcommaaccent" unicode="&#x162;" horiz-adv-x="552" 
d="M154 -177q0 15 17 10q11 -3 22.5 -5t22.5 -2q14 0 23 8t9 22q0 23 -15.5 31.5t-44.5 8.5q-10 0 -12.5 7.5t2.5 17.5l47 79h-39q-20 0 -20 21v513h-137q-21 0 -21 20v126q0 20 21 20h494q21 0 21 -20v-126q0 -20 -21 -20h-137v-513q0 -21 -20 -21h-35l-26 -52
q40 -12 61.5 -34.5t21.5 -57.5q0 -27 -10.5 -47.5t-29 -34t-42.5 -20.5t-51 -7q-19 0 -43.5 4.5t-38.5 11.5q-11 5 -15 9t-4 13v38z" />
    <glyph glyph-name="tcommaaccent" unicode="&#x163;" horiz-adv-x="471" 
d="M160 -177q0 15 17 10q11 -3 22.5 -5t22.5 -2q14 0 23 8t9 22q0 23 -15.5 31.5t-44.5 8.5q-10 0 -12.5 7.5t2.5 17.5l48 80q-74 18 -102.5 66.5t-28.5 120.5v176h-69q-21 0 -21 20v114q0 20 21 20h69v117q0 21 20 21h166q20 0 20 -21v-117h117q21 0 21 -20v-114
q0 -20 -21 -20h-117v-150q0 -33 12 -50.5t55 -17.5q12 0 27 1t30 3q17 2 17 -14v-102q0 -15 -19 -23q-20 -8 -46 -13t-50 -6l-22 -44q40 -12 61.5 -34.5t21.5 -57.5q0 -27 -10.5 -47.5t-29 -34t-42.5 -20.5t-51 -7q-19 0 -43.5 4.5t-38.5 11.5q-11 5 -15 9t-4 13v38z" />
    <glyph glyph-name="Tcaron" unicode="&#x164;" horiz-adv-x="552" 
d="M386 534v-513q0 -21 -20 -21h-180q-20 0 -20 21v513h-137q-21 0 -21 20v126q0 20 21 20h494q21 0 21 -20v-126q0 -20 -21 -20h-137zM398 932q12 8 23 -1l47 -36q11 -10 1 -22q-26 -33 -50 -57.5t-49 -44.5q-8 -7 -15 -9.5t-18 -2.5h-122q-11 0 -18 2.5t-15 9.5
q-25 20 -49 44.5t-50 57.5q-10 12 1 22l47 36q11 9 23 1l122 -77z" />
    <glyph glyph-name="tcaron" unicode="&#x165;" horiz-adv-x="664" 
d="M32 364q-21 0 -21 20v114q0 20 21 20h69v117q0 21 20 21h166q20 0 20 -21v-117h117q21 0 21 -20v-114q0 -20 -21 -20h-117v-150q0 -33 12 -50.5t55 -17.5q12 0 27 1t30 3q17 2 17 -14v-102q0 -15 -19 -23q-22 -9 -51 -14t-55 -5q-64 0 -107 13.5t-68.5 39t-36 62
t-10.5 81.5v176h-69zM474 484q-12 7 -4 18q15 21 25 44.5t10 47.5q0 8 -2 17.5t-4 17.5q-7 22 -9.5 40.5t-2.5 34.5v15q0 9 3.5 13.5t14.5 4.5h125q18 0 18 -18v-19q0 -47 -19.5 -110.5t-72.5 -128.5q-4 -5 -11.5 -6.5t-15.5 2.5z" />
    <glyph glyph-name="Tbar" unicode="&#x166;" horiz-adv-x="552" 
d="M386 534v-147h81q21 0 21 -20v-44q0 -20 -21 -20h-81v-282q0 -21 -20 -21h-180q-20 0 -20 21v282h-81q-21 0 -21 20v44q0 20 21 20h81v147h-137q-21 0 -21 20v126q0 20 21 20h494q21 0 21 -20v-126q0 -20 -21 -20h-137z" />
    <glyph glyph-name="tbar" unicode="&#x167;" horiz-adv-x="471" 
d="M32 364q-21 0 -21 20v114q0 20 21 20h69v117q0 21 20 21h166q20 0 20 -21v-117h117q21 0 21 -20v-114q0 -20 -21 -20h-117v-66h63q21 0 21 -20v-44q0 -20 -21 -20h-63q0 -33 12 -50.5t55 -17.5q12 0 27 1t30 3q17 2 17 -14v-102q0 -15 -19 -23q-22 -9 -51 -14t-55 -5
q-64 0 -107 13.5t-68.5 39t-36 62t-10.5 81.5v26h-48q-21 0 -21 20v44q0 20 21 20h48v66h-69z" />
    <glyph glyph-name="Utilde" unicode="&#x168;" horiz-adv-x="686" 
d="M343 154q21 0 32.5 10.5t17 32.5t6.5 55.5t1 79.5v351q0 17 17 17h186q17 0 17 -17v-356q0 -77 -10.5 -139.5t-40.5 -107t-84 -68.5t-142 -24t-142 24t-84 68.5t-40.5 107t-10.5 139.5v356q0 17 17 17h186q17 0 17 -17v-351q0 -46 1 -79.5t6.5 -55.5t17 -32.5t32.5 -10.5
zM362 892q10 -6 18 -11.5t18 -5.5q20 0 20 20v10q0 9 3 12.5t13 3.5h74q11 0 16 -6t9 -15q5 -11 6 -22t1 -22q0 -51 -32 -73.5t-80 -22.5q-33 0 -55.5 7t-48.5 24q-10 6 -18 11.5t-18 5.5q-20 0 -20 -20v-10q0 -9 -3 -12.5t-13 -3.5h-74q-11 0 -16 6t-9 15q-5 11 -6 22
t-1 22q0 51 32 73.5t80 22.5q33 0 55.5 -7t48.5 -24z" />
    <glyph glyph-name="utilde" unicode="&#x169;" horiz-adv-x="617" 
d="M56 497q0 21 20 21h166q20 0 20 -21v-284q0 -33 10.5 -50t41.5 -17q23 0 41 3v348q0 21 20 21h166q20 0 20 -21v-434q0 -41 -30 -48q-21 -6 -49 -10t-57.5 -7t-59.5 -4.5t-55 -1.5q-68 0 -116 11.5t-79 38t-45 69.5t-14 105v281zM327 718q10 -6 18 -11.5t18 -5.5
q20 0 20 20v10q0 9 3 12.5t13 3.5h74q11 0 16 -6t9 -15q5 -11 6 -22t1 -22q0 -51 -32 -73.5t-80 -22.5q-33 0 -55.5 7t-48.5 24q-10 6 -18 11.5t-18 5.5q-20 0 -20 -20v-10q0 -9 -3 -12.5t-13 -3.5h-74q-11 0 -16 6t-9 15q-5 11 -6 22t-1 22q0 51 32 73.5t80 22.5
q33 0 55.5 -7t48.5 -24z" />
    <glyph glyph-name="Umacron" unicode="&#x16a;" horiz-adv-x="686" 
d="M343 154q21 0 32.5 10.5t17 32.5t6.5 55.5t1 79.5v351q0 17 17 17h186q17 0 17 -17v-356q0 -77 -10.5 -139.5t-40.5 -107t-84 -68.5t-142 -24t-142 24t-84 68.5t-40.5 107t-10.5 139.5v356q0 17 17 17h186q17 0 17 -17v-351q0 -46 1 -79.5t6.5 -55.5t17 -32.5t32.5 -10.5
zM187 785q-21 0 -21 20v70q0 20 21 20h312q21 0 21 -20v-70q0 -20 -21 -20h-312z" />
    <glyph glyph-name="umacron" unicode="&#x16b;" horiz-adv-x="617" 
d="M56 497q0 21 20 21h166q20 0 20 -21v-284q0 -33 10.5 -50t41.5 -17q23 0 41 3v348q0 21 20 21h166q20 0 20 -21v-434q0 -41 -30 -48q-21 -6 -49 -10t-57.5 -7t-59.5 -4.5t-55 -1.5q-68 0 -116 11.5t-79 38t-45 69.5t-14 105v281zM152 611q-21 0 -21 20v70q0 20 21 20h312
q21 0 21 -20v-70q0 -20 -21 -20h-312z" />
    <glyph glyph-name="Ubreve" unicode="&#x16c;" horiz-adv-x="686" 
d="M343 154q21 0 32.5 10.5t17 32.5t6.5 55.5t1 79.5v351q0 17 17 17h186q17 0 17 -17v-356q0 -77 -10.5 -139.5t-40.5 -107t-84 -68.5t-142 -24t-142 24t-84 68.5t-40.5 107t-10.5 139.5v356q0 17 17 17h186q17 0 17 -17v-351q0 -46 1 -79.5t6.5 -55.5t17 -32.5t32.5 -10.5
zM343 851q32 0 55.5 14.5t30.5 41.5q2 8 6.5 12.5t13.5 4.5h63q19 0 19 -18q0 -38 -14 -68t-39 -52t-59.5 -33.5t-75.5 -11.5t-75.5 11.5t-59.5 33.5t-39 52t-14 68q0 18 19 18h63q9 0 13.5 -4.5t6.5 -12.5q7 -27 30.5 -41.5t55.5 -14.5z" />
    <glyph glyph-name="ubreve" unicode="&#x16d;" horiz-adv-x="617" 
d="M56 497q0 21 20 21h166q20 0 20 -21v-284q0 -33 10.5 -50t41.5 -17q23 0 41 3v348q0 21 20 21h166q20 0 20 -21v-434q0 -41 -30 -48q-21 -6 -49 -10t-57.5 -7t-59.5 -4.5t-55 -1.5q-68 0 -116 11.5t-79 38t-45 69.5t-14 105v281zM308 679q32 0 55.5 14.5t30.5 41.5
q2 8 6.5 12.5t13.5 4.5h63q19 0 19 -18q0 -38 -14 -68t-39 -52t-59.5 -33.5t-75.5 -11.5t-75.5 11.5t-59.5 33.5t-39 52t-14 68q0 18 19 18h63q9 0 13.5 -4.5t6.5 -12.5q7 -27 30.5 -41.5t55.5 -14.5z" />
    <glyph glyph-name="Uring" unicode="&#x16e;" horiz-adv-x="686" 
d="M343 154q21 0 32.5 10.5t17 32.5t6.5 55.5t1 79.5v351q0 17 17 17h186q17 0 17 -17v-356q0 -77 -10.5 -139.5t-40.5 -107t-84 -68.5t-142 -24t-142 24t-84 68.5t-40.5 107t-10.5 139.5v356q0 17 17 17h186q17 0 17 -17v-351q0 -46 1 -79.5t6.5 -55.5t17 -32.5t32.5 -10.5
zM343 957q60 0 98 -26t38 -88t-38 -88t-98 -26t-98 26t-38 88t38 88t98 26zM343 805q15 0 23.5 8.5t8.5 29.5t-8.5 29.5t-23.5 8.5t-23.5 -8.5t-8.5 -29.5t8.5 -29.5t23.5 -8.5z" />
    <glyph glyph-name="uring" unicode="&#x16f;" horiz-adv-x="617" 
d="M56 497q0 21 20 21h166q20 0 20 -21v-284q0 -33 10.5 -50t41.5 -17q23 0 41 3v348q0 21 20 21h166q20 0 20 -21v-434q0 -41 -30 -48q-21 -6 -49 -10t-57.5 -7t-59.5 -4.5t-55 -1.5q-68 0 -116 11.5t-79 38t-45 69.5t-14 105v281zM308 783q60 0 98 -26t38 -88t-38 -88
t-98 -26t-98 26t-38 88t38 88t98 26zM308 631q15 0 23.5 8.5t8.5 29.5t-8.5 29.5t-23.5 8.5t-23.5 -8.5t-8.5 -29.5t8.5 -29.5t23.5 -8.5z" />
    <glyph glyph-name="Uhungarumlaut" unicode="&#x170;" horiz-adv-x="686" 
d="M343 154q21 0 32.5 10.5t17 32.5t6.5 55.5t1 79.5v351q0 17 17 17h186q17 0 17 -17v-356q0 -77 -10.5 -139.5t-40.5 -107t-84 -68.5t-142 -24t-142 24t-84 68.5t-40.5 107t-10.5 139.5v356q0 17 17 17h186q17 0 17 -17v-351q0 -46 1 -79.5t6.5 -55.5t17 -32.5t32.5 -10.5
zM260 928q10 10 23 1l79 -58q6 -4 6.5 -10t-5.5 -11l-129 -110q-5 -5 -11.5 -4.5t-11.5 4.5l-53 44q-9 7 -1 18q27 38 52.5 69.5t50.5 56.5zM484 928q12 10 25 1l79 -57q15 -11 1 -25q-27 -27 -67 -56t-86 -52q-16 -8 -29 1l-56 42q-5 4 -6 9t4 9z" />
    <glyph glyph-name="uhungarumlaut" unicode="&#x171;" horiz-adv-x="617" 
d="M56 497q0 21 20 21h166q20 0 20 -21v-284q0 -33 10.5 -50t41.5 -17q23 0 41 3v348q0 21 20 21h166q20 0 20 -21v-434q0 -41 -30 -48q-21 -6 -49 -10t-57.5 -7t-59.5 -4.5t-55 -1.5q-68 0 -116 11.5t-79 38t-45 69.5t-14 105v281zM224 754q10 10 23 1l79 -58q6 -4 6.5 -10
t-5.5 -11l-129 -110q-5 -5 -11.5 -4.5t-11.5 4.5l-53 44q-9 7 -1 18q27 38 52.5 69.5t50.5 56.5zM448 754q12 10 25 1l79 -57q15 -11 1 -25q-27 -27 -67 -56t-86 -52q-16 -8 -29 1l-56 42q-5 4 -6 9t4 9z" />
    <glyph glyph-name="Uogonek" unicode="&#x172;" horiz-adv-x="686" 
d="M343 154q21 0 32.5 10.5t17 32.5t6.5 55.5t1 79.5v351q0 17 17 17h186q17 0 17 -17v-356q0 -63 -6.5 -116.5t-25 -95.5t-51 -71t-84.5 -43q-56 -53 -56 -108q0 -17 5.5 -26t21.5 -9q20 0 35 3q11 2 17 1t6 -11v-40q0 -10 -11 -18t-30 -14t-41 -6q-75 0 -106 27.5
t-31 78.5q0 29 14.5 56.5t41.5 53.5q-80 3 -129.5 28.5t-77 69.5t-37 105t-9.5 135v356q0 17 17 17h186q17 0 17 -17v-351q0 -46 1 -79.5t6.5 -55.5t17 -32.5t32.5 -10.5z" />
    <glyph glyph-name="uogonek" unicode="&#x173;" horiz-adv-x="617" 
d="M56 497q0 21 20 21h166q20 0 20 -21v-284q0 -33 10.5 -50t41.5 -17q23 0 41 3v348q0 21 20 21h166q20 0 20 -21v-434q0 -41 -30 -48q-18 -5 -39 -9q-62 -54 -62 -113q0 -17 5.5 -26t21.5 -9q20 0 35 3q11 2 17 1t6 -11v-40q0 -10 -11 -18t-30 -14t-41 -6q-75 0 -106 27.5
t-31 78.5q0 62 60 114q-12 0 -23.5 -0.5t-22.5 -0.5q-68 0 -116 11.5t-79 38t-45 69.5t-14 105v281z" />
    <glyph glyph-name="Wcircumflex" unicode="&#x174;" horiz-adv-x="932" 
d="M726 678q3 22 28 22h147q13 0 17 -8t2 -17l-114 -653q-4 -22 -32 -22h-218q-29 0 -32 22l-58 404l-58 -404q-3 -22 -32 -22h-218q-28 0 -32 22l-114 653q-2 9 2 17t17 8h147q25 0 28 -22l70 -517l75 517q3 22 30 22h170q27 0 30 -22l75 -517zM466 828l-122 -77
q-12 -8 -23 1l-47 36q-11 10 -1 22q26 33 50 57.5t49 44.5q8 7 15 9.5t18 2.5h122q11 0 18 -2.5t15 -9.5q25 -20 49 -44.5t50 -57.5q10 -12 -1 -22l-47 -36q-11 -9 -23 -1z" />
    <glyph glyph-name="wcircumflex" unicode="&#x175;" horiz-adv-x="778" 
d="M530 213l53 292q2 13 19 13h154q11 0 14.5 -6t1.5 -15l-99 -470q-6 -27 -38 -27h-157q-32 0 -38 27l-51 240l-51 -240q-6 -27 -38 -27h-157q-32 0 -38 27l-99 470q-2 9 1.5 15t14.5 6h154q17 0 19 -13l53 -292l60 292q2 5 5.5 9t13.5 4h124q10 0 13.5 -4t5.5 -9zM389 654
l-122 -77q-12 -8 -23 1l-47 36q-11 10 -1 22q26 33 50 57.5t49 44.5q8 7 15 9.5t18 2.5h122q11 0 18 -2.5t15 -9.5q25 -20 49 -44.5t50 -57.5q10 -12 -1 -22l-47 -36q-11 -9 -23 -1z" />
    <glyph glyph-name="Ycircumflex" unicode="&#x176;" horiz-adv-x="652" 
d="M425 678q5 11 11.5 16.5t20.5 5.5h165q13 0 17 -7.5t0 -15.5l-203 -442v-214q0 -21 -20 -21h-180q-20 0 -20 21v212l-203 444q-4 8 0 15.5t17 7.5h165q14 0 20.5 -5.5t11.5 -16.5l99 -236zM326 828l-122 -77q-12 -8 -23 1l-47 36q-11 10 -1 22q26 33 50 57.5t49 44.5
q8 7 15 9.5t18 2.5h122q11 0 18 -2.5t15 -9.5q25 -20 49 -44.5t50 -57.5q10 -12 -1 -22l-47 -36q-11 -9 -23 -1z" />
    <glyph glyph-name="ycircumflex" unicode="&#x177;" horiz-adv-x="617" 
d="M248 -46q56 0 81.5 12.5t25.5 43.5v10q-26 -9 -56.5 -11.5t-68.5 -2.5q-88 0 -131 48.5t-43 150.5v292q0 21 20 21h166q20 0 20 -21v-280q0 -26 12 -41.5t43 -15.5h19t19 2v335q0 21 20 21h166q20 0 20 -21v-495q0 -47 -14 -84.5t-45.5 -63.5t-83 -40t-127.5 -14
q-45 0 -89.5 7t-78.5 19q-19 6 -19 23v100q0 17 17 14q60 -9 127 -9zM308 654l-122 -77q-12 -8 -23 1l-47 36q-11 10 -1 22q26 33 50 57.5t49 44.5q8 7 15 9.5t18 2.5h122q11 0 18 -2.5t15 -9.5q25 -20 49 -44.5t50 -57.5q10 -12 -1 -22l-47 -36q-11 -9 -23 -1z" />
    <glyph glyph-name="Ydieresis" unicode="&#x178;" horiz-adv-x="652" 
d="M425 678q5 11 11.5 16.5t20.5 5.5h165q13 0 17 -7.5t0 -15.5l-203 -442v-214q0 -21 -20 -21h-180q-20 0 -20 21v212l-203 444q-4 8 0 15.5t17 7.5h165q14 0 20.5 -5.5t11.5 -16.5l99 -236zM381 764q-20 0 -20 21v106q0 21 20 21h120q20 0 20 -21v-18q0 -13 -5.5 -37
t-17.5 -51q-4 -8 -11.5 -14.5t-18.5 -6.5h-87zM271 912q20 0 20 -21v-106q0 -21 -20 -21h-120q-20 0 -20 21v18q0 13 5.5 37t17.5 51q4 8 11.5 14.5t18.5 6.5h87z" />
    <glyph glyph-name="Zacute" unicode="&#x179;" horiz-adv-x="581" 
d="M47 0q-21 0 -21 20v124q0 14 2.5 24.5t10.5 21.5l267 344h-242q-21 0 -21 20v126q0 20 21 20h460q21 0 21 -20v-119q0 -14 -2.5 -24.5t-10.5 -21.5l-271 -349h273q21 0 21 -20v-126q0 -20 -21 -20h-487zM304 927q6 5 13.5 7t15.5 -3l82 -61q15 -11 1 -25
q-28 -28 -61.5 -50t-79.5 -43q-17 -8 -29 1l-59 44q-11 9 -2 18z" />
    <glyph glyph-name="zacute" unicode="&#x17a;" horiz-adv-x="516" 
d="M47 0q-21 0 -21 20v116q0 14 2 26t11 20l208 182h-190q-21 0 -21 20v114q0 20 21 20h402q21 0 21 -20v-124q0 -11 -2.5 -21t-10.5 -18l-208 -181h210q21 0 21 -20v-114q0 -20 -21 -20h-422zM265 753q6 5 13.5 7t15.5 -3l82 -61q15 -11 1 -25q-28 -28 -61.5 -50t-79.5 -43
q-17 -8 -29 1l-59 44q-11 9 -2 18z" />
    <glyph glyph-name="Zdotaccent" unicode="&#x17b;" horiz-adv-x="581" 
d="M47 0q-21 0 -21 20v124q0 14 2.5 24.5t10.5 21.5l267 344h-242q-21 0 -21 20v126q0 20 21 20h460q21 0 21 -20v-119q0 -14 -2.5 -24.5t-10.5 -21.5l-271 -349h273q21 0 21 -20v-126q0 -20 -21 -20h-487zM235 764q-20 0 -20 21v106q0 21 20 21h140q20 0 20 -21v-18
q0 -13 -5.5 -37t-17.5 -51q-4 -8 -11.5 -14.5t-18.5 -6.5h-107z" />
    <glyph glyph-name="zdotaccent" unicode="&#x17c;" horiz-adv-x="516" 
d="M47 0q-21 0 -21 20v116q0 14 2 26t11 20l208 182h-190q-21 0 -21 20v114q0 20 21 20h402q21 0 21 -20v-124q0 -11 -2.5 -21t-10.5 -18l-208 -181h210q21 0 21 -20v-114q0 -20 -21 -20h-422zM193 590q-20 0 -20 21v106q0 21 20 21h140q20 0 20 -21v-18q0 -13 -5.5 -37
t-17.5 -51q-4 -8 -11.5 -14.5t-18.5 -6.5h-107z" />
    <glyph glyph-name="Zcaron" unicode="&#x17d;" horiz-adv-x="581" 
d="M47 0q-21 0 -21 20v124q0 14 2.5 24.5t10.5 21.5l267 344h-242q-21 0 -21 20v126q0 20 21 20h460q21 0 21 -20v-119q0 -14 -2.5 -24.5t-10.5 -21.5l-271 -349h273q21 0 21 -20v-126q0 -20 -21 -20h-487zM422 932q12 8 23 -1l47 -36q11 -10 1 -22q-26 -33 -50 -57.5
t-49 -44.5q-8 -7 -15 -9.5t-18 -2.5h-122q-11 0 -18 2.5t-15 9.5q-25 20 -49 44.5t-50 57.5q-10 12 1 22l47 36q11 9 23 1l122 -77z" />
    <glyph glyph-name="zcaron" unicode="&#x17e;" horiz-adv-x="516" 
d="M47 0q-21 0 -21 20v116q0 14 2 26t11 20l208 182h-190q-21 0 -21 20v114q0 20 21 20h402q21 0 21 -20v-124q0 -11 -2.5 -21t-10.5 -18l-208 -181h210q21 0 21 -20v-114q0 -20 -21 -20h-422zM385 758q12 8 23 -1l47 -36q11 -10 1 -22q-26 -33 -50 -57.5t-49 -44.5
q-8 -7 -15 -9.5t-18 -2.5h-122q-11 0 -18 2.5t-15 9.5q-25 20 -49 44.5t-50 57.5q-10 12 1 22l47 36q11 9 23 1l122 -77z" />
    <glyph glyph-name="longs" unicode="&#x17f;" horiz-adv-x="468" 
d="M97 518v24q0 45 10.5 81.5t36 62t68.5 39t107 13.5q32 0 64.5 -4.5t59.5 -14.5q19 -7 19 -25v-100q0 -16 -17 -14q-20 2 -37 3t-37 1q-35 0 -51.5 -11.5t-16.5 -40.5v-511q0 -21 -20 -21h-166q-20 0 -20 21v343h-75q-21 0 -21 20v114q0 20 21 20h75z" />
    <glyph glyph-name="uni0191" unicode="&#x191;" horiz-adv-x="581" 
d="M66 558q0 81 42 117.5t132 36.5q79 0 149 -3.5t133 -8.5q23 -1 23 -24v-105q0 -17 -17 -17h-197q-28 0 -36.5 -12t-8.5 -40v-75h209q21 0 21 -20v-118q0 -20 -21 -20h-209v-273q0 -45 -10.5 -81.5t-36 -62t-68.5 -39t-107 -13.5q-32 0 -64 3.5t-60 10.5q-19 5 -19 23v107
q0 16 17 14q20 -2 34 -3t34 -1q31 0 45.5 11.5t14.5 40.5v552z" />
    <glyph glyph-name="florin" unicode="&#x192;" horiz-adv-x="468" 
d="M29 -46q35 0 51.5 11.5t16.5 40.5v358h-75q-21 0 -21 20v114q0 20 21 20h75v24q0 45 10.5 81.5t36 62t68.5 39t107 13.5q31 0 64 -4.5t60 -14.5q19 -7 19 -25v-100q0 -16 -17 -14t-36 3t-39 1q-35 0 -51 -11.5t-16 -40.5v-14h131q21 0 21 -20v-114q0 -20 -21 -20h-131
v-358q0 -45 -11.5 -83t-37.5 -65.5t-68.5 -42.5t-104.5 -15q-32 0 -64.5 4.5t-59.5 14.5q-19 7 -19 25v100q0 16 17 14q20 -2 37 -3t37 -1z" />
    <glyph glyph-name="Aringacute" unicode="&#x1fa;" horiz-adv-x="638" 
d="M319 857q60 0 98 -26t38 -88q0 -13 -2 -23.5t-5 -19.5q20 -3 23 -19l152 -658q2 -10 -1.5 -16.5t-14.5 -6.5h-177q-20 0 -23 17l-18 105h-140l-18 -105q-3 -17 -23 -17h-177q-11 0 -14.5 6.5t-1.5 16.5l152 658q3 16 22 19q-6 18 -6 43q0 62 38 88t98 26zM363 1016
q17 8 29 -4l66 -64q7 -6 5.5 -13.5t-10.5 -11.5q-32 -13 -84.5 -28t-120.5 -25q-8 -1 -11.5 0t-7.5 4l-37 36q-12 12 2 19zM319 534l-46 -268h91zM319 705q15 0 23.5 8.5t8.5 29.5t-8.5 29.5t-23.5 8.5t-23.5 -8.5t-8.5 -29.5t8.5 -29.5t23.5 -8.5z" />
    <glyph glyph-name="aringacute" unicode="&#x1fb;" horiz-adv-x="575" 
d="M295 783q60 0 98 -26t38 -88t-38 -88t-98 -26t-98 26t-38 88t38 88t98 26zM295 631q15 0 23.5 8.5t8.5 29.5t-8.5 29.5t-23.5 8.5t-23.5 -8.5t-8.5 -29.5t8.5 -29.5t23.5 -8.5zM339 942q17 8 29 -4l66 -64q7 -6 5.5 -13.5t-10.5 -11.5q-32 -13 -84.5 -28t-120.5 -25
q-8 -1 -11.5 0t-7.5 4l-37 36q-12 12 2 19zM200 318q32 0 65.5 -4.5t62.5 -14.5v26q0 21 -6.5 34.5t-21.5 20.5t-39.5 9.5t-59.5 2.5q-54 0 -108 -9q-17 -3 -17 14v80q0 17 19 23q84 26 173 26q68 0 116.5 -11t79.5 -34.5t45.5 -60.5t14.5 -89v-269q0 -41 -30 -48
q-21 -6 -48.5 -10t-56.5 -6.5t-58.5 -4t-54.5 -1.5q-65 0 -112 8t-78 27t-45.5 50.5t-14.5 78.5q0 42 13.5 73t37 50.5t55.5 29t68 9.5zM328 201q-12 2 -24 3t-23 1q-40 0 -54.5 -13t-14.5 -38q0 -23 15 -36.5t50 -13.5q23 0 51 5v92z" />
    <glyph glyph-name="AEacute" unicode="&#x1fc;" horiz-adv-x="884" 
d="M621 542v-106h162q21 0 21 -20v-118q0 -20 -21 -20h-162v-80q0 -28 8.5 -40t36.5 -12h150q17 0 17 -17v-109q0 -23 -23 -24q-63 -5 -123 -6.5t-112 -1.5q-85 0 -126.5 31.5t-46.5 102.5h-138l-32 -105q-5 -17 -23 -17h-177q-11 0 -15 6.5t-1 16.5l227 658q3 8 8.5 13.5
t18.5 5.5h532q21 0 21 -20v-118q0 -20 -21 -20h-181zM401 266v302l-93 -302h93zM540 927q6 5 13.5 7t15.5 -3l82 -61q15 -11 1 -25q-28 -28 -61.5 -50t-79.5 -43q-17 -8 -29 1l-59 44q-11 9 -2 18z" />
    <glyph glyph-name="aeacute" unicode="&#x1fd;" horiz-adv-x="837" 
d="M200 318q26 0 60.5 -4.5t63.5 -14.5v26q0 21 -6.5 34.5t-21 20.5t-38 9.5t-57.5 2.5q-32 0 -54.5 -2t-50.5 -7q-16 -3 -16 14v80q0 17 18 23q37 12 76 19t82 7q48 0 89 -13t70 -38q44 27 85 39t92 12q103 0 161 -59t58 -163q0 -55 -30.5 -82t-96.5 -27h-162
q7 -35 34.5 -52t81.5 -17q33 0 60.5 2t58.5 7q16 3 16 -14v-81q0 -20 -17 -25q-38 -11 -71 -17t-73 -6q-43 0 -86.5 8t-83.5 27q-46 -20 -87 -27.5t-91 -7.5q-63 0 -107.5 9t-72 28.5t-40.5 51t-13 75.5q0 42 13 73t36 50.5t54 29t66 9.5zM324 201q-11 2 -23 3t-23 1
q-38 0 -52.5 -13t-14.5 -38q0 -23 14.5 -36t49.5 -13q12 0 23.5 1t25.5 3v92zM595 302q18 0 25.5 5.5t7.5 22.5q0 23 -12 41.5t-41 18.5q-30 0 -42.5 -24.5t-14.5 -63.5h77zM431 753q6 5 13.5 7t15.5 -3l82 -61q15 -11 1 -25q-28 -28 -61.5 -50t-79.5 -43q-17 -8 -29 1
l-59 44q-11 9 -2 18z" />
    <glyph glyph-name="Oslashacute" unicode="&#x1fe;" horiz-adv-x="700" 
d="M143 -88q-7 -12 -21 -12h-51q-9 0 -11 5t1 11l77 136q-48 42 -70 110t-22 165v46q0 84 17.5 147.5t54.5 106t94.5 64t137.5 21.5q87 0 149 -27l59 103q7 12 21 12h51q9 0 11 -5t-1 -11l-78 -137q48 -42 70 -110t22 -164v-46q0 -169 -72 -254t-232 -85q-86 0 -149 26z
M350 546q-27 0 -43.5 -9.5t-25.5 -31t-12 -55.5t-3 -82v-36v-28.5t1 -26.5l140 247q-18 22 -57 22zM434 368v27.5t-1 25.5l-140 -246q18 -21 57 -21q27 0 43.5 9.5t25.5 31t12 55.5t3 82v36zM352 927q6 5 13.5 7t15.5 -3l82 -61q15 -11 1 -25q-28 -28 -61.5 -50t-79.5 -43
q-17 -8 -29 1l-59 44q-11 9 -2 18z" />
    <glyph glyph-name="oslashacute" unicode="&#x1ff;" horiz-adv-x="568" 
d="M120 -98q-7 -12 -21 -12h-51q-9 0 -11 5t1 11l75 130q-87 63 -87 203v40q0 124 66 185.5t192 61.5q57 0 104 -14l60 104q7 12 21 12h51q9 0 11 -5t-1 -11l-76 -131q43 -31 65.5 -81t22.5 -121v-40q0 -124 -66 -185.5t-192 -61.5q-29 0 -55 3.5t-49 9.5zM284 372
q-32 0 -42 -21t-10 -74v-35l73 127q-9 3 -21 3zM284 146q32 0 42 20.5t10 74.5v35l-73 -127q9 -3 21 -3zM286 753q6 5 13.5 7t15.5 -3l82 -61q15 -11 1 -25q-28 -28 -61.5 -50t-79.5 -43q-17 -8 -29 1l-59 44q-11 9 -2 18z" />
    <glyph glyph-name="Scommaaccent" unicode="&#x218;" horiz-adv-x="565" 
d="M240 153q35 0 49.5 14.5t14.5 41.5q0 44 -47 67l-89 42q-35 16 -58 35t-37.5 42t-20.5 51t-6 63q0 100 54 151.5t178 51.5q24 0 50.5 -2t53.5 -6t51.5 -9.5t44.5 -11.5q10 -3 14 -7.5t4 -13.5v-105q0 -24 -23 -21q-36 5 -71 8t-70 3q-38 0 -52 -11t-14 -34t12 -37.5
t34 -24.5l97 -44q66 -30 90.5 -78t24.5 -121q0 -52 -12 -91t-40.5 -65.5t-76 -39.5t-118.5 -13q-57 0 -110.5 7.5t-101.5 21.5q-8 2 -13 6.5t-5 14.5v105q0 11 4.5 17t15.5 4q45 -5 86.5 -8t86.5 -3zM194 -269q-12 5 -4 18q17 27 23 46.5t6 33.5q0 8 -1 18.5t-4 18.5
q-5 16 -7.5 33t-2.5 31v10q0 9 3.5 13.5t14.5 4.5h146q18 0 18 -18v-14q0 -59 -21 -114t-75 -106q-10 -8 -24 -2z" />
    <glyph glyph-name="scommaaccent" unicode="&#x219;" horiz-adv-x="490" 
d="M253 -8q-55 0 -110.5 6.5t-92.5 17.5q-19 6 -19 23v91q0 16 17 14q38 -5 82 -7.5t81 -2.5q31 0 39 6.5t8 17.5q0 14 -10.5 20.5t-27.5 13.5l-56 21q-67 25 -100 60t-33 94q0 43 16 73.5t44 49.5t66.5 27.5t84.5 8.5t90.5 -6t78.5 -17q19 -6 19 -23v-92q0 -16 -17 -14
q-38 5 -68.5 7.5t-63.5 2.5q-25 0 -34.5 -4.5t-9.5 -16.5q0 -15 10 -22t28 -14l64 -25q64 -25 94.5 -61t30.5 -92q0 -74 -54 -115.5t-157 -41.5zM155 -269q-12 5 -4 18q17 27 23 46.5t6 33.5q0 8 -1 18.5t-4 18.5q-5 16 -7.5 33t-2.5 31v10q0 9 3.5 13.5t14.5 4.5h146
q18 0 18 -18v-14q0 -59 -21 -114t-75 -106q-10 -8 -24 -2z" />
    <glyph glyph-name="uni021A" unicode="&#x21a;" horiz-adv-x="552" 
d="M386 534v-513q0 -21 -20 -21h-180q-20 0 -20 21v513h-137q-21 0 -21 20v126q0 20 21 20h494q21 0 21 -20v-126q0 -20 -21 -20h-137zM173 -269q-12 5 -4 18q17 27 23 46.5t6 33.5q0 8 -1 18.5t-4 18.5q-5 16 -7.5 33t-2.5 31v10q0 9 3.5 13.5t14.5 4.5h146q18 0 18 -18
v-14q0 -59 -21 -114t-75 -106q-10 -8 -24 -2z" />
    <glyph glyph-name="uni021B" unicode="&#x21b;" horiz-adv-x="471" 
d="M32 364q-21 0 -21 20v114q0 20 21 20h69v117q0 21 20 21h166q20 0 20 -21v-117h117q21 0 21 -20v-114q0 -20 -21 -20h-117v-150q0 -33 12 -50.5t55 -17.5q12 0 27 1t30 3q17 2 17 -14v-102q0 -15 -19 -23q-22 -9 -51 -14t-55 -5q-64 0 -107 13.5t-68.5 39t-36 62
t-10.5 81.5v176h-69zM167 -269q-12 5 -4 18q17 27 23 46.5t6 33.5q0 8 -1 18.5t-4 18.5q-5 16 -7.5 33t-2.5 31v10q0 9 3.5 13.5t14.5 4.5h146q18 0 18 -18v-14q0 -59 -21 -114t-75 -106q-10 -8 -24 -2z" />
    <glyph glyph-name="dotlessj" unicode="&#x237;" horiz-adv-x="392" 
d="M326 -4q0 -45 -11 -81.5t-36.5 -62t-67.5 -39t-104 -13.5q-72 0 -132 19q-19 6 -19 23v102q0 16 17 14q20 -2 40 -3t40 -1q43 0 55 17.5t12 50.5v475q0 21 20 21h166q20 0 20 -21v-501z" />
    <glyph glyph-name="apostrophe" unicode="&#x2bc;" horiz-adv-x="472" 
d="M140 492q-12 7 -4 18q15 21 25 44.5t10 47.5q0 8 -2 17.5t-4 17.5q-7 22 -9.5 40.5t-2.5 34.5v15q0 9 3.5 13.5t14.5 4.5h125q18 0 18 -18v-19q0 -47 -19.5 -110.5t-72.5 -128.5q-4 -5 -11.5 -6.5t-15.5 2.5z" />
    <glyph glyph-name="circumflex" unicode="&#x2c6;" horiz-adv-x="472" 
d="M236 634l-122 -77q-12 -8 -23 1l-47 36q-11 10 -1 22q26 33 50 57.5t49 44.5q8 7 15 9.5t18 2.5h122q11 0 18 -2.5t15 -9.5q25 -20 49 -44.5t50 -57.5q10 -12 -1 -22l-47 -36q-11 -9 -23 -1z" />
    <glyph glyph-name="caron" unicode="&#x2c7;" horiz-adv-x="472" 
d="M358 738q12 8 23 -1l47 -36q11 -10 1 -22q-26 -33 -50 -57.5t-49 -44.5q-8 -7 -15 -9.5t-18 -2.5h-122q-11 0 -18 2.5t-15 9.5q-25 20 -49 44.5t-50 57.5q-10 12 1 22l47 36q11 9 23 1l122 -77z" />
    <glyph glyph-name="uni02C9" unicode="&#x2c9;" horiz-adv-x="472" 
d="M80 591q-21 0 -21 20v70q0 20 21 20h312q21 0 21 -20v-70q0 -20 -21 -20h-312z" />
    <glyph glyph-name="breve" unicode="&#x2d8;" horiz-adv-x="472" 
d="M236 659q32 0 55.5 14.5t30.5 41.5q2 8 6.5 12.5t13.5 4.5h63q19 0 19 -18q0 -38 -14 -68t-39 -52t-59.5 -33.5t-75.5 -11.5t-75.5 11.5t-59.5 33.5t-39 52t-14 68q0 18 19 18h63q9 0 13.5 -4.5t6.5 -12.5q7 -27 30.5 -41.5t55.5 -14.5z" />
    <glyph glyph-name="dotaccent" unicode="&#x2d9;" horiz-adv-x="472" 
d="M141 570q-20 0 -20 21v106q0 21 20 21h140q20 0 20 -21v-18q0 -13 -5.5 -37t-17.5 -51q-4 -8 -11.5 -14.5t-18.5 -6.5h-107z" />
    <glyph glyph-name="ring" unicode="&#x2da;" horiz-adv-x="472" 
d="M236 763q60 0 98 -26t38 -88t-38 -88t-98 -26t-98 26t-38 88t38 88t98 26zM236 611q15 0 23.5 8.5t8.5 29.5t-8.5 29.5t-23.5 8.5t-23.5 -8.5t-8.5 -29.5t8.5 -29.5t23.5 -8.5z" />
    <glyph glyph-name="ogonek" unicode="&#x2db;" horiz-adv-x="472" 
d="M329 9q-65 -57 -65 -116q0 -17 5.5 -26t21.5 -9q20 0 35 3q11 2 17 1t6 -11v-40q0 -10 -11 -18t-30 -14t-41 -6q-75 0 -106 27.5t-31 78.5q0 40 26.5 76.5t74.5 67.5h81z" />
    <glyph glyph-name="tilde" unicode="&#x2dc;" horiz-adv-x="472" 
d="M255 699q10 -6 18 -11.5t18 -5.5q20 0 20 20v10q0 9 3 12.5t13 3.5h74q11 0 16 -6t9 -15q5 -11 6 -22t1 -22q0 -51 -32 -73.5t-80 -22.5q-33 0 -55.5 7t-48.5 24q-10 6 -18 11.5t-18 5.5q-20 0 -20 -20v-10q0 -9 -3 -12.5t-13 -3.5h-74q-11 0 -16 6t-9 15q-5 11 -6 22
t-1 22q0 51 32 73.5t80 22.5q33 0 55.5 -7t48.5 -24z" />
    <glyph glyph-name="hungarumlaut" unicode="&#x2dd;" horiz-adv-x="472" 
d="M122 747q10 10 23 1l79 -58q6 -4 6.5 -10t-5.5 -11l-129 -110q-5 -5 -11.5 -4.5t-11.5 4.5l-53 44q-9 7 -1 18q27 38 52.5 69.5t50.5 56.5zM346 747q12 10 25 1l79 -57q15 -11 1 -25q-27 -27 -67 -56t-86 -52q-16 -8 -29 1l-56 42q-5 4 -6 9t4 9z" />
    <glyph glyph-name="gravecomb" unicode="&#x300;" horiz-adv-x="0" 
d="M-160 621q9 -9 -2 -18l-59 -44q-12 -9 -29 -1q-46 21 -79.5 43t-61.5 50q-14 14 1 25l82 61q8 5 15.5 3t13.5 -7z" />
    <glyph glyph-name="acutecomb" unicode="&#x301;" horiz-adv-x="0" 
d="M-215 733q6 5 13.5 7t15.5 -3l82 -61q15 -11 1 -25q-28 -28 -61.5 -50t-79.5 -43q-17 -8 -29 1l-59 44q-11 9 -2 18z" />
    <glyph glyph-name="uni0302" unicode="&#x302;" horiz-adv-x="0" 
d="M-242 634l-122 -77q-12 -8 -23 1l-47 36q-11 10 -1 22q26 33 50 57.5t49 44.5q8 7 15 9.5t18 2.5h122q11 0 18 -2.5t15 -9.5q25 -20 49 -44.5t50 -57.5q10 -12 -1 -22l-47 -36q-11 -9 -23 -1z" />
    <glyph glyph-name="tildecomb" unicode="&#x303;" horiz-adv-x="0" 
d="M-223 699q10 -6 18 -11.5t18 -5.5q20 0 20 20v10q0 9 3 12.5t13 3.5h74q11 0 16 -6t9 -15q5 -11 6 -22t1 -22q0 -51 -32 -73.5t-80 -22.5q-33 0 -55.5 7t-48.5 24q-10 6 -18 11.5t-18 5.5q-20 0 -20 -20v-10q0 -9 -3 -12.5t-13 -3.5h-74q-11 0 -16 6t-9 15q-5 11 -6 22
t-1 22q0 51 32 73.5t80 22.5q33 0 55.5 -7t48.5 -24z" />
    <glyph glyph-name="uni0304" unicode="&#x304;" horiz-adv-x="0" 
d="M-398 591q-21 0 -21 20v70q0 20 21 20h312q21 0 21 -20v-70q0 -20 -21 -20h-312z" />
    <glyph glyph-name="uni0306" unicode="&#x306;" horiz-adv-x="0" 
d="M-242 659q32 0 55.5 14.5t30.5 41.5q2 8 6.5 12.5t13.5 4.5h63q19 0 19 -18q0 -38 -14 -68t-39 -52t-59.5 -33.5t-75.5 -11.5t-75.5 11.5t-59.5 33.5t-39 52t-14 68q0 18 19 18h63q9 0 13.5 -4.5t6.5 -12.5q7 -27 30.5 -41.5t55.5 -14.5z" />
    <glyph glyph-name="uni0307" unicode="&#x307;" horiz-adv-x="0" 
d="M-312 570q-20 0 -20 21v106q0 21 20 21h140q20 0 20 -21v-18q0 -13 -5.5 -37t-17.5 -51q-4 -8 -11.5 -14.5t-18.5 -6.5h-107z" />
    <glyph glyph-name="uni0308" unicode="&#x308;" horiz-adv-x="0" 
d="M-187 570q-20 0 -20 21v106q0 21 20 21h120q20 0 20 -21v-18q0 -13 -5.5 -37t-17.5 -51q-4 -8 -11.5 -14.5t-18.5 -6.5h-87zM-297 718q20 0 20 -21v-106q0 -21 -20 -21h-120q-20 0 -20 21v18q0 13 5.5 37t17.5 51q4 8 11.5 14.5t18.5 6.5h87z" />
    <glyph glyph-name="uni030A" unicode="&#x30a;" horiz-adv-x="0" 
d="M-242 763q60 0 98 -26t38 -88t-38 -88t-98 -26t-98 26t-38 88t38 88t98 26zM-242 611q15 0 23.5 8.5t8.5 29.5t-8.5 29.5t-23.5 8.5t-23.5 -8.5t-8.5 -29.5t8.5 -29.5t23.5 -8.5z" />
    <glyph glyph-name="uni030C" unicode="&#x30c;" horiz-adv-x="0" 
d="M-120 738q12 8 23 -1l47 -36q11 -10 1 -22q-26 -33 -50 -57.5t-49 -44.5q-8 -7 -15 -9.5t-18 -2.5h-122q-11 0 -18 2.5t-15 9.5q-25 20 -49 44.5t-50 57.5q-10 12 1 22l47 36q11 9 23 1l122 -77z" />
    <glyph glyph-name="uni0327" unicode="&#x327;" horiz-adv-x="0" 
d="M-356 -177q0 15 17 10q11 -3 22.5 -5t22.5 -2q14 0 23 8t9 22q0 23 -15.5 31.5t-44.5 8.5q-10 0 -12.5 7.5t2.5 17.5l59 99h104l-36 -72q40 -12 61.5 -34.5t21.5 -57.5q0 -27 -10.5 -47.5t-29 -34t-42.5 -20.5t-51 -7q-19 0 -43.5 4.5t-38.5 11.5q-11 5 -15 9t-4 13v38z
" />
    <glyph glyph-name="tonos" unicode="&#x384;" horiz-adv-x="472" 
d="M203 743q7 16 24 9l99 -38q14 -5 8 -23q-17 -41 -46.5 -88.5t-64.5 -90.5q-10 -13 -26 -7l-67 25q-16 5 -10 21z" />
    <glyph glyph-name="dieresistonos" unicode="&#x385;" horiz-adv-x="472" 
d="M321 474q-20 0 -20 21v106q0 21 20 21h120q20 0 20 -21v-18q0 -13 -5.5 -37t-17.5 -51q-4 -8 -11.5 -14.5t-18.5 -6.5h-87zM151 622q20 0 20 -21v-106q0 -21 -20 -21h-120q-20 0 -20 21v18q0 13 5.5 37t17.5 51q4 8 11.5 14.5t18.5 6.5h87zM236 774q4 8 12 11.5t17 -1.5
l94 -43q8 -4 10.5 -11.5t-2.5 -15.5q-17 -24 -42.5 -55t-53.5 -57q-14 -14 -30 -6l-60 28q-18 9 -8 27z" />
    <glyph glyph-name="Alphatonos" unicode="&#x386;" horiz-adv-x="711" 
d="M104 0q-11 0 -14.5 6.5t-1.5 16.5l152 658q2 8 8 13.5t19 5.5h250q13 0 19 -5.5t8 -13.5l152 -658q2 -10 -1.5 -16.5t-14.5 -6.5h-177q-20 0 -23 17l-18 105h-140l-18 -105q-3 -17 -23 -17h-177zM392 534l-46 -268h91zM71 713q7 16 24 9l99 -38q14 -5 8 -23
q-17 -41 -46.5 -88.5t-64.5 -90.5q-10 -13 -26 -7l-67 25q-16 5 -10 21z" />
    <glyph glyph-name="anoteleia" unicode="&#x387;" horiz-adv-x="300" 
d="M96 285q-14 0 -22 7.5t-13 18.5q-11 28 -17 65t-6 63v18q0 21 20 21h180q20 0 20 -21v-151q0 -21 -20 -21h-142z" />
    <glyph glyph-name="Epsilontonos" unicode="&#x388;" horiz-adv-x="750" 
d="M440 436h209q21 0 21 -20v-126q0 -20 -21 -20h-209v-64q0 -28 8.5 -40t36.5 -12h197q17 0 17 -17v-113q0 -23 -23 -24q-66 -5 -134.5 -8.5t-137.5 -3.5q-50 0 -85 9.5t-57 29.5t-32 49.5t-10 70.5v406q0 81 42.5 120t141.5 39q68 0 132 -3t130 -9q23 -1 23 -24v-113
q0 -17 -17 -17h-187q-28 0 -36.5 -12t-8.5 -40v-58zM71 713q7 16 24 9l99 -38q14 -5 8 -23q-17 -41 -46.5 -88.5t-64.5 -90.5q-10 -13 -26 -7l-67 25q-16 5 -10 21z" />
    <glyph glyph-name="Etatonos" unicode="&#x389;" horiz-adv-x="862" 
d="M576 277h-121v-260q0 -17 -17 -17h-186q-17 0 -17 17v666q0 17 17 17h186q17 0 17 -17v-240h121v240q0 17 17 17h186q17 0 17 -17v-666q0 -17 -17 -17h-186q-17 0 -17 17v260zM71 713q7 16 24 9l99 -38q14 -5 8 -23q-17 -41 -46.5 -88.5t-64.5 -90.5q-10 -13 -26 -7
l-67 25q-16 5 -10 21z" />
    <glyph glyph-name="Iotatonos" unicode="&#x38a;" horiz-adv-x="488" 
d="M455 21q0 -21 -20 -21h-180q-20 0 -20 21v658q0 21 20 21h180q20 0 20 -21v-658zM71 713q7 16 24 9l99 -38q14 -5 8 -23q-17 -41 -46.5 -88.5t-64.5 -90.5q-10 -13 -26 -7l-67 25q-16 5 -10 21z" />
    <glyph glyph-name="Omicrontonos" unicode="&#x38c;" horiz-adv-x="829" 
d="M479 -12q-80 0 -137.5 21.5t-94.5 64t-54.5 106t-17.5 147.5v46q0 84 17.5 147.5t54.5 106t94.5 64t137.5 21.5q160 0 232 -85t72 -254v-46q0 -169 -72 -254t-232 -85zM563 368q0 48 -3 82t-12 55.5t-25.5 31t-43.5 9.5t-43.5 -9.5t-25.5 -31t-12 -55.5t-3 -82v-36
q0 -48 3 -82t12 -55.5t25.5 -31t43.5 -9.5t43.5 9.5t25.5 31t12 55.5t3 82v36zM71 713q7 16 24 9l99 -38q14 -5 8 -23q-17 -41 -46.5 -88.5t-64.5 -90.5q-10 -13 -26 -7l-67 25q-16 5 -10 21z" />
    <glyph glyph-name="Upsilontonos" unicode="&#x38e;" horiz-adv-x="869" 
d="M642 678q5 11 11.5 16.5t20.5 5.5h165q13 0 17 -7.5t0 -15.5l-203 -442v-214q0 -21 -20 -21h-180q-20 0 -20 21v212l-203 444q-4 8 0 15.5t17 7.5h165q14 0 20.5 -5.5t11.5 -16.5l99 -236zM71 713q7 16 24 9l99 -38q14 -5 8 -23q-17 -41 -46.5 -88.5t-64.5 -90.5
q-10 -13 -26 -7l-67 25q-16 5 -10 21z" />
    <glyph glyph-name="Omegatonos" unicode="&#x38f;" horiz-adv-x="829" 
d="M479 546q42 0 63 -32.5t21 -114.5v-11q0 -51 -10.5 -103.5t-36.5 -102.5q-5 -10 -11.5 -22t-6.5 -24v-116q0 -20 21 -20h233q21 0 21 20v126q0 20 -21 20h-64q53 52 74 110t21 112v16q0 147 -78.5 227.5t-225.5 80.5t-225.5 -80.5t-78.5 -227.5v-16q0 -54 21 -112
t74 -110h-64q-21 0 -21 -20v-126q0 -20 21 -20h233q21 0 21 20v116q0 12 -6.5 24t-11.5 22q-26 50 -36.5 102.5t-10.5 103.5v11q0 82 21 114.5t63 32.5zM71 713q7 16 24 9l99 -38q14 -5 8 -23q-17 -41 -46.5 -88.5t-64.5 -90.5q-10 -13 -26 -7l-67 25q-16 5 -10 21z" />
    <glyph glyph-name="iotadieresistonos" unicode="&#x390;" horiz-adv-x="407" 
d="M56 188q0 -91 48 -143.5t153 -52.5q68 0 130 17q19 5 19 23v108q0 17 -17 14q-12 -2 -27 -3t-28 -1q-43 0 -57.5 17.5t-14.5 50.5v279q0 21 -20 21h-166q-20 0 -20 -21v-309zM252 546q-20 0 -20 21v106q0 21 20 21h120q20 0 20 -21v-18q0 -13 -5.5 -37t-17.5 -51
q-4 -8 -11.5 -14.5t-18.5 -6.5h-87zM82 694q20 0 20 -21v-106q0 -21 -20 -21h-120q-20 0 -20 21v18q0 13 5.5 37t17.5 51q4 8 11.5 14.5t18.5 6.5h87zM167 846q4 8 12 11.5t17 -1.5l94 -43q8 -4 10.5 -11.5t-2.5 -15.5q-17 -24 -42.5 -55t-53.5 -57q-14 -14 -30 -6l-60 28
q-18 9 -8 27z" />
    <glyph glyph-name="Alpha" unicode="&#x391;" horiz-adv-x="638" 
d="M31 0q-11 0 -14.5 6.5t-1.5 16.5l152 658q2 8 8 13.5t19 5.5h250q13 0 19 -5.5t8 -13.5l152 -658q2 -10 -1.5 -16.5t-14.5 -6.5h-177q-20 0 -23 17l-18 105h-140l-18 -105q-3 -17 -23 -17h-177zM319 534l-46 -268h91z" />
    <glyph glyph-name="Beta" unicode="&#x392;" horiz-adv-x="652" 
d="M266 427h66q36 0 49.5 19t13.5 51q0 30 -15.5 48.5t-57.5 18.5q-11 0 -28.5 -1.5t-27.5 -3.5v-132zM66 625q0 32 10 47.5t36 21.5q42 10 97.5 14t112.5 4q138 0 200 -52t62 -145q0 -48 -20 -83t-61 -63q57 -20 82.5 -62.5t25.5 -96.5q0 -57 -14.5 -98.5t-47 -69t-84 -41
t-126.5 -13.5q-66 0 -126.5 4.5t-100.5 13.5q-26 6 -36 21.5t-10 47.5v550zM266 141q18 -3 36 -4t36 -1q32 0 52.5 17t20.5 60q0 36 -16 57t-52 21h-77v-150z" />
    <glyph glyph-name="Gamma" unicode="&#x393;" horiz-adv-x="560" 
d="M286 534v-513q0 -21 -20 -21h-180q-20 0 -20 21v658q0 21 20 21h447q21 0 21 -20v-126q0 -20 -21 -20h-247z" />
    <glyph glyph-name="uni0394" unicode="&#x394;" horiz-adv-x="606" 
d="M38 0q-22 0 -22 23v78q0 11 1 20.5t4 23.5l130 536q2 8 8 13.5t19 5.5h250q13 0 19 -5.5t8 -13.5l130 -536q3 -14 4 -23.5t1 -20.5v-78q0 -23 -22 -23h-530zM303 584l-104 -440h207z" />
    <glyph glyph-name="Epsilon" unicode="&#x395;" horiz-adv-x="596" 
d="M286 436h209q21 0 21 -20v-126q0 -20 -21 -20h-209v-64q0 -28 8.5 -40t36.5 -12h197q17 0 17 -17v-113q0 -23 -23 -24q-66 -5 -134.5 -8.5t-137.5 -3.5q-50 0 -85 9.5t-57 29.5t-32 49.5t-10 70.5v406q0 81 42.5 120t141.5 39q68 0 132 -3t130 -9q23 -1 23 -24v-113
q0 -17 -17 -17h-187q-28 0 -36.5 -12t-8.5 -40v-58z" />
    <glyph glyph-name="Zeta" unicode="&#x396;" horiz-adv-x="581" 
d="M47 0q-21 0 -21 20v124q0 14 2.5 24.5t10.5 21.5l267 344h-242q-21 0 -21 20v126q0 20 21 20h460q21 0 21 -20v-119q0 -14 -2.5 -24.5t-10.5 -21.5l-271 -349h273q21 0 21 -20v-126q0 -20 -21 -20h-487z" />
    <glyph glyph-name="Eta" unicode="&#x397;" horiz-adv-x="693" 
d="M407 277h-121v-260q0 -17 -17 -17h-186q-17 0 -17 17v666q0 17 17 17h186q17 0 17 -17v-240h121v240q0 17 17 17h186q17 0 17 -17v-666q0 -17 -17 -17h-186q-17 0 -17 17v260z" />
    <glyph glyph-name="Theta" unicode="&#x398;" horiz-adv-x="700" 
d="M311 294q-21 0 -21 20v72q0 20 21 20h78q21 0 21 -20v-72q0 -20 -21 -20h-78zM350 -12q-80 0 -137.5 21.5t-94.5 64t-54.5 106t-17.5 147.5v46q0 84 17.5 147.5t54.5 106t94.5 64t137.5 21.5q160 0 232 -85t72 -254v-46q0 -169 -72 -254t-232 -85zM434 368q0 48 -3 82
t-12 55.5t-25.5 31t-43.5 9.5t-43.5 -9.5t-25.5 -31t-12 -55.5t-3 -82v-36q0 -48 3 -82t12 -55.5t25.5 -31t43.5 -9.5t43.5 9.5t25.5 31t12 55.5t3 82v36z" />
    <glyph glyph-name="Iota" unicode="&#x399;" horiz-adv-x="372" 
d="M296 21q0 -21 -20 -21h-180q-20 0 -20 21v658q0 21 20 21h180q20 0 20 -21v-658z" />
    <glyph glyph-name="Kappa" unicode="&#x39a;" horiz-adv-x="648" 
d="M462 363l182 -340q4 -7 2 -15t-14 -8h-187q-14 0 -22 5.5t-13 16.5l-124 274v-275q0 -21 -20 -21h-180q-20 0 -20 21v658q0 21 20 21h180q20 0 20 -21v-249l114 248q5 11 12 16.5t22 5.5h173q12 0 14 -7.5t-2 -15.5z" />
    <glyph glyph-name="Lambda" unicode="&#x39b;" horiz-adv-x="638" 
d="M319 534l-88 -517q-3 -17 -23 -17h-177q-11 0 -14.5 6.5t-1.5 16.5l152 658q2 8 8 13.5t19 5.5h250q13 0 19 -5.5t8 -13.5l152 -658q2 -10 -1.5 -16.5t-14.5 -6.5h-177q-20 0 -23 17z" />
    <glyph glyph-name="Mu" unicode="&#x39c;" horiz-adv-x="876" 
d="M388 168q-29 0 -39 26l-78 196v-373q0 -17 -17 -17h-171q-17 0 -17 17v666q0 17 17 17h183q22 0 32 -6t16 -20l124 -300l124 300q6 14 16 20t32 6h183q17 0 17 -17v-666q0 -17 -17 -17h-171q-17 0 -17 17v373l-78 -196q-10 -26 -39 -26h-100z" />
    <glyph glyph-name="Nu" unicode="&#x39d;" horiz-adv-x="738" 
d="M467 288v395q0 17 17 17h171q17 0 17 -17v-666q0 -17 -17 -17h-215q-23 0 -33 5.5t-15 20.5l-121 386v-395q0 -17 -17 -17h-171q-17 0 -17 17v666q0 17 17 17h215q23 0 33 -5.5t15 -20.5z" />
    <glyph glyph-name="Xi" unicode="&#x39e;" horiz-adv-x="628" 
d="M67 534q-21 0 -21 20v126q0 20 21 20h494q21 0 21 -20v-126q0 -20 -21 -20h-494zM67 0q-21 0 -21 20v126q0 20 21 20h494q21 0 21 -20v-126q0 -20 -21 -20h-494zM117 270q-21 0 -21 20v126q0 20 21 20h394q21 0 21 -20v-126q0 -20 -21 -20h-394z" />
    <glyph glyph-name="Omicron" unicode="&#x39f;" horiz-adv-x="700" 
d="M350 -12q-80 0 -137.5 21.5t-94.5 64t-54.5 106t-17.5 147.5v46q0 84 17.5 147.5t54.5 106t94.5 64t137.5 21.5q160 0 232 -85t72 -254v-46q0 -169 -72 -254t-232 -85zM434 368q0 48 -3 82t-12 55.5t-25.5 31t-43.5 9.5t-43.5 -9.5t-25.5 -31t-12 -55.5t-3 -82v-36
q0 -48 3 -82t12 -55.5t25.5 -31t43.5 -9.5t43.5 9.5t25.5 31t12 55.5t3 82v36z" />
    <glyph glyph-name="Pi" unicode="&#x3a0;" horiz-adv-x="723" 
d="M86 0q-20 0 -20 21v658q0 21 20 21h551q20 0 20 -21v-658q0 -21 -20 -21h-180q-20 0 -20 21v513h-151v-513q0 -21 -20 -21h-180z" />
    <glyph glyph-name="Rho" unicode="&#x3a1;" horiz-adv-x="622" 
d="M66 625q0 32 10 47.5t36 21.5q42 10 99.5 14t114.5 4q136 0 198 -56.5t62 -162.5v-49q0 -53 -12.5 -95t-39.5 -70.5t-70.5 -43.5t-104.5 -15q-17 0 -40 1.5t-43 4.5v-205q0 -21 -20 -21h-170q-20 0 -20 21v604zM276 371q10 -2 22.5 -2.5t23.5 -0.5q34 0 46.5 24t12.5 63
v24q0 39 -12.5 62t-46.5 23q-11 0 -24.5 -1t-21.5 -4v-188z" />
    <glyph glyph-name="Sigma" unicode="&#x3a3;" horiz-adv-x="560" 
d="M44 531q-13 16 -20.5 28.5t-7.5 32.5v88q0 20 21 20h496q21 0 21 -20v-126q0 -20 -21 -20h-233l88 -101q11 -14 19.5 -26t8.5 -27v-26q0 -15 -8.5 -31.5t-19.5 -31.5l-88 -125h233q21 0 21 -20v-126q0 -20 -21 -20h-496q-21 0 -21 20v88q0 20 8 32t20 29l139 198z" />
    <glyph glyph-name="Tau" unicode="&#x3a4;" horiz-adv-x="552" 
d="M386 534v-513q0 -21 -20 -21h-180q-20 0 -20 21v513h-137q-21 0 -21 20v126q0 20 21 20h494q21 0 21 -20v-126q0 -20 -21 -20h-137z" />
    <glyph glyph-name="Upsilon" unicode="&#x3a5;" horiz-adv-x="652" 
d="M425 678q5 11 11.5 16.5t20.5 5.5h165q13 0 17 -7.5t0 -15.5l-203 -442v-214q0 -21 -20 -21h-180q-20 0 -20 21v212l-203 444q-4 8 0 15.5t17 7.5h165q14 0 20.5 -5.5t11.5 -16.5l99 -236z" />
    <glyph glyph-name="Phi" unicode="&#x3a6;" horiz-adv-x="758" 
d="M284 679q0 21 20 21h150q20 0 20 -21v-73q125 -14 196.5 -75.5t71.5 -180.5t-71.5 -181t-196.5 -76v-72q0 -21 -20 -21h-150q-20 0 -20 21v72q-125 14 -196.5 76t-71.5 181t71.5 180.5t196.5 75.5v73zM553 350q0 47 -20.5 71.5t-58.5 34.5v-212q38 10 58.5 34t20.5 72z
M205 350q0 -48 20.5 -72t58.5 -34v212q-38 -10 -58.5 -34.5t-20.5 -71.5z" />
    <glyph glyph-name="Chi" unicode="&#x3a7;" horiz-adv-x="631" 
d="M393 678q5 11 11.5 16.5t20.5 5.5h165q13 0 17 -7.5t0 -15.5l-144 -318l154 -336q4 -8 0 -15.5t-17 -7.5h-165q-14 0 -20.5 5.5t-11.5 16.5l-88 211l-87 -211q-5 -11 -11.5 -16.5t-20.5 -5.5h-165q-13 0 -17 7.5t0 15.5l154 336l-144 318q-4 8 0 15.5t17 7.5h165
q14 0 21 -5.5t11 -16.5l77 -193z" />
    <glyph glyph-name="Psi" unicode="&#x3a8;" horiz-adv-x="764" 
d="M698 429q0 -52 -11.5 -100t-38.5 -87.5t-71 -67.5t-110 -39v-114q0 -21 -20 -21h-130q-20 0 -20 21v114q-66 11 -110.5 39t-71 67.5t-38 87.5t-11.5 100v250q0 21 20 21h128q20 0 20 -21v-246q0 -48 14 -81t49 -50v377q0 21 20 21h130q20 0 20 -21v-377q35 17 49 50
t14 81v246q0 21 20 21h128q20 0 20 -21v-250z" />
    <glyph glyph-name="uni03A9" unicode="&#x3a9;" horiz-adv-x="700" 
d="M350 546q-42 0 -63 -32.5t-21 -114.5v-11q0 -51 10.5 -103.5t36.5 -102.5q5 -10 11.5 -22t6.5 -24v-116q0 -20 -21 -20h-233q-21 0 -21 20v126q0 20 21 20h64q-53 52 -74 110t-21 112v16q0 147 78.5 227.5t225.5 80.5t225.5 -80.5t78.5 -227.5v-16q0 -54 -21 -112
t-74 -110h64q21 0 21 -20v-126q0 -20 -21 -20h-233q-21 0 -21 20v116q0 12 6.5 24t11.5 22q26 50 36.5 102.5t10.5 103.5v11q0 82 -21 114.5t-63 32.5z" />
    <glyph glyph-name="Iotadieresis" unicode="&#x3aa;" horiz-adv-x="372" 
d="M296 21q0 -21 -20 -21h-180q-20 0 -20 21v658q0 21 20 21h180q20 0 20 -21v-658zM241 764q-20 0 -20 21v106q0 21 20 21h120q20 0 20 -21v-18q0 -13 -5.5 -37t-17.5 -51q-4 -8 -11.5 -14.5t-18.5 -6.5h-87zM131 912q20 0 20 -21v-106q0 -21 -20 -21h-120q-20 0 -20 21v18
q0 13 5.5 37t17.5 51q4 8 11.5 14.5t18.5 6.5h87z" />
    <glyph glyph-name="Upsilondieresis" unicode="&#x3ab;" horiz-adv-x="652" 
d="M425 678q5 11 11.5 16.5t20.5 5.5h165q13 0 17 -7.5t0 -15.5l-203 -442v-214q0 -21 -20 -21h-180q-20 0 -20 21v212l-203 444q-4 8 0 15.5t17 7.5h165q14 0 20.5 -5.5t11.5 -16.5l99 -236zM381 764q-20 0 -20 21v106q0 21 20 21h120q20 0 20 -21v-18q0 -13 -5.5 -37
t-17.5 -51q-4 -8 -11.5 -14.5t-18.5 -6.5h-87zM271 912q20 0 20 -21v-106q0 -21 -20 -21h-120q-20 0 -20 21v18q0 13 5.5 37t17.5 51q4 8 11.5 14.5t18.5 6.5h87z" />
    <glyph glyph-name="alphatonos" unicode="&#x3ac;" horiz-adv-x="645" 
d="M458 507q3 11 15 11h129q11 0 14.5 -6t0.5 -15l-94 -255l8 -38q9 -38 21 -58t34 -20q14 0 33 7q8 3 13 -1.5t5 -12.5v-87q0 -15 -19 -23q-18 -8 -38.5 -12.5t-52.5 -4.5q-38 0 -59 17.5t-37 53.5q-32 -35 -71 -53t-90 -18q-65 0 -111.5 17.5t-76 51t-43 83.5t-13.5 115
q0 59 16 108t45.5 84.5t72 55t96.5 19.5q69 0 111.5 -18.5t71.5 -65.5zM273 392q-40 0 -55.5 -36t-15.5 -97q0 -69 18 -101t56 -32q24 0 41.5 9.5t29.5 26t20 38t15 45.5q-8 40 -17.5 68t-22 45.5t-29.5 25.5t-40 8zM343 753q6 5 13.5 7t15.5 -3l82 -61q15 -11 1 -25
q-28 -28 -61.5 -50t-79.5 -43q-17 -8 -29 1l-59 44q-11 9 -2 18z" />
    <glyph glyph-name="epsilontonos" unicode="&#x3ad;" horiz-adv-x="534" 
d="M46 143q0 39 15.5 67.5t55.5 49.5q-20 11 -33 22.5t-20.5 24.5t-10.5 27.5t-3 32.5q0 74 55 116.5t182 42.5h17q41 0 87 -7t81 -19q19 -6 19 -23v-90q0 -16 -17 -14q-35 3 -67 6t-65 3h-17q-39 0 -54 -7t-15 -21t9 -19t28 -5h104q21 0 21 -20v-93q0 -20 -21 -20h-99
q-19 0 -32 -7t-13 -24t15 -23.5t52 -6.5h30q77 0 143 9q15 2 15 -13v-91q0 -17 -19 -23q-36 -13 -81 -19.5t-90 -6.5h-13q-57 0 -104.5 8t-82 25.5t-53.5 46.5t-19 71zM299 753q6 5 13.5 7t15.5 -3l82 -61q15 -11 1 -25q-28 -28 -61.5 -50t-79.5 -43q-17 -8 -29 1l-59 44
q-11 9 -2 18z" />
    <glyph glyph-name="etatonos" unicode="&#x3ae;" horiz-adv-x="612" 
d="M561 -172q0 -21 -20 -21h-166q-20 0 -20 21v473q0 42 -12 56.5t-45 14.5q-7 0 -16.5 -0.5t-19.5 -1.5v-349q0 -21 -20 -21h-166q-20 0 -20 21v434q0 40 30 48q21 6 49 10t57.5 7t59 4.5t55.5 1.5q68 0 116 -11.5t79 -38t45 -69.5t14 -105v-474zM305 753q6 5 13.5 7
t15.5 -3l82 -61q15 -11 1 -25q-28 -28 -61.5 -50t-79.5 -43q-17 -8 -29 1l-59 44q-11 9 -2 18z" />
    <glyph glyph-name="iotatonos" unicode="&#x3af;" horiz-adv-x="407" 
d="M56 188q0 -91 48 -143.5t153 -52.5q68 0 130 17q19 5 19 23v108q0 17 -17 14q-12 -2 -27 -3t-28 -1q-43 0 -57.5 17.5t-14.5 50.5v279q0 21 -20 21h-166q-20 0 -20 -21v-309zM201 753q6 5 13.5 7t15.5 -3l82 -61q15 -11 1 -25q-28 -28 -61.5 -50t-79.5 -43q-17 -8 -29 1
l-59 44q-11 9 -2 18z" />
    <glyph glyph-name="upsilondieresistonos" unicode="&#x3b0;" horiz-adv-x="601" 
d="M74 222q0 -112 60 -171t182 -59q128 0 188.5 64t60.5 187q0 72 -20 133.5t-57 123.5q-11 18 -31 18h-141q-11 0 -15 -6.5t0 -14.5q28 -58 43 -124.5t15 -124.5q0 -51 -7 -76.5t-34 -25.5q-23 0 -30.5 26t-7.5 73v124q0 87 -42.5 122t-117.5 35q-20 0 -40.5 -2.5
t-52.5 -9.5q-19 -5 -19 -23v-105q0 -14 16 -14h19q16 0 23.5 -11.5t7.5 -49.5v-89zM371 546q-20 0 -20 21v106q0 21 20 21h120q20 0 20 -21v-18q0 -13 -5.5 -37t-17.5 -51q-4 -8 -11.5 -14.5t-18.5 -6.5h-87zM201 694q20 0 20 -21v-106q0 -21 -20 -21h-120q-20 0 -20 21v18
q0 13 5.5 37t17.5 51q4 8 11.5 14.5t18.5 6.5h87zM286 846q4 8 12 11.5t17 -1.5l94 -43q8 -4 10.5 -11.5t-2.5 -15.5q-17 -24 -42.5 -55t-53.5 -57q-14 -14 -30 -6l-60 28q-18 9 -8 27z" />
    <glyph glyph-name="alpha" unicode="&#x3b1;" horiz-adv-x="645" 
d="M458 507q3 11 15 11h129q11 0 14.5 -6t0.5 -15l-94 -255l8 -38q9 -38 21 -58t34 -20q14 0 33 7q8 3 13 -1.5t5 -12.5v-87q0 -15 -19 -23q-18 -8 -38.5 -12.5t-52.5 -4.5q-38 0 -59 17.5t-37 53.5q-32 -35 -71 -53t-90 -18q-65 0 -111.5 17.5t-76 51t-43 83.5t-13.5 115
q0 59 16 108t45.5 84.5t72 55t96.5 19.5q69 0 111.5 -18.5t71.5 -65.5zM273 392q-40 0 -55.5 -36t-15.5 -97q0 -69 18 -101t56 -32q24 0 41.5 9.5t29.5 26t20 38t15 45.5q-8 40 -17.5 68t-22 45.5t-29.5 25.5t-40 8z" />
    <glyph glyph-name="beta" unicode="&#x3b2;" horiz-adv-x="611" 
d="M267 14q-19 11 -19 29v78q0 8 5 10.5t12 0.5q11 -3 30.5 -4.5t32.5 -1.5q42 0 61 23.5t19 64.5q0 39 -22 63.5t-79 24.5q-17 0 -17 17v100q0 17 17 17q77 0 77 88q0 38 -17.5 59t-57.5 21q-42 0 -61.5 -25.5t-19.5 -74.5v-680q0 -17 -17 -17h-138q-17 0 -17 17v662
q0 132 64.5 192t194.5 60q56 0 101 -15t76 -42t47.5 -64.5t16.5 -82.5q0 -48 -15 -84t-62 -67q54 -24 77.5 -66.5t23.5 -102.5q0 -47 -11 -87.5t-35 -70.5t-62.5 -47t-94.5 -17q-32 0 -62 5.5t-48 16.5z" />
    <glyph glyph-name="gamma" unicode="&#x3b3;" horiz-adv-x="611" 
d="M305 -199q-47 0 -83.5 15.5t-61.5 40.5t-38 57.5t-13 67.5q0 52 23 103t65 117l-193 293q-5 8 -2 15.5t14 7.5h190q7 0 10 -3t5 -8l84 -161l84 161q2 5 5 8t10 3h190q11 0 14 -7.5t-2 -15.5l-193 -293q42 -66 65 -117t23 -103q0 -35 -13 -67.5t-38 -57.5t-61.5 -40.5
t-83.5 -15.5zM305 -67q16 0 22.5 14t6.5 35q0 15 -6 32.5t-23 44.5q-17 -27 -23 -44.5t-6 -32.5q0 -21 6.5 -35t22.5 -14z" />
    <glyph glyph-name="delta" unicode="&#x3b4;" horiz-adv-x="568" 
d="M52 710q0 20 21 20h405q21 0 21 -20v-94q0 -20 -21 -20h-188l151 -106q51 -36 76 -85.5t25 -125.5v-40q0 -124 -66 -185.5t-192 -61.5t-192 61.5t-66 185.5v40q0 103 44.5 161t120.5 75l-110 69q-16 11 -22.5 20.5t-6.5 25.5v80zM336 277q0 53 -10 74t-42 21t-42 -21
t-10 -74v-36q0 -54 10 -74.5t42 -20.5t42 20.5t10 74.5v36z" />
    <glyph glyph-name="epsilon" unicode="&#x3b5;" horiz-adv-x="534" 
d="M46 143q0 39 15.5 67.5t55.5 49.5q-20 11 -33 22.5t-20.5 24.5t-10.5 27.5t-3 32.5q0 74 55 116.5t182 42.5h17q41 0 87 -7t81 -19q19 -6 19 -23v-90q0 -16 -17 -14q-35 3 -67 6t-65 3h-17q-39 0 -54 -7t-15 -21t9 -19t28 -5h104q21 0 21 -20v-93q0 -20 -21 -20h-99
q-19 0 -32 -7t-13 -24t15 -23.5t52 -6.5h30q77 0 143 9q15 2 15 -13v-91q0 -17 -19 -23q-36 -13 -81 -19.5t-90 -6.5h-13q-57 0 -104.5 8t-82 25.5t-53.5 46.5t-19 71z" />
    <glyph glyph-name="zeta" unicode="&#x3b6;" horiz-adv-x="521" 
d="M520 630q0 -16 -7 -25t-22 -21q-83 -65 -132 -112t-75 -83t-34 -65.5t-8 -60.5q0 -20 10 -42t46 -41q17 -9 42 -17t55 -15q62 -14 87.5 -36.5t25.5 -64.5q0 -22 -7 -41.5t-21 -42.5q-12 -22 -23.5 -39.5t-23.5 -34t-25.5 -32.5t-29.5 -34q-7 -8 -13.5 -12t-15.5 -4h-153
q-11 0 -13 9t5 18l105 141q9 12 9 25q0 12 -12 15q-23 5 -47.5 11t-48 13.5t-43.5 17t-35 20.5q-38 29 -59 70.5t-21 101.5q0 39 10.5 79t37.5 83t75 89t123 96h-188q-21 0 -21 20v94q0 20 21 20h405q21 0 21 -20v-80z" />
    <glyph glyph-name="eta" unicode="&#x3b7;" horiz-adv-x="612" 
d="M561 -172q0 -21 -20 -21h-166q-20 0 -20 21v473q0 42 -12 56.5t-45 14.5q-7 0 -16.5 -0.5t-19.5 -1.5v-349q0 -21 -20 -21h-166q-20 0 -20 21v434q0 40 30 48q21 6 49 10t57.5 7t59 4.5t55.5 1.5q68 0 116 -11.5t79 -38t45 -69.5t14 -105v-474z" />
    <glyph glyph-name="theta" unicode="&#x3b8;" horiz-adv-x="616" 
d="M308 -8q-79 0 -131 25t-83.5 71t-44.5 110.5t-13 143.5v46q0 79 13 143.5t44.5 110.5t83.5 71t131 25t131 -25t83.5 -71t44.5 -110.5t13 -143.5v-46q0 -79 -13 -143.5t-44.5 -110.5t-83.5 -71t-131 -25zM308 584q-34 0 -48 -38.5t-17 -108.5h130q-3 70 -17.5 108.5
t-47.5 38.5zM308 146q33 0 47.5 38.5t17.5 108.5h-130q3 -70 17 -108.5t48 -38.5z" />
    <glyph glyph-name="iota" unicode="&#x3b9;" horiz-adv-x="407" 
d="M56 497q0 21 20 21h166q20 0 20 -21v-279q0 -33 14.5 -50.5t57.5 -17.5q13 0 28 1t27 3q17 3 17 -14v-108q0 -18 -19 -23q-62 -17 -130 -17q-105 0 -153 52.5t-48 143.5v309z" />
    <glyph glyph-name="kappa" unicode="&#x3ba;" horiz-adv-x="585" 
d="M580 27q5 -10 4 -18.5t-12 -8.5h-193q-9 0 -14 4t-9 12l-94 192v-187q0 -21 -20 -21h-166q-20 0 -20 21v471q0 11 4.5 18.5t15.5 7.5h166q11 0 15.5 -7.5t4.5 -18.5v-167l66 107q32 50 64 72t77 22q23 0 47 -4.5t42 -12.5q9 -4 14 -9t5 -15v-95q0 -17 -18 -10
q-9 3 -16.5 5t-16.5 2q-12 0 -24 -10.5t-30 -41.5l-35 -63z" />
    <glyph glyph-name="lambda" unicode="&#x3bb;" horiz-adv-x="617" 
d="M248 584q-67 0 -127 -9q-17 -3 -17 14v100q0 17 19 23q34 12 78.5 19t89.5 7q76 0 127.5 -14t83 -40t45.5 -63.5t14 -84.5v-515q0 -21 -20 -21h-166q-20 0 -20 21v341q-8 2 -19 2h-19q-31 0 -43 -15.5t-12 -41.5v-286q0 -21 -20 -21h-166q-20 0 -20 21v298
q0 102 43 150.5t131 48.5q38 0 68.5 -2.5t56.5 -11.5v24q0 31 -25.5 43.5t-81.5 12.5z" />
    <glyph glyph-name="uni03BC" unicode="&#x3bc;" horiz-adv-x="617" 
d="M262 217q0 -42 14.5 -56.5t47.5 -14.5q7 0 14 0.5t17 1.5v349q0 21 20 21h166q20 0 20 -21v-434q0 -41 -30 -48q-43 -11 -86 -17t-94 -6q-27 0 -48.5 4t-40.5 14v-182q0 -21 -20 -21h-166q-20 0 -20 21v669q0 21 20 21h166q20 0 20 -21v-280z" />
    <glyph glyph-name="nu" unicode="&#x3bd;" horiz-adv-x="585" 
d="M180 0q-30 0 -38 27l-134 470q-3 9 1 15t15 6h174q10 0 13.5 -4t5.5 -10l68 -367q38 47 53 101.5t15 109.5q0 39 -4 76t-13 73q-2 9 0.5 15t13.5 6h132q24 0 34 -18q43 -74 43 -157q0 -64 -24 -123t-67 -115q-19 -24 -39 -46t-46 -42q-13 -10 -27 -13.5t-30 -3.5h-146z
" />
    <glyph glyph-name="xi" unicode="&#x3be;" horiz-adv-x="531" 
d="M134 408q-59 21 -83.5 57.5t-24.5 79.5q0 39 14 74t43.5 61.5t75.5 42t109 15.5h21q38 0 80.5 -7.5t78.5 -18.5q19 -6 19 -23v-86q0 -14 -17 -14q-34 2 -64.5 3t-63.5 1q-52 0 -71 -16t-19 -41q0 -27 16 -42.5t47 -15.5h78q21 0 21 -20v-93q0 -20 -21 -20h-53
q-38 0 -62 -19t-24 -66q0 -50 71 -80q17 -7 46.5 -16t59.5 -16q31 -7 51 -16t32 -21t16.5 -27.5t4.5 -36.5q0 -22 -7 -41.5t-21 -42.5q-12 -22 -24 -39t-24.5 -33t-28 -32t-35.5 -36q-8 -8 -14 -12t-15 -4h-143q-11 0 -13 9t5 18l105 141q9 12 9 25q0 12 -12 15
q-47 10 -90.5 25t-83.5 38q-47 27 -71 67.5t-24 100.5q0 51 26 93.5t80 68.5z" />
    <glyph glyph-name="omicron" unicode="&#x3bf;" horiz-adv-x="568" 
d="M26 279q0 124 66 185.5t192 61.5t192 -61.5t66 -185.5v-40q0 -124 -66 -185.5t-192 -61.5t-192 61.5t-66 185.5v40zM336 277q0 53 -10 74t-42 21t-42 -21t-10 -74v-36q0 -54 10 -74.5t42 -20.5t42 20.5t10 74.5v36z" />
    <glyph glyph-name="pi" unicode="&#x3c0;" horiz-adv-x="653" 
d="M56 13q-24 3 -13 30q31 70 48 149.5t22 171.5h-81q-21 0 -21 20v114q0 20 21 20h584q21 0 21 -20v-114q0 -20 -21 -20h-87v-150q0 -33 10.5 -50.5t45.5 -17.5q9 0 18 1t17 3q17 3 17 -14v-102q0 -9 -5 -13.5t-14 -9.5q-19 -10 -43.5 -14.5t-51.5 -4.5q-49 0 -81.5 13.5
t-52 39t-28 62t-8.5 81.5v176h-63q-5 -104 -19 -192t-45 -164q-5 -11 -13 -14t-18 -1z" />
    <glyph glyph-name="rho" unicode="&#x3c1;" horiz-adv-x="594" 
d="M51 268q0 57 15 104.5t46.5 81.5t80 53t114.5 19q68 0 117 -19t81 -53t47.5 -81.5t15.5 -104.5v-36q0 -54 -13.5 -98t-40.5 -75.5t-67 -49t-93 -17.5q-11 0 -24 1t-26.5 3t-26 4.5t-20.5 5.5v-182q0 -17 -17 -17h-172q-17 0 -17 17v444zM290 146q19 0 32.5 4t22.5 14.5
t13 28.5t4 47v20q0 51 -10.5 80.5t-42.5 29.5t-42 -29.5t-10 -80.5v-112q8 -1 16.5 -1.5t16.5 -0.5z" />
    <glyph glyph-name="sigma1" unicode="&#x3c2;" horiz-adv-x="498" 
d="M339 372q-60 0 -83.5 -25.5t-23.5 -76.5v-22q0 -30 6.5 -49t17.5 -30.5t27 -16.5t34 -6q76 -7 115.5 -47t39.5 -111q0 -76 -46 -122t-138 -46q-23 0 -42.5 3.5t-41.5 10.5q-19 6 -19 23v59q0 17 17 14q8 -2 17 -3t18 -1q29 0 44 8.5t15 31.5q0 14 -8 21t-21 9
q-65 11 -110.5 30.5t-74.5 48.5t-42.5 68.5t-13.5 92.5v46q0 56 15 101t48 77t85.5 49t127.5 17q17 0 37.5 -2t40.5 -5.5t38 -8t32 -10.5q19 -8 19 -23v-100q0 -17 -17 -14q-26 5 -52.5 7t-60.5 2z" />
    <glyph glyph-name="sigma" unicode="&#x3c3;" horiz-adv-x="590" 
d="M26 271q0 122 64.5 184.5t188.5 62.5h284q21 0 21 -20v-114q0 -20 -21 -20h-40q11 -21 15 -44t4 -49v-32q0 -124 -66 -185.5t-192 -61.5t-192 61.5t-66 185.5v32zM336 269q0 50 -9.5 72.5t-42.5 22.5q-32 0 -42 -21t-10 -74v-28q0 -54 10 -74.5t42 -20.5t42 20.5t10 74.5
v28z" />
    <glyph glyph-name="tau" unicode="&#x3c4;" horiz-adv-x="518" 
d="M138 364h-111q-21 0 -21 20v114q0 20 21 20h454q21 0 21 -20v-114q0 -20 -21 -20h-137v-150q0 -33 12 -50.5t55 -17.5q12 0 27 1t30 3q17 2 17 -14v-102q0 -15 -19 -23q-22 -9 -49.5 -14t-56.5 -5q-64 0 -107 13.5t-68.5 39t-36 62t-10.5 81.5v176z" />
    <glyph glyph-name="upsilon" unicode="&#x3c5;" horiz-adv-x="601" 
d="M74 311q0 38 -7.5 49.5t-23.5 11.5h-19q-16 0 -16 14v105q0 18 19 23q32 7 52.5 9.5t40.5 2.5q75 0 117.5 -35t42.5 -122v-124q0 -47 7.5 -73t30.5 -26q27 0 34 25.5t7 76.5q0 58 -15 124.5t-43 124.5q-4 8 0 14.5t15 6.5h141q20 0 31 -18q37 -62 57 -123.5t20 -133.5
q0 -123 -60.5 -187t-188.5 -64q-122 0 -182 59t-60 171v89z" />
    <glyph glyph-name="phi" unicode="&#x3c6;" horiz-adv-x="728" 
d="M262 438q-29 -41 -39.5 -83.5t-10.5 -96.5q0 -71 55 -106v173q0 42 12 79t37.5 64t64.5 42.5t92 15.5q47 0 88.5 -13t72.5 -44.5t49.5 -84t18.5 -131.5q0 -116 -64.5 -177.5t-180.5 -77.5v-170q0 -21 -20 -21h-150q-20 0 -20 21v171q-115 16 -178 77.5t-63 176.5
q0 78 27.5 140t81.5 120q14 16 32 7l90 -47q9 -5 11 -14.5t-6 -20.5zM516 258q0 66 -5.5 99.5t-28.5 33.5q-16 0 -20.5 -17.5t-4.5 -46.5v-182q59 31 59 113z" />
    <glyph glyph-name="chi" unicode="&#x3c7;" horiz-adv-x="568" 
d="M284 357l58 148q5 13 23 13h165q14 0 16 -9t-3 -17l-146 -298l162 -361q4 -8 2.5 -17t-15.5 -9h-165q-18 0 -23 13l-74 206l-74 -206q-5 -13 -23 -13h-165q-14 0 -15.5 9t2.5 17l162 361l-146 298q-5 8 -3 17t16 9h165q18 0 23 -13z" />
    <glyph glyph-name="psi" unicode="&#x3c8;" horiz-adv-x="772" 
d="M291 -1q-51 10 -94 31t-74.5 54t-49 78t-17.5 102v233q0 21 20 21h146q20 0 20 -21v-232q0 -35 13 -60t36 -39v331q0 21 20 21h150q20 0 20 -21v-331q23 14 36 39t13 60v232q0 21 20 21h146q20 0 20 -21v-233q0 -57 -17.5 -102t-49 -78t-74.5 -54t-94 -31v-171
q0 -21 -20 -21h-150q-20 0 -20 21v171z" />
    <glyph glyph-name="omega" unicode="&#x3c9;" horiz-adv-x="790" 
d="M470 428q20 0 20 -21v-162q0 -99 38 -99q20 0 30 24t10 78q0 58 -13 124t-40 124q-5 9 -1 15.5t15 6.5h128q12 0 17.5 -4t10.5 -14q33 -57 51 -122.5t18 -134.5q0 -57 -9.5 -103.5t-34 -79.5t-66 -50.5t-105.5 -17.5q-45 0 -84 19t-60 56q-21 -37 -60 -56t-84 -19
q-64 0 -105.5 17.5t-66 50.5t-34 79.5t-9.5 103.5q0 69 18 134.5t51 122.5q5 10 10.5 14t17.5 4h128q11 0 15 -6.5t-1 -15.5q-27 -58 -40 -124t-13 -124q0 -54 10 -78t30 -24q38 0 38 99v162q0 21 20 21h150z" />
    <glyph glyph-name="iotadieresis" unicode="&#x3ca;" horiz-adv-x="407" 
d="M56 188q0 -91 48 -143.5t153 -52.5q68 0 130 17q19 5 19 23v108q0 17 -17 14q-12 -2 -27 -3t-28 -1q-43 0 -57.5 17.5t-14.5 50.5v279q0 21 -20 21h-166q-20 0 -20 -21v-309zM214 590q-20 0 -20 21v106q0 21 20 21h120q20 0 20 -21v-18q0 -13 -5.5 -37t-17.5 -51
q-4 -8 -11.5 -14.5t-18.5 -6.5h-87zM104 738q20 0 20 -21v-106q0 -21 -20 -21h-120q-20 0 -20 21v18q0 13 5.5 37t17.5 51q4 8 11.5 14.5t18.5 6.5h87z" />
    <glyph glyph-name="upsilondieresis" unicode="&#x3cb;" horiz-adv-x="601" 
d="M74 222q0 -112 60 -171t182 -59q128 0 188.5 64t60.5 187q0 72 -20 133.5t-57 123.5q-11 18 -31 18h-141q-11 0 -15 -6.5t0 -14.5q28 -58 43 -124.5t15 -124.5q0 -51 -7 -76.5t-34 -25.5q-23 0 -30.5 26t-7.5 73v124q0 87 -42.5 122t-117.5 35q-20 0 -40.5 -2.5
t-52.5 -9.5q-19 -5 -19 -23v-105q0 -14 16 -14h19q16 0 23.5 -11.5t7.5 -49.5v-89zM338 590q-20 0 -20 21v106q0 21 20 21h120q20 0 20 -21v-18q0 -13 -5.5 -37t-17.5 -51q-4 -8 -11.5 -14.5t-18.5 -6.5h-87zM228 738q20 0 20 -21v-106q0 -21 -20 -21h-120q-20 0 -20 21v18
q0 13 5.5 37t17.5 51q4 8 11.5 14.5t18.5 6.5h87z" />
    <glyph glyph-name="omicrontonos" unicode="&#x3cc;" horiz-adv-x="568" 
d="M26 279q0 124 66 185.5t192 61.5t192 -61.5t66 -185.5v-40q0 -124 -66 -185.5t-192 -61.5t-192 61.5t-66 185.5v40zM336 277q0 53 -10 74t-42 21t-42 -21t-10 -74v-36q0 -54 10 -74.5t42 -20.5t42 20.5t10 74.5v36zM286 753q6 5 13.5 7t15.5 -3l82 -61q15 -11 1 -25
q-28 -28 -61.5 -50t-79.5 -43q-17 -8 -29 1l-59 44q-11 9 -2 18z" />
    <glyph glyph-name="upsilontonos" unicode="&#x3cd;" horiz-adv-x="601" 
d="M74 222q0 -112 60 -171t182 -59q128 0 188.5 64t60.5 187q0 72 -20 133.5t-57 123.5q-11 18 -31 18h-141q-11 0 -15 -6.5t0 -14.5q28 -58 43 -124.5t15 -124.5q0 -51 -7 -76.5t-34 -25.5q-23 0 -30.5 26t-7.5 73v124q0 87 -42.5 122t-117.5 35q-20 0 -40.5 -2.5
t-52.5 -9.5q-19 -5 -19 -23v-105q0 -14 16 -14h19q16 0 23.5 -11.5t7.5 -49.5v-89zM293 753q6 5 13.5 7t15.5 -3l82 -61q15 -11 1 -25q-28 -28 -61.5 -50t-79.5 -43q-17 -8 -29 1l-59 44q-11 9 -2 18z" />
    <glyph glyph-name="omegatonos" unicode="&#x3ce;" horiz-adv-x="790" 
d="M470 428q20 0 20 -21v-162q0 -99 38 -99q20 0 30 24t10 78q0 58 -13 124t-40 124q-5 9 -1 15.5t15 6.5h128q12 0 17.5 -4t10.5 -14q33 -57 51 -122.5t18 -134.5q0 -57 -9.5 -103.5t-34 -79.5t-66 -50.5t-105.5 -17.5q-45 0 -84 19t-60 56q-21 -37 -60 -56t-84 -19
q-64 0 -105.5 17.5t-66 50.5t-34 79.5t-9.5 103.5q0 69 18 134.5t51 122.5q5 10 10.5 14t17.5 4h128q11 0 15 -6.5t-1 -15.5q-27 -58 -40 -124t-13 -124q0 -54 10 -78t30 -24q38 0 38 99v162q0 21 20 21h150zM427 753q6 5 13.5 7t15.5 -3l82 -61q15 -11 1 -25
q-28 -28 -61.5 -50t-79.5 -43q-17 -8 -29 1l-59 44q-11 9 -2 18z" />
    <glyph glyph-name="uni0400" unicode="&#x400;" horiz-adv-x="596" 
d="M286 436h209q21 0 21 -20v-126q0 -20 -21 -20h-209v-64q0 -28 8.5 -40t36.5 -12h197q17 0 17 -17v-113q0 -23 -23 -24q-66 -5 -134.5 -8.5t-137.5 -3.5q-50 0 -85 9.5t-57 29.5t-32 49.5t-10 70.5v406q0 81 42.5 120t141.5 39q68 0 132 -3t130 -9q23 -1 23 -24v-113
q0 -17 -17 -17h-187q-28 0 -36.5 -12t-8.5 -40v-58zM423 815q9 -9 -2 -18l-59 -44q-12 -9 -29 -1q-46 21 -79.5 43t-61.5 50q-14 14 1 25l82 61q8 5 15.5 3t13.5 -7z" />
    <glyph glyph-name="afii10023" unicode="&#x401;" horiz-adv-x="596" 
d="M286 436h209q21 0 21 -20v-126q0 -20 -21 -20h-209v-64q0 -28 8.5 -40t36.5 -12h197q17 0 17 -17v-113q0 -23 -23 -24q-66 -5 -134.5 -8.5t-137.5 -3.5q-50 0 -85 9.5t-57 29.5t-32 49.5t-10 70.5v406q0 81 42.5 120t141.5 39q68 0 132 -3t130 -9q23 -1 23 -24v-113
q0 -17 -17 -17h-187q-28 0 -36.5 -12t-8.5 -40v-58zM370 764q-20 0 -20 21v106q0 21 20 21h120q20 0 20 -21v-18q0 -13 -5.5 -37t-17.5 -51q-4 -8 -11.5 -14.5t-18.5 -6.5h-87zM260 912q20 0 20 -21v-106q0 -21 -20 -21h-120q-20 0 -20 21v18q0 13 5.5 37t17.5 51
q4 8 11.5 14.5t18.5 6.5h87z" />
    <glyph glyph-name="afii10051" unicode="&#x402;" horiz-adv-x="816" 
d="M386 534v-116q29 10 62.5 16t68.5 6h21q113 -2 172.5 -53t59.5 -151v-40q0 -99 -53.5 -153.5t-162.5 -54.5q-32 0 -61.5 5.5t-57.5 17.5q-15 6 -15 24v104q0 14 14 11q27 -8 63 -8q23 0 35.5 5t18.5 14t7.5 20.5t1.5 25.5v18q0 29 -16 45t-58 16h-25q-19 0 -36.5 -1
t-38.5 -3v-261q0 -21 -20 -21h-180q-20 0 -20 21v513h-137q-21 0 -21 20v126q0 20 21 20h494q21 0 21 -20v-126q0 -20 -21 -20h-137z" />
    <glyph glyph-name="afii10052" unicode="&#x403;" horiz-adv-x="560" 
d="M286 534v-513q0 -21 -20 -21h-180q-20 0 -20 21v658q0 21 20 21h447q21 0 21 -20v-126q0 -20 -21 -20h-247zM317 927q6 5 13.5 7t15.5 -3l82 -61q15 -11 1 -25q-28 -28 -61.5 -50t-79.5 -43q-17 -8 -29 1l-59 44q-11 9 -2 18z" />
    <glyph glyph-name="afii10053" unicode="&#x404;" horiz-adv-x="576" 
d="M46 380q0 82 15.5 144.5t50.5 104t92.5 62.5t141.5 21q41 0 86.5 -8t77.5 -20q20 -7 20 -24v-104q0 -8 -5 -13t-12 -4q-31 4 -57 5.5t-58 1.5q-60 0 -89.5 -24t-38.5 -82h204q21 0 21 -20v-126q0 -20 -21 -20h-205q8 -66 39.5 -93t94.5 -27q32 0 61 1.5t59 5.5
q8 1 12.5 -4t4.5 -13v-104q0 -10 -4.5 -14.5t-15.5 -9.5q-38 -15 -79.5 -21.5t-89.5 -6.5q-84 0 -142 21t-94.5 62.5t-52.5 103.5t-16 145v60z" />
    <glyph glyph-name="afii10054" unicode="&#x405;" horiz-adv-x="565" 
d="M240 153q35 0 49.5 14.5t14.5 41.5q0 44 -47 67l-89 42q-35 16 -58 35t-37.5 42t-20.5 51t-6 63q0 100 54 151.5t178 51.5q24 0 50.5 -2t53.5 -6t51.5 -9.5t44.5 -11.5q10 -3 14 -7.5t4 -13.5v-105q0 -24 -23 -21q-36 5 -71 8t-70 3q-38 0 -52 -11t-14 -34t12 -37.5
t34 -24.5l97 -44q66 -30 90.5 -78t24.5 -121q0 -52 -12 -91t-40.5 -65.5t-76 -39.5t-118.5 -13q-57 0 -110.5 7.5t-101.5 21.5q-8 2 -13 6.5t-5 14.5v105q0 11 4.5 17t15.5 4q45 -5 86.5 -8t86.5 -3z" />
    <glyph glyph-name="afii10055" unicode="&#x406;" horiz-adv-x="372" 
d="M296 21q0 -21 -20 -21h-180q-20 0 -20 21v658q0 21 20 21h180q20 0 20 -21v-658z" />
    <glyph glyph-name="afii10056" unicode="&#x407;" horiz-adv-x="372" 
d="M296 21q0 -21 -20 -21h-180q-20 0 -20 21v658q0 21 20 21h180q20 0 20 -21v-658zM241 764q-20 0 -20 21v106q0 21 20 21h120q20 0 20 -21v-18q0 -13 -5.5 -37t-17.5 -51q-4 -8 -11.5 -14.5t-18.5 -6.5h-87zM131 912q20 0 20 -21v-106q0 -21 -20 -21h-120q-20 0 -20 21v18
q0 13 5.5 37t17.5 51q4 8 11.5 14.5t18.5 6.5h87z" />
    <glyph glyph-name="afii10057" unicode="&#x408;" horiz-adv-x="475" 
d="M409 216q0 -49 -7.5 -91t-28.5 -72.5t-57.5 -47.5t-94.5 -17q-26 0 -53 2t-53 5.5t-50 8.5t-43 11q-21 7 -21 29v104q0 17 19 14q26 -4 55.5 -6t54.5 -2q38 0 48.5 19.5t10.5 55.5v454q0 17 17 17h186q17 0 17 -17v-467z" />
    <glyph glyph-name="afii10058" unicode="&#x409;" horiz-adv-x="988" 
d="M633 700q20 0 20 -21v-235q15 2 30 3t34 1q75 0 122.5 -16t74.5 -46t37.5 -72.5t10.5 -95.5t-12.5 -95.5t-42.5 -72.5t-79.5 -46t-124.5 -16q-66 0 -120 4.5t-94 13.5q-26 6 -36 21.5t-10 47.5v460h-74v-319q0 -49 -7 -91t-26 -72.5t-53 -48t-89 -17.5q-45 0 -92 7.5
t-80 20.5q-21 8 -21 31v102q0 17 19 14q20 -4 41.5 -6.5t41.5 -2.5q32 0 44 20t12 56v454q0 17 17 17h457zM697 136q36 0 50.5 18.5t14.5 60.5q0 45 -13.5 65t-51.5 20q-23 0 -44 -3v-159q11 -2 21.5 -2h22.5z" />
    <glyph glyph-name="afii10059" unicode="&#x40a;" horiz-adv-x="952" 
d="M407 679q0 21 20 21h170q20 0 20 -21v-235q15 2 30 3t34 1q75 0 122.5 -16t74.5 -46t37.5 -72.5t10.5 -95.5t-12.5 -95.5t-42.5 -72.5t-79.5 -46t-124.5 -16q-66 0 -120 4.5t-94 13.5q-26 6 -36 21.5t-10 47.5v202h-131v-260q0 -17 -17 -17h-176q-17 0 -17 17v666
q0 17 17 17h176q17 0 17 -17v-240h131v236zM661 136q36 0 50.5 18.5t14.5 60.5q0 45 -13.5 65t-51.5 20q-23 0 -44 -3v-159q12 -2 22 -2h22z" />
    <glyph glyph-name="afii10060" unicode="&#x40b;" horiz-adv-x="796" 
d="M386 534v-116q27 10 58 16t63 6h16q115 0 168.5 -48.5t53.5 -155.5v-215q0 -21 -20 -21h-170q-20 0 -20 21v204q0 32 -17.5 46.5t-49.5 14.5h-14q-19 0 -34.5 -1.5t-33.5 -4.5v-259q0 -21 -20 -21h-180q-20 0 -20 21v513h-137q-21 0 -21 20v126q0 20 21 20h494
q21 0 21 -20v-126q0 -20 -21 -20h-137z" />
    <glyph glyph-name="afii10061" unicode="&#x40c;" horiz-adv-x="648" 
d="M462 363l182 -340q4 -7 2 -15t-14 -8h-187q-14 0 -22 5.5t-13 16.5l-124 274v-275q0 -21 -20 -21h-180q-20 0 -20 21v658q0 21 20 21h180q20 0 20 -21v-249l114 248q5 11 12 16.5t22 5.5h173q12 0 14 -7.5t-2 -15.5zM360 927q6 5 13.5 7t15.5 -3l82 -61q15 -11 1 -25
q-28 -28 -61.5 -50t-79.5 -43q-17 -8 -29 1l-59 44q-11 9 -2 18z" />
    <glyph glyph-name="uni040D" unicode="&#x40d;" horiz-adv-x="738" 
d="M482 815q9 -9 -2 -18l-59 -44q-12 -9 -29 -1q-46 21 -79.5 43t-61.5 50q-14 14 1 25l82 61q8 5 15.5 3t13.5 -7zM392 674q5 15 15 20.5t33 5.5h215q17 0 17 -17v-666q0 -17 -17 -17h-171q-17 0 -17 17v395l-121 -386q-5 -15 -15 -20.5t-33 -5.5h-215q-17 0 -17 17v666
q0 17 17 17h171q17 0 17 -17v-395z" />
    <glyph glyph-name="afii10062" unicode="&#x40e;" horiz-adv-x="665" 
d="M379 208q-26 -9 -56.5 -11.5t-68.5 -2.5q-88 0 -138 48.5t-50 150.5v286q0 21 20 21h180q20 0 20 -21v-262q0 -26 12 -41.5t43 -15.5h19t19 2v317q0 21 20 21h180q20 0 20 -21v-489q0 -49 -15.5 -87t-50 -63.5t-88.5 -38.5t-130 -13q-23 0 -47.5 2t-49 5t-46.5 8t-39 11
q-19 6 -19 23v112q0 17 17 14q30 -5 66.5 -7t69.5 -2q56 0 84 6.5t28 37.5v10zM332 851q32 0 55.5 14.5t30.5 41.5q2 8 6.5 12.5t13.5 4.5h63q19 0 19 -18q0 -38 -14 -68t-39 -52t-59.5 -33.5t-75.5 -11.5t-75.5 11.5t-59.5 33.5t-39 52t-14 68q0 18 19 18h63q9 0 13.5 -4.5
t6.5 -12.5q7 -27 30.5 -41.5t55.5 -14.5z" />
    <glyph glyph-name="afii10145" unicode="&#x40f;" horiz-adv-x="723" 
d="M266 700q20 0 20 -21v-513h151v513q0 21 20 21h180q20 0 20 -21v-658q0 -21 -20 -21h-166v-149q0 -21 -20 -21h-180q-20 0 -20 21v149h-165q-20 0 -20 21v658q0 21 20 21h180z" />
    <glyph glyph-name="afii10017" unicode="&#x410;" horiz-adv-x="638" 
d="M31 0q-11 0 -14.5 6.5t-1.5 16.5l152 658q2 8 8 13.5t19 5.5h250q13 0 19 -5.5t8 -13.5l152 -658q2 -10 -1.5 -16.5t-14.5 -6.5h-177q-20 0 -23 17l-18 105h-140l-18 -105q-3 -17 -23 -17h-177zM319 534l-46 -268h91z" />
    <glyph glyph-name="afii10018" unicode="&#x411;" horiz-adv-x="611" 
d="M66 679q0 21 20 21h410q21 0 21 -20v-126q0 -20 -21 -20h-220v-90q15 2 30 3t34 1q75 0 122.5 -16t74.5 -46t37.5 -72.5t10.5 -95.5t-12.5 -95.5t-42.5 -72.5t-79.5 -46t-124.5 -16q-66 0 -120 4.5t-94 13.5q-26 6 -36 21.5t-10 47.5v604zM320 136q36 0 50.5 18.5
t14.5 60.5q0 45 -13.5 65t-51.5 20q-23 0 -44 -3v-159q11 -2 21.5 -2h22.5z" />
    <glyph glyph-name="afii10019" unicode="&#x412;" horiz-adv-x="652" 
d="M266 427h66q36 0 49.5 19t13.5 51q0 30 -15.5 48.5t-57.5 18.5q-11 0 -28.5 -1.5t-27.5 -3.5v-132zM66 625q0 32 10 47.5t36 21.5q42 10 97.5 14t112.5 4q138 0 200 -52t62 -145q0 -48 -20 -83t-61 -63q57 -20 82.5 -62.5t25.5 -96.5q0 -57 -14.5 -98.5t-47 -69t-84 -41
t-126.5 -13.5q-66 0 -126.5 4.5t-100.5 13.5q-26 6 -36 21.5t-10 47.5v550zM266 141q18 -3 36 -4t36 -1q32 0 52.5 17t20.5 60q0 36 -16 57t-52 21h-77v-150z" />
    <glyph glyph-name="afii10020" unicode="&#x413;" horiz-adv-x="560" 
d="M286 534v-513q0 -21 -20 -21h-180q-20 0 -20 21v658q0 21 20 21h447q21 0 21 -20v-126q0 -20 -21 -20h-247z" />
    <glyph glyph-name="afii10021" unicode="&#x414;" horiz-adv-x="647" 
d="M559 700q20 0 20 -21v-523h32q20 0 20 -21v-214q0 -21 -20 -21h-155q-20 0 -20 21v79h-235v-79q0 -21 -20 -21h-155q-20 0 -20 21v214q0 21 20 21h33q31 71 52 129t34.5 110.5t21 104.5t13.5 112q4 41 23 64.5t69 23.5h287zM349 521q-4 -48 -10 -90.5t-15.5 -85
t-24 -88.5t-35.5 -101h125v388h-22q-10 0 -13.5 -6.5t-4.5 -16.5z" />
    <glyph glyph-name="afii10022" unicode="&#x415;" horiz-adv-x="596" 
d="M286 436h209q21 0 21 -20v-126q0 -20 -21 -20h-209v-64q0 -28 8.5 -40t36.5 -12h197q17 0 17 -17v-113q0 -23 -23 -24q-66 -5 -134.5 -8.5t-137.5 -3.5q-50 0 -85 9.5t-57 29.5t-32 49.5t-10 70.5v406q0 81 42.5 120t141.5 39q68 0 132 -3t130 -9q23 -1 23 -24v-113
q0 -17 -17 -17h-187q-28 0 -36.5 -12t-8.5 -40v-58z" />
    <glyph glyph-name="afii10024" unicode="&#x416;" horiz-adv-x="874" 
d="M713 363l157 -340q3 -8 1.5 -15.5t-13.5 -7.5h-177q-26 0 -35 22l-104 274v-275q0 -21 -20 -21h-170q-20 0 -20 21v275l-104 -274q-9 -22 -35 -22h-177q-12 0 -13.5 7.5t1.5 15.5l157 340l-132 314q-4 8 -2 15.5t14 7.5h166q15 0 22.5 -5.5t11.5 -16.5l91 -248v249
q0 21 20 21h170q20 0 20 -21v-249l91 248q4 11 11.5 16.5t22.5 5.5h166q12 0 14 -7.5t-2 -15.5z" />
    <glyph glyph-name="afii10025" unicode="&#x417;" horiz-adv-x="557" 
d="M91 283q-21 0 -21 20v116q0 20 21 20h102q51 0 80.5 10t29.5 43q0 34 -27.5 47t-81.5 13q-34 0 -64 -2.5t-62 -7.5q-23 -4 -23 20v101q0 17 20 23q42 13 91 19.5t100 6.5q118 0 182.5 -54t64.5 -154q0 -87 -75 -141q45 -28 64 -67t19 -91q0 -49 -19 -89t-52.5 -68.5
t-80 -44t-101.5 -15.5q-47 0 -102 6.5t-100 19.5q-20 6 -20 23v101q0 23 23 20q33 -5 67 -7.5t71 -2.5q20 0 40 2t36.5 8.5t27 19.5t10.5 35q0 41 -31.5 55.5t-82.5 14.5h-106z" />
    <glyph glyph-name="afii10026" unicode="&#x418;" horiz-adv-x="738" 
d="M392 674q5 15 15 20.5t33 5.5h215q17 0 17 -17v-666q0 -17 -17 -17h-171q-17 0 -17 17v395l-121 -386q-5 -15 -15 -20.5t-33 -5.5h-215q-17 0 -17 17v666q0 17 17 17h171q17 0 17 -17v-395z" />
    <glyph glyph-name="afii10027" unicode="&#x419;" horiz-adv-x="738" 
d="M369 851q32 0 55.5 14.5t30.5 41.5q2 8 6.5 12.5t13.5 4.5h63q19 0 19 -18q0 -38 -14 -68t-39 -52t-59.5 -33.5t-75.5 -11.5t-75.5 11.5t-59.5 33.5t-39 52t-14 68q0 18 19 18h63q9 0 13.5 -4.5t6.5 -12.5q7 -27 30.5 -41.5t55.5 -14.5zM271 288v395q0 17 -17 17h-171
q-17 0 -17 -17v-666q0 -17 17 -17h215q23 0 33 5.5t15 20.5l121 386v-395q0 -17 17 -17h171q17 0 17 17v666q0 17 -17 17h-215q-23 0 -33 -5.5t-15 -20.5z" />
    <glyph glyph-name="afii10028" unicode="&#x41a;" horiz-adv-x="648" 
d="M462 363l182 -340q4 -7 2 -15t-14 -8h-187q-14 0 -22 5.5t-13 16.5l-124 274v-275q0 -21 -20 -21h-180q-20 0 -20 21v658q0 21 20 21h180q20 0 20 -21v-249l114 248q5 11 12 16.5t22 5.5h173q12 0 14 -7.5t-2 -15.5z" />
    <glyph glyph-name="afii10029" unicode="&#x41b;" horiz-adv-x="733" 
d="M369 217q0 -49 -7 -91t-26 -72.5t-53 -48t-89 -17.5q-48 0 -91 7.5t-81 20.5q-21 7 -21 29v104q0 17 19 14q20 -4 41.5 -6.5t41.5 -2.5q32 0 44 20t12 56v453q0 17 17 17h471q20 0 20 -21v-658q0 -21 -20 -21h-180q-20 0 -20 21v514h-78v-318z" />
    <glyph glyph-name="afii10030" unicode="&#x41c;" horiz-adv-x="876" 
d="M388 168q-29 0 -39 26l-78 196v-373q0 -17 -17 -17h-171q-17 0 -17 17v666q0 17 17 17h183q22 0 32 -6t16 -20l124 -300l124 300q6 14 16 20t32 6h183q17 0 17 -17v-666q0 -17 -17 -17h-171q-17 0 -17 17v373l-78 -196q-10 -26 -39 -26h-100z" />
    <glyph glyph-name="afii10031" unicode="&#x41d;" horiz-adv-x="693" 
d="M407 277h-121v-260q0 -17 -17 -17h-186q-17 0 -17 17v666q0 17 17 17h186q17 0 17 -17v-240h121v240q0 17 17 17h186q17 0 17 -17v-666q0 -17 -17 -17h-186q-17 0 -17 17v260z" />
    <glyph glyph-name="afii10032" unicode="&#x41e;" horiz-adv-x="700" 
d="M350 -12q-80 0 -137.5 21.5t-94.5 64t-54.5 106t-17.5 147.5v46q0 84 17.5 147.5t54.5 106t94.5 64t137.5 21.5q160 0 232 -85t72 -254v-46q0 -169 -72 -254t-232 -85zM434 368q0 48 -3 82t-12 55.5t-25.5 31t-43.5 9.5t-43.5 -9.5t-25.5 -31t-12 -55.5t-3 -82v-36
q0 -48 3 -82t12 -55.5t25.5 -31t43.5 -9.5t43.5 9.5t25.5 31t12 55.5t3 82v36z" />
    <glyph glyph-name="afii10033" unicode="&#x41f;" horiz-adv-x="723" 
d="M86 0q-20 0 -20 21v658q0 21 20 21h551q20 0 20 -21v-658q0 -21 -20 -21h-180q-20 0 -20 21v513h-151v-513q0 -21 -20 -21h-180z" />
    <glyph glyph-name="afii10034" unicode="&#x420;" horiz-adv-x="622" 
d="M66 625q0 32 10 47.5t36 21.5q42 10 99.5 14t114.5 4q136 0 198 -56.5t62 -162.5v-49q0 -53 -12.5 -95t-39.5 -70.5t-70.5 -43.5t-104.5 -15q-17 0 -40 1.5t-43 4.5v-205q0 -21 -20 -21h-170q-20 0 -20 21v604zM276 371q10 -2 22.5 -2.5t23.5 -0.5q34 0 46.5 24t12.5 63
v24q0 39 -12.5 62t-46.5 23q-11 0 -24.5 -1t-21.5 -4v-188z" />
    <glyph glyph-name="afii10035" unicode="&#x421;" horiz-adv-x="576" 
d="M46 380q0 82 15.5 144.5t50.5 104t92.5 62.5t141.5 21q41 0 86.5 -8t77.5 -20q20 -7 20 -24v-104q0 -8 -5 -13t-12 -4q-31 4 -57 5.5t-58 1.5q-37 0 -62.5 -9t-41 -30t-22 -55t-6.5 -83v-38q0 -50 7.5 -83.5t24 -54.5t42.5 -30t63 -9q32 0 61 1.5t59 5.5q8 1 12.5 -4
t4.5 -13v-104q0 -10 -4.5 -14.5t-15.5 -9.5q-38 -15 -79.5 -21.5t-89.5 -6.5q-84 0 -142 21t-94.5 62.5t-52.5 103.5t-16 145v60z" />
    <glyph glyph-name="afii10036" unicode="&#x422;" horiz-adv-x="552" 
d="M386 534v-513q0 -21 -20 -21h-180q-20 0 -20 21v513h-137q-21 0 -21 20v126q0 20 21 20h494q21 0 21 -20v-126q0 -20 -21 -20h-137z" />
    <glyph glyph-name="afii10037" unicode="&#x423;" horiz-adv-x="665" 
d="M379 208q-26 -9 -56.5 -11.5t-68.5 -2.5q-88 0 -138 48.5t-50 150.5v286q0 21 20 21h180q20 0 20 -21v-262q0 -26 12 -41.5t43 -15.5h19t19 2v317q0 21 20 21h180q20 0 20 -21v-489q0 -49 -15.5 -87t-50 -63.5t-88.5 -38.5t-130 -13q-23 0 -47.5 2t-49 5t-46.5 8t-39 11
q-19 6 -19 23v112q0 17 17 14q30 -5 66.5 -7t69.5 -2q56 0 84 6.5t28 37.5v10z" />
    <glyph glyph-name="afii10038" unicode="&#x424;" horiz-adv-x="758" 
d="M284 679q0 21 20 21h150q20 0 20 -21v-73q125 -14 196.5 -75.5t71.5 -180.5t-71.5 -181t-196.5 -76v-72q0 -21 -20 -21h-150q-20 0 -20 21v72q-125 14 -196.5 76t-71.5 181t71.5 180.5t196.5 75.5v73zM553 350q0 47 -20.5 71.5t-58.5 34.5v-212q38 10 58.5 34t20.5 72z
M205 350q0 -48 20.5 -72t58.5 -34v212q-38 -10 -58.5 -34.5t-20.5 -71.5z" />
    <glyph glyph-name="afii10039" unicode="&#x425;" horiz-adv-x="631" 
d="M393 678q5 11 11.5 16.5t20.5 5.5h165q13 0 17 -7.5t0 -15.5l-144 -318l154 -336q4 -8 0 -15.5t-17 -7.5h-165q-14 0 -20.5 5.5t-11.5 16.5l-88 211l-87 -211q-5 -11 -11.5 -16.5t-20.5 -5.5h-165q-13 0 -17 7.5t0 15.5l154 336l-144 318q-4 8 0 15.5t17 7.5h165
q14 0 21 -5.5t11 -16.5l77 -193z" />
    <glyph glyph-name="afii10040" unicode="&#x426;" horiz-adv-x="802" 
d="M266 700q20 0 20 -21v-513h151v513q0 21 20 21h180q20 0 20 -21v-513h109q20 0 20 -21v-238q0 -21 -20 -21h-180q-20 0 -20 21v93h-480q-20 0 -20 21v658q0 21 20 21h180z" />
    <glyph glyph-name="afii10041" unicode="&#x427;" horiz-adv-x="684" 
d="M66 679q0 21 20 21h180q20 0 20 -21v-242q0 -36 15 -54t50 -18q8 0 22.5 0.5t24.5 1.5v312q0 21 20 21h180q20 0 20 -21v-658q0 -21 -20 -21h-180q-20 0 -20 21v192q-28 -8 -67 -11t-77 -3q-88 0 -138 52.5t-50 171.5v256z" />
    <glyph glyph-name="afii10042" unicode="&#x428;" horiz-adv-x="884" 
d="M256 700q20 0 20 -21v-513h61v513q0 21 20 21h170q20 0 20 -21v-513h61v513q0 21 20 21h170q20 0 20 -21v-658q0 -21 -20 -21h-712q-20 0 -20 21v658q0 21 20 21h170z" />
    <glyph glyph-name="afii10043" unicode="&#x429;" horiz-adv-x="963" 
d="M256 700q20 0 20 -21v-513h61v513q0 21 20 21h170q20 0 20 -21v-513h61v513q0 21 20 21h170q20 0 20 -21v-513h109q20 0 20 -21v-238q0 -21 -20 -21h-170q-20 0 -20 21v93h-651q-20 0 -20 21v658q0 21 20 21h170z" />
    <glyph glyph-name="afii10044" unicode="&#x42a;" horiz-adv-x="687" 
d="M22 534q-21 0 -21 20v126q0 20 21 20h310q20 0 20 -21v-235q15 2 30 3t34 1q75 0 122.5 -16t74.5 -46t37.5 -72.5t10.5 -95.5t-12.5 -95.5t-42.5 -72.5t-79.5 -46t-124.5 -16q-66 0 -120 4.5t-94 13.5q-26 6 -36 21.5t-10 47.5v459h-120zM396 136q36 0 50.5 18.5
t14.5 60.5q0 45 -13.5 65t-51.5 20q-23 0 -44 -3v-159q11 -2 21.5 -2h22.5z" />
    <glyph glyph-name="afii10045" unicode="&#x42b;" horiz-adv-x="902" 
d="M836 21q0 -21 -20 -21h-170q-20 0 -20 21v658q0 21 20 21h170q20 0 20 -21v-658zM66 679q0 21 20 21h170q20 0 20 -21v-235q15 2 30 3t34 1q75 0 122.5 -16t74.5 -46t37.5 -72.5t10.5 -95.5t-12.5 -95.5t-42.5 -72.5t-79.5 -46t-124.5 -16q-66 0 -120 4.5t-94 13.5
q-26 6 -36 21.5t-10 47.5v604zM320 136q36 0 50.5 18.5t14.5 60.5q0 45 -13.5 65t-51.5 20q-23 0 -44 -3v-159q8 -1 19.5 -1.5t24.5 -0.5z" />
    <glyph glyph-name="afii10046" unicode="&#x42c;" horiz-adv-x="591" 
d="M46 679q0 21 20 21h170q20 0 20 -21v-235q15 2 30 3t34 1q75 0 122.5 -16t74.5 -46t37.5 -72.5t10.5 -95.5t-12.5 -95.5t-42.5 -72.5t-79.5 -46t-124.5 -16q-66 0 -120 4.5t-94 13.5q-26 6 -36 21.5t-10 47.5v604zM300 136q36 0 50.5 18.5t14.5 60.5q0 45 -13.5 65
t-51.5 20q-23 0 -44 -3v-159q11 -2 21.5 -2h22.5z" />
    <glyph glyph-name="afii10047" unicode="&#x42d;" horiz-adv-x="576" 
d="M530 320q0 -83 -16 -145t-52.5 -103.5t-94.5 -62.5t-142 -21q-48 0 -89.5 6.5t-79.5 21.5q-11 5 -15.5 9.5t-4.5 14.5v104q0 8 4.5 13t12.5 4q30 -4 59 -5.5t61 -1.5q63 0 94.5 27t39.5 93h-205q-21 0 -21 20v126q0 20 21 20h204q-9 58 -38.5 82t-89.5 24q-32 0 -58 -1.5
t-57 -5.5q-7 -1 -12 4t-5 13v104q0 17 20 24q32 12 77.5 20t86.5 8q84 0 141.5 -21t92.5 -62.5t50.5 -104t15.5 -144.5v-60z" />
    <glyph glyph-name="afii10048" unicode="&#x42e;" horiz-adv-x="935" 
d="M610 -12q-73 0 -123.5 17.5t-83 52t-49.5 87t-21 121.5h-57v-245q0 -21 -20 -21h-170q-20 0 -20 21v658q0 21 20 21h170q20 0 20 -21v-247h56q4 70 21 122.5t49.5 87.5t83.5 52.5t124 17.5q80 0 133.5 -21.5t86 -64t46 -106t13.5 -147.5v-46q0 -84 -13.5 -147.5t-46 -106
t-86 -64t-133.5 -21.5zM679 368q0 48 -2 82t-9.5 55.5t-21 31t-36.5 9.5t-36.5 -9.5t-21 -31t-9.5 -55.5t-2 -82v-36q0 -48 2 -82t9.5 -55.5t21 -31t36.5 -9.5t36.5 9.5t21 31t9.5 55.5t2 82v36z" />
    <glyph glyph-name="afii10049" unicode="&#x42f;" horiz-adv-x="635" 
d="M359 241q-8 -2 -17 -2.5t-19 -1.5l-90 -216q-8 -21 -32 -21h-176q-8 0 -11.5 6.5t0.5 14.5l120 246q-44 27 -63 75t-19 115v38q0 106 60.5 161.5t196.5 55.5q57 0 114.5 -4t99.5 -14q26 -6 36 -21.5t10 -47.5v-604q0 -21 -20 -21h-170q-20 0 -20 21v220zM313 383h21t25 2
v174q-8 3 -21.5 4t-24.5 1q-33 0 -44.5 -21.5t-11.5 -57.5v-20q0 -35 11.5 -58.5t44.5 -23.5z" />
    </font>
</defs>
</svg>
